<?xml version="1.0" encoding="UTF-8"?>
<svg width="109px" height="84px" viewBox="0 0 109 84" version="1.1" xmlns="http://www.w3.org/2000/svg" xmlns:xlink="http://www.w3.org/1999/xlink">
    <!-- Generator: Sketch 51.3 (57544) - http://www.bohemiancoding.com/sketch -->
    <title>btvP_lateral</title>
    <desc>Created with Sketch.</desc>
    <defs>
        <path d="M0.0863779702,17.8861496 C18.6347681,9.20836519 28.6114237,4.34188319 30.0163447,3.2867036 C31.4212656,2.23152401 33.2968318,1.81305741 35.6430431,2.0313038 C34.7274338,2.60895722 34.2696291,2.89778393 34.2696291,2.89778393 C34.2696291,2.89778393 34.387328,2.80051296 34.6357709,2.64178764 C35.6158323,2.01564527 38.6304757,0.433175907 44.4805019,0.0930747922 C46.6108816,-0.0265927978 51.9330935,0.145429363 47.216358,6.00166205 C45.1158783,8.61191136 43.4638996,10.0554017 43.4638996,10.0554017 C36.2953586,29.5387812 8.69759716,40.8772853 7.50906951,30.0548476 C7.50906951,30.0548476 0.161128137,18.0432133 0.0863779702,17.8861496 Z" id="path-1"></path>
        <path d="M0.0863779702,17.8861496 C18.6347681,9.20836519 28.6114237,4.34188319 30.0163447,3.2867036 C31.4212656,2.23152401 33.2968318,1.81305741 35.6430431,2.0313038 C34.7274338,2.60895722 34.2696291,2.89778393 34.2696291,2.89778393 C34.2696291,2.89778393 34.387328,2.80051296 34.6357709,2.64178764 C35.6158323,2.01564527 38.6304757,0.433175907 44.4805019,0.0930747922 C46.6108816,-0.0265927978 51.9330935,0.145429363 47.216358,6.00166205 C45.1158783,8.61191136 43.4638996,10.0554017 43.4638996,10.0554017 C36.2953586,29.5387812 8.69759716,40.8772853 7.50906951,30.0548476 C7.50906951,30.0548476 0.161128137,18.0432133 0.0863779702,17.8861496 Z" id="path-3"></path>
        <path d="M0.109506257,9.62530662 C1.54937196,7.87407283 2.42123285,6.52696161 2.72508892,5.58397297 C3.25455622,3.94082114 4.12188643,0.0351359771 4.72355437,0.0351359771 C5.32522229,0.0351359771 7.89874528,2.10289335 7.51643953,5.21827648 C7.13413379,8.3336596 5.34457033,9.09836169 4.72355437,10.5063182 C4.10253839,11.9142746 5.32853752,12.4151426 4.99381687,14.4042715 C4.65909623,16.3934004 3.697088,16.6957602 3.27773167,16.1745047 C3.13071696,15.9917669 3.93351611,15.6122538 4.15079086,13.9774279 C4.3680656,12.3426021 3.91714924,11.0868461 3.49313124,10.6507561 C3.06911325,10.214666 2.49633254,9.61667568 0.805774912,10.0571216 C0.376868953,10.1688657 -0.123266055,9.90841549 0.109506257,9.62530662 Z" id="path-5"></path>
        <path d="M0.109506257,9.62530662 C1.54937196,7.87407283 2.42123285,6.52696161 2.72508892,5.58397297 C3.25455622,3.94082114 4.12188643,0.0351359771 4.72355437,0.0351359771 C5.32522229,0.0351359771 7.89874528,2.10289335 7.51643953,5.21827648 C7.13413379,8.3336596 5.34457033,9.09836169 4.72355437,10.5063182 C4.10253839,11.9142746 5.32853752,12.4151426 4.99381687,14.4042715 C4.65909623,16.3934004 3.697088,16.6957602 3.27773167,16.1745047 C3.13071696,15.9917669 3.93351611,15.6122538 4.15079086,13.9774279 C4.3680656,12.3426021 3.91714924,11.0868461 3.49313124,10.6507561 C3.06911325,10.214666 2.49633254,9.61667568 0.805774912,10.0571216 C0.376868953,10.1688657 -0.123266055,9.90841549 0.109506257,9.62530662 Z" id="path-7"></path>
        <path d="M0.109506257,9.62530662 C1.54937196,7.87407283 2.42123285,6.52696161 2.72508892,5.58397297 C3.25455622,3.94082114 4.12188643,0.0351359771 4.72355437,0.0351359771 C5.32522229,0.0351359771 7.89874528,2.10289335 7.51643953,5.21827648 C7.13413379,8.3336596 5.34457033,9.09836169 4.72355437,10.5063182 C4.10253839,11.9142746 5.32853752,12.4151426 4.99381687,14.4042715 C4.65909623,16.3934004 3.697088,16.6957602 3.27773167,16.1745047 C3.13071696,15.9917669 3.93351611,15.6122538 4.15079086,13.9774279 C4.3680656,12.3426021 3.91714924,11.0868461 3.49313124,10.6507561 C3.06911325,10.214666 2.49633254,9.61667568 0.805774912,10.0571216 C0.376868953,10.1688657 -0.123266055,9.90841549 0.109506257,9.62530662 Z" id="path-9"></path>
        <path d="M2.86483815,30.2095091 C-0.487022486,34.0589248 -1.56386459,40.7242556 3.69142822,42.5740721 C9.16663949,44.4912908 19.2449716,46.7679881 32.303578,44.1617689 C52.4450754,40.140103 64.7377588,22.5705907 57.8444527,3.03892484 C47.073983,-0.246572405 37.7630542,-0.847393104 29.9116662,1.23646274 C26.5924077,2.11743518 24.0825424,4.81227985 22.3820708,9.32099677 L2.86483815,30.2095091 Z" id="path-11"></path>
        <path d="M38.3003417,10.8131249 L38.7694436,11.684618 C39.4645483,15.5690419 39.1938257,18.730049 37.9572757,21.1676392 C36.5602771,23.9215191 23.3860444,20.1776839 19.6669827,19.454297 C18.1354755,19.1564069 13.8593326,12.8450734 17.3998391,16.2245617 C19.352156,18.0880895 30.8084077,22.5555172 29.6842331,23.2627078 C29.1401826,23.6049566 25.457301,21.8239226 20.1121102,21.1676392 C14.7669192,20.5113559 9.3022757,21.383839 6.06620575,20.4668717 C2.75103151,19.5274894 1.66679634,16.8285445 1.2046142,14.9024498 C0.820032762,13.2997477 0.142149331,10.6864451 0.0225678847,8.40011504 L14.7669192,0.0632729364 L38.3003417,10.8131249 Z" id="path-13"></path>
        <path d="M5.20482289,0.00253091746 C8.04837635,0.00253091746 10.3728685,2.15127984 10.3728685,4.79355766 C10.3728685,7.43583549 8.04837635,9.59217716 5.20482289,9.59217716 C2.36879204,9.59217716 0.05182255,7.43583549 0.05182255,4.79355766 C0.05182255,2.15127984 2.36879204,0.00253091746 5.20482289,0.00253091746 Z" id="path-15"></path>
        <path d="M15.9821307,0.12984741 C11.2085122,4.32019753 8.46665173,5.03464844 2.36283403,13.7193965 C1.82757996,15.0108936 -1.11702887,20.8374847 0.580164764,22.5917755 C1.17421415,23.2058098 7.46846552,20.4305746 8.34841478,21.2458896 C9.27125815,22.1009478 12.3958366,20.6643375 13.8562734,21.2458896 C15.6429526,21.9573527 18.2804144,17.0769817 21.1719273,18.1585587 C23.0996025,18.8796101 23.0996025,22.6169285 21.1719273,29.3705141 C31.567892,25.5467982 41.8819986,18.1062776 38.3866624,10.9554324 C36.8510608,7.80825915 32.2532254,3.64669721 27.8711107,1.90089866 C21.8815429,-0.485296127 15.9821307,0.12984741 15.9821307,0.12984741 Z" id="path-17"></path>
        <path d="M25.6444211,29.3813683 C22.0112456,30.575817 18.1246918,31.2930944 14.5143622,31.6816321 C12.5750338,31.8903394 10.5392318,31.816978 8.84139266,31.8589809 C7.298256,32.2868002 4.06641699,32.7296309 2.68528316,32.6613065 C1.3097233,32.5932579 1.30055435,31.6368279 0.750943591,31.4353163 C-1.30963208,30.677488 1.35068723,24.7390989 5.61845863,18.0873777 C5.36996293,16.334274 6.1302019,14.5729036 7.89917555,12.8032662 C12.2294632,7.45668526 17.1081993,2.42460903 20.6280929,0.165140594 C20.6280929,0.165140594 26.5275051,-0.450002942 32.5170729,1.93619185 C36.8991874,3.6819904 41.497023,7.84355234 43.0326246,10.9907256 C46.5279608,18.1415708 36.213854,25.5820913 25.8178894,29.4058072 C25.7598809,29.3977335 25.7020582,29.3895872 25.6444211,29.3813683 Z" id="path-19"></path>
    </defs>
    <g id="Symbols" stroke="none" stroke-width="1" fill="none" fill-rule="evenodd">
        <g id="Graphics-/-App-Icons-/-Messages" transform="translate(29.000000, -13.000000)">
            <g id="Messages-Icon" transform="translate(-29.000000, 0.000000)">
                <g id="btvP_lateral">
                    <g transform="translate(0.000000, 13.000000)">
                        <g id="Group" transform="translate(59.824561, 8.684211)">
                            <path d="M5.10958916,25.1767313 L43.4638996,15.8725762 C41.5502954,21.2725762 36.7662847,32.9850416 30.5321208,37.3080332 C29.3435932,38.1307479 27.7140395,38.5944598 28.0055652,36.6274238 C24.327857,40.434349 19.3719209,43.568144 20.283873,40.6811634 C19.0729203,41.8554017 14.3636598,44.6376731 12.8537064,42.7529086 L5.10958916,25.1767313 Z" id="Shape" fill="#4C361E" fill-rule="nonzero"></path>
                            <g id="Oval-2" transform="translate(0.000000, 5.817175)">
                                <g id="Mask" fill="#7F501F" fill-rule="nonzero">
                                    <path d="M0.0863779702,17.8861496 C18.6347681,9.20836519 28.6114237,4.34188319 30.0163447,3.2867036 C31.4212656,2.23152401 33.2968318,1.81305741 35.6430431,2.0313038 C34.7274338,2.60895722 34.2696291,2.89778393 34.2696291,2.89778393 C34.2696291,2.89778393 34.387328,2.80051296 34.6357709,2.64178764 C35.6158323,2.01564527 38.6304757,0.433175907 44.4805019,0.0930747922 C46.6108816,-0.0265927978 51.9330935,0.145429363 47.216358,6.00166205 C45.1158783,8.61191136 43.4638996,10.0554017 43.4638996,10.0554017 C36.2953586,29.5387812 8.69759716,40.8772853 7.50906951,30.0548476 C7.50906951,30.0548476 0.161128137,18.0432133 0.0863779702,17.8861496 Z" id="path-1"></path>
                                </g>
                                <g id="Clipped">
                                    <mask id="mask-2" fill="white">
                                        <use xlink:href="#path-1"></use>
                                    </mask>
                                    <g id="path-1"></g>
                                    <path d="M48.2865939,9.01240446 C45.6461092,10.5377471 39.6375007,17.7117231 40.3542749,15.9645082 C41.0705805,14.218436 41.5071108,12.4180777 41.6638661,10.5634333 C40.7908053,9.52941405 38.6605789,9.52941405 35.2731869,10.5634333 C34.214875,10.8864885 40.9524884,6.99392359 40.3542749,9.01240446 C40.0032014,8.02187009 37.5025833,5.26072029 34.9614959,3.59297851 C34.7616693,3.46183029 34.9614959,3.54526918 37.3703712,-2.30074729 C39.7792466,-8.14676374 39.6586215,-3.2053515 41.6638661,-4.36373167 C45.6363609,-6.65854365 47.2201,-9.45635569 50.1586736,-4.36373167 C53.0972473,0.728892347 52.2590887,6.71759249 48.2865939,9.01240446 Z" id="Shape" fill="#683907" fill-rule="nonzero" mask="url(#mask-2)"></path>
                                </g>
                                <g id="Path-7-Clipped">
                                    <mask id="mask-4" fill="white">
                                        <use xlink:href="#path-3"></use>
                                    </mask>
                                    <g id="path-1"></g>
                                    <path d="M42.3836517,9.46487847 C38.4318904,15.007395 34.8701506,19.1456801 31.698432,21.8797339 C28.5267135,24.6137877 22.7883042,28.8266535 14.4832041,34.5183312 L17.773595,35.3781065 C23.2429771,32.389768 26.7962548,30.4642941 28.4334279,29.6016851 C30.86319,28.3214691 30.1427954,29.0106932 32.4346121,27.658055 C37.0427673,24.938306 40.3591138,18.8739138 42.3836517,9.46487847 Z" id="Path-7" fill="#683907" fill-rule="nonzero" mask="url(#mask-4)"></path>
                                </g>
                            </g>
                            <path d="M45.7064046,8.96925208 C45.6839796,8.83462604 45.6391295,8.7299169 45.5643793,8.6401662 C45.4821541,8.55041551 45.3775039,8.48310249 45.2504286,8.43074792 C44.988803,8.33351801 44.6225272,8.31855956 44.1590762,8.40083102 C43.8825006,8.44570637 43.6059249,8.55041551 43.3293493,8.69252078 C43.0602487,8.83462604 42.7986231,9.02160665 42.5444726,9.23850416 C42.5295225,9.26094183 42.5145725,9.27590028 42.4921475,9.29085873 L42.4921475,8.70747922 C42.7014479,8.55041551 42.9107484,8.40831025 43.1275239,8.29612188 C43.4339996,8.13905817 43.7554253,8.01939058 44.084326,7.96703601 C44.6225272,7.86980609 45.0635532,7.89224377 45.3999289,8.01939058 C45.8225055,8.18850104 46.1399556,8.85706371 46.1399556,8.89445983 C46.1997557,9.19362881 46.1474306,9.55263158 45.9979303,9.9565097 L44.0021008,15.3714681 C43.6582501,15.700554 43.4638996,15.8725762 43.4638996,15.8725762 L45.5868044,9.80692521 C45.7064046,9.47783934 45.7512547,9.19362881 45.7064046,8.96925208 Z M40.7504686,14.7357341 L40.7878437,14.9900277 L40.5336931,14.9975069 C39.1881901,15.0274238 37.4390362,15.4761773 35.9515079,16.2764543 C35.0769309,16.7401662 34.2995292,17.3235457 33.746378,18.0041551 C33.2081768,18.6698061 32.1467244,19.4102493 33.4100022,17.7274238 C33.9706285,16.9795014 34.8227804,16.3811634 35.7422074,15.8875346 C37.1998357,15.1096953 38.9041395,14.6385042 40.2720675,14.5637119 C39.9805419,12.3124654 40.9074439,10.1285319 42.2529469,8.91689751 C42.3351721,8.84210526 42.4099223,8.77479224 42.4921475,8.70747922 L42.4921475,9.29085873 C41.2288696,10.465097 40.3767177,12.5817175 40.7504686,14.7357341 Z" id="Shape" fill="#402A13" fill-rule="nonzero"></path>
                            <g id="Path-10" transform="translate(29.173329, 0.000000)">
                                <path d="M4.26799438,10.242812 L4.26799438,14.9650447 L4.00554287,16.0716769 C4.88729143,16.0582349 5.43381257,15.583989 5.64510628,14.648939 C5.96204684,13.246364 5.30182537,12.279284 5.3027627,11.150367 C5.30370003,10.0214499 6.58644248,9.06737001 6.58644248,8.00901078 C6.58644248,7.10126437 5.81362645,7.8458648 4.26799438,10.242812 Z" id="Path-4" fill="#402A13" fill-rule="nonzero"></path>
                                <g id="Mask" fill="#7F501F" fill-rule="nonzero">
                                    <path d="M0.109506257,9.62530662 C1.54937196,7.87407283 2.42123285,6.52696161 2.72508892,5.58397297 C3.25455622,3.94082114 4.12188643,0.0351359771 4.72355437,0.0351359771 C5.32522229,0.0351359771 7.89874528,2.10289335 7.51643953,5.21827648 C7.13413379,8.3336596 5.34457033,9.09836169 4.72355437,10.5063182 C4.10253839,11.9142746 5.32853752,12.4151426 4.99381687,14.4042715 C4.65909623,16.3934004 3.697088,16.6957602 3.27773167,16.1745047 C3.13071696,15.9917669 3.93351611,15.6122538 4.15079086,13.9774279 C4.3680656,12.3426021 3.91714924,11.0868461 3.49313124,10.6507561 C3.06911325,10.214666 2.49633254,9.61667568 0.805774912,10.0571216 C0.376868953,10.1688657 -0.123266055,9.90841549 0.109506257,9.62530662 Z" id="path-3"></path>
                                </g>
                                <g id="Path-11-Clipped">
                                    <mask id="mask-6" fill="white">
                                        <use xlink:href="#path-5"></use>
                                    </mask>
                                    <g id="path-3"></g>
                                </g>
                                <g id="Path-12-Clipped">
                                    <mask id="mask-8" fill="white">
                                        <use xlink:href="#path-7"></use>
                                    </mask>
                                    <g id="path-3"></g>
                                    <path d="M-0.367223741,8.61246632 C-0.367223741,8.61246632 -0.481406358,9.21668609 -0.709771594,10.4251257 C0.156724137,10.9143527 0.722211795,10.9622974 0.98669137,10.5689599 C1.38341074,9.9789536 2.73367659,7.91316598 3.48953399,7.41223523 C4.74128553,8.35049141 5.69818494,8.63578284 6.36023222,8.26810953 L9.13192519,5.44935651 L7.78111624,-1.39663053 L2.48448403,-1.98763131 C0.583345514,5.07910044 -0.367223741,8.61246632 -0.367223741,8.61246632 Z" id="Path-12" fill="#683907" fill-rule="nonzero" mask="url(#mask-8)"></path>
                                </g>
                                <g id="Path-13-Clipped">
                                    <mask id="mask-10" fill="white">
                                        <use xlink:href="#path-9"></use>
                                    </mask>
                                    <g id="path-3"></g>
                                    <path d="M4.87787493,0.184697297 C5.8169138,1.454229 6.39893646,2.76189608 6.62394291,4.10769855 C6.84894937,5.45350102 6.35361093,7.45129926 5.1379276,10.1010933 L7.23811494,8.91709222 L9.33091982,-2.76517852 L4.87787493,0.184697297 Z" id="Path-13" fill="#402A13" fill-rule="nonzero" mask="url(#mask-10)"></path>
                                </g>
                            </g>
                        </g>
                        <g id="Group" transform="translate(34.736842, 58.859649)" fill-rule="nonzero">
                            <path d="M15.8908333,9.46189271 L20.7958333,15.9840688 C20.7958333,15.9840688 21.8158333,17.4283198 23.4808333,17.1978543 C25.1608333,16.9597065 31.1608333,16.0993016 33.3058333,16.0762551 C36.0583333,16.0455263 36.6958333,19.0876721 36.5983333,19.2182692 C36.5983333,19.2182692 22.8883333,18.3655466 19.4008333,18.6958806 C15.6133333,19.0569433 14.5708333,19.5946964 13.7608333,19.8328441 C13.7608333,19.8328441 13.1083333,17.8738866 14.2108333,17.3745445 C14.9608333,16.9904352 16.1533333,17.4206377 16.9633333,17.4052733 C17.8408333,17.3899089 18.5158333,17.2746761 17.6908333,16.0301619 L13.6783333,9.968917 L15.8908333,9.46189271 Z" id="Shape" fill="#1D1D1B"></path>
                            <path d="M19.3033333,5.02158907 C19.3033333,5.02158907 13.1983333,5.843583 15.8908333,9.46189271 L13.6783333,9.968917 C12.9958333,9.00864372 10.4233333,5.92808704 4.86583333,6.53497976 L0.0958333333,4.11509109 L13.7683333,0.0358502024 L19.3033333,5.02158907 Z" id="Shape" fill="#9C7D03"></path>
                            <path d="M34.0633333,19.0723077 C33.5533333,17.9891194 32.5633333,16.69083 29.9983333,16.8444737 C27.2158333,17.021164 23.4358333,17.4283198 23.4358333,17.4283198 L23.3308333,17.5512348 C23.9833333,17.4974595 26.2108333,18.6574696 29.2633333,18.4730972 C30.5233333,18.3962753 31.7683333,18.6344231 32.8408333,19.003168 C33.2758333,19.0262146 33.6808333,19.0492611 34.0633333,19.0723077 Z" id="Shape" fill="#3C3C38"></path>
                            <path d="M24.2533333,18.5729656 L34.2433333,20.9083502 C34.5958333,20.9928543 33.5983333,16.8444737 30.1558333,17.0518927 C26.7133333,17.2669939 23.2558333,17.5512348 23.2558333,17.5512348 L24.2533333,18.5729656 Z" id="Shape" fill="#1D1D1B"></path>
                            <path d="M31.6483333,20.3014575 C31.1458333,19.0876721 29.9908333,17.8508401 27.6133333,17.7279251 L22.7458333,17.6741498 L22.5433333,17.9353441 L27.3883333,19.1184008 C27.4783333,19.126083 27.5608333,19.126083 27.6433333,19.1337652 C28.3258333,19.1721761 29.0158333,19.3104555 29.6758333,19.5101923 L30.6358333,20.0709919 L31.6483333,20.3014575 Z" id="Shape" fill="#3C3C38"></path>
                            <path d="M19.4008333,18.6958806 C22.7758333,19.0262146 27.0283333,20.6317915 31.6033333,22.1682287 C31.7083333,20.6317915 30.6058333,18.1197166 27.4033333,17.9507085 C24.2983333,17.7740182 20.0008333,17.7509717 20.0008333,17.7509717 L19.4008333,18.6958806 Z" id="Shape" fill="#1D1D1B"></path>
                        </g>
                        <g id="Group" transform="translate(0.000000, 37.631579)" fill-rule="nonzero">
                            <path d="M10.3488065,1.97467305 C11.4408154,6.33371611 13.8220015,10.7524721 16.7416086,14.8875917 C10.8720608,12.0213716 5.59401779,8.44606061 1.49140104,4.22883573 C0.156723499,2.86290271 -0.533365456,2.56433812 0.710311342,5.13199362 C5.09351371,14.2755343 14.9215938,21.7023285 27.5631134,25.0163955 C28.0257005,23.1055821 28.7461231,21.2918022 29.7016308,19.6049123 C29.6940474,19.6049123 29.686464,19.6049123 29.686464,19.6049123 C29.7395478,19.522807 29.800215,19.4332376 29.8532987,19.3362041 C21.776983,14.7233812 15.3614307,8.50577352 11.4408154,1.78807018 C9.96963677,-0.727336523 9.7573017,-0.376523126 10.3488065,1.97467305 Z" id="Shape" fill="#4C361E"></path>
                            <path d="M9.10956188,11.2998405 C11.6290141,17.2798405 20.5560563,22.6502711 27.5631134,25.0163955 L29.8532987,19.3362041 C24.7420904,17.7762041 17.8465993,13.1664712 14.4476293,9.58165238 C15.2211356,11.6492122 16.7506308,14.0435726 18.1080586,16.021563 C15.3856197,15.0512281 11.3997472,12.7254864 9.10956188,11.2998405 Z" id="Shape" fill="#FFD700"></path>
                        </g>
                        <g id="Path-2" transform="translate(23.157895, 19.298246)">
                            <g id="Mask" fill="#FFD700" fill-rule="nonzero">
                                <path d="M2.86483815,30.2095091 C-0.487022486,34.0589248 -1.56386459,40.7242556 3.69142822,42.5740721 C9.16663949,44.4912908 19.2449716,46.7679881 32.303578,44.1617689 C52.4450754,40.140103 64.7377588,22.5705907 57.8444527,3.03892484 C47.073983,-0.246572405 37.7630542,-0.847393104 29.9116662,1.23646274 C26.5924077,2.11743518 24.0825424,4.81227985 22.3820708,9.32099677 L2.86483815,30.2095091 Z" id="path-5"></path>
                            </g>
                            <g id="Clipped">
                                <mask id="mask-12" fill="white">
                                    <use xlink:href="#path-11"></use>
                                </mask>
                                <g id="path-5"></g>
                                <path d="M20.7007247,45.748479 C20.0499053,44.4538603 21.3391354,42.8416871 24.5684149,40.9119592 C28.5597796,38.5268305 41.6755739,36.4775715 48.0815993,30.8338212 C48.0815993,31.768135 45.9764714,33.6424772 46.1573829,33.970652 C46.3382944,34.2988266 49.3088157,33.0518057 50.9361729,31.6869107 C55.3317826,28.0002301 58.8472383,21.1430969 60.0556532,17.3335463 C61.5185219,12.7218253 62.9160404,15.3698859 64.2482085,25.2777284 L41.1507161,45.748479 L20.7007247,45.748479 Z" id="Shape" fill="#D5AA02" fill-rule="nonzero" mask="url(#mask-12)"></path>
                            </g>
                        </g>
                        <g id="Group" transform="translate(25.087719, 59.824561)" fill-rule="nonzero">
                            <path d="M10.301455,9.57025172 L13.0581708,16.5176201 C13.0581708,16.5176201 13.7325287,18.0505721 11.8947181,17.9826087 C10.0569076,17.9221968 3.35779181,17.2652174 1.52739181,18.2016018 C-0.206671345,19.0926773 -0.0362292398,21.3732265 0.193497076,21.4940503 C0.193497076,21.4940503 13.7769918,19.0020595 17.4303813,19.0549199 C21.0911813,19.1153318 23.0846129,19.6816934 23.0846129,19.6816934 C23.0846129,19.6816934 22.7881918,17.4389016 21.6469708,17.1368421 C20.5057497,16.8347826 19.045876,17.4691076 18.2677708,17.5370709 C17.4155602,17.6050343 16.652276,17.5597254 16.0223813,16.2457666 L12.9470129,9.84965675 L10.301455,9.57025172 Z" id="Shape" fill="#1D1D1B"></path>
                            <path d="M2.88351813,3.2194508 C2.88351813,3.2194508 8.1968655,4.77505721 10.301455,9.57025172 L12.9470129,9.84965675 C12.5023813,8.83020595 11.4352655,5.52265446 17.3488655,5.5604119 L19.0977497,2.68329519 L1.64596023,0.0327231121 L2.88351813,3.2194508 Z" id="Shape" fill="#FFD700"></path>
                            <path d="M2.32031813,21.116476 C2.54263392,19.8704805 3.31332865,18.4130435 5.31417076,18.3299771 C8.9008655,18.1789474 12.3541708,18.1940503 12.3541708,18.1940503 L12.3764023,18.3148741 C11.7020444,18.3299771 9.3232655,19.893135 6.24048655,20.0139588 C4.9584655,20.0668192 4.06179181,20.4368421 3.46894971,20.9125858 C3.05396023,20.9881007 2.66861287,21.0485126 2.32031813,21.116476 Z" id="Shape" fill="#3C3C38"></path>
                            <path d="M12.7246971,19.4324943 L2.65379181,23.1025172 C2.40924444,23.193135 2.0016655,18.6622426 5.46979181,18.5187643 C8.93791813,18.3828375 12.5097918,18.3148741 12.5097918,18.3148741 L12.7246971,19.4324943 Z" id="Shape" fill="#1D1D1B"></path>
                            <path d="M6.95189708,21.5393593 C6.98153918,20.3688787 7.44840234,19.1455378 8.86381287,18.9114416 C10.175476,18.6924485 13.0952234,18.420595 14.0067181,18.3375286 L12.7246971,19.4324943 L10.3903813,20.2858124 C10.3236865,20.2933638 10.2495813,20.3084668 10.175476,20.3235698 C9.58263392,20.4292906 9.08612865,20.6331808 8.69337076,20.9050343 L6.95189708,21.5393593 Z" id="Shape" fill="#3C3C38"></path>
                            <path d="M17.4303813,19.0549199 C14.6736655,19.289016 10.4496655,22.0981693 7.89303392,24.0842105 C7.21867602,23.9407323 6.24789708,19.6212815 9.06389708,19.1304348 C11.7835602,18.6395881 15.792655,18.1789474 15.792655,18.1789474 L17.4303813,19.0549199 Z" id="Shape" fill="#1D1D1B"></path>
                        </g>
                        <g id="Group-2" transform="translate(37.631579, 0.000000)">
                            <path d="M11.1802972,10.2721503 C5.20733043,10.9934618 0.723844005,8.48785351 0.00167169516,4.46369476 C1.87480612,5.89872495 4.64313331,6.65040744 7.91547659,6.40743936 C6.46360934,5.5722366 5.35778299,4.456102 4.68074645,3.13496309 C6.76451447,4.38017448 8.59251313,5.26093376 13.3167237,3.59812099 L11.1802972,10.2721503 Z" id="Shape" fill="#1D1D1B" fill-rule="nonzero"></path>
                            <g id="Group" transform="translate(4.388200, 0.000000)">
                                <g id="Path-6" transform="translate(0.104481, 11.810948)">
                                    <g id="Mask" fill="#724B22" fill-rule="nonzero">
                                        <path d="M38.3003417,10.8131249 L38.7694436,11.684618 C39.4645483,15.5690419 39.1938257,18.730049 37.9572757,21.1676392 C36.5602771,23.9215191 23.3860444,20.1776839 19.6669827,19.454297 C18.1354755,19.1564069 13.8593326,12.8450734 17.3998391,16.2245617 C19.352156,18.0880895 30.8084077,22.5555172 29.6842331,23.2627078 C29.1401826,23.6049566 25.457301,21.8239226 20.1121102,21.1676392 C14.7669192,20.5113559 9.3022757,21.383839 6.06620575,20.4668717 C2.75103151,19.5274894 1.66679634,16.8285445 1.2046142,14.9024498 C0.820032762,13.2997477 0.142149331,10.6864451 0.0225678847,8.40011504 L14.7669192,0.0632729364 L38.3003417,10.8131249 Z" id="path-7"></path>
                                    </g>
                                    <g id="Clipped">
                                        <mask id="mask-14" fill="white">
                                            <use xlink:href="#path-13"></use>
                                        </mask>
                                        <g id="path-7"></g>
                                        <path d="M-0.945624416,8.77001329 L1.27677815,8.15101123 C1.908436,12.5950729 4.84969338,17.1569365 10.1005503,21.836602 C15.3514073,26.5162675 10.6182701,25.6986946 -4.0988611,19.3838833 L-0.945624416,8.77001329 Z" id="Shape" fill="#4C361E" fill-rule="nonzero" mask="url(#mask-14)"></path>
                                    </g>
                                </g>
                                <path d="M0.0894356911,18.7380692 C0.104480948,11.9045921 2.82767237,3.98535136 14.7435155,2.23142556 C25.3428986,0.674911322 31.3910917,4.63073531 34.7612292,11.570511 L34.339962,16.7639536 L20.6863918,18.4267664 L11.0273371,15.5415205 L0.0894356911,18.7380692 Z" id="Shape" fill="#FFD700" fill-rule="nonzero"></path>
                                <path d="M25.2225366,6.02020899 C18.9260968,0.553427284 7.2885909,2.98310804 3.15114538,8.26766369 C7.26602302,1.95049372 27.1558521,-5.36132681 25.2225366,6.02020899 Z" id="Shape" fill="#1D1D1B" fill-rule="nonzero"></path>
                                <path d="M29.8790435,8.27525645 C31.2105487,7.86524782 32.842959,9.34583453 33.5049503,11.570511 C34.1744642,13.7875947 33.6253123,15.9363436 32.2938071,16.3387595 C30.9547793,16.7487681 29.322369,15.2681814 28.6603777,13.0435049 C27.9908638,10.8264212 28.5400156,8.67767232 29.8790435,8.27525645 Z" id="Shape" fill="#FFFFFF" fill-rule="nonzero"></path>
                                <path d="M19.5655202,18.0623143 C11.7194189,16.1109769 4.08395128,25.7765507 11.8548262,29.1553255 C19.0389362,32.2759467 26.1177294,31.62297 34.8815912,38.5247819 C39.2071025,33.9995015 39.4102134,26.96102 38.4247491,22.7242642 C38.2366834,21.904247 37.3715812,18.4571374 35.9272366,14.3874221 L24.2972533,19.2391909 L19.5655202,18.0623143 Z" id="Shape" fill="#FFE37E" fill-rule="nonzero"></path>
                                <path d="M18.3694223,6.40743936 C22.0028517,6.56688716 24.9141088,9.36861279 24.9141088,12.7777586 C24.9141088,16.1869044 22.0028517,18.98863 18.3694223,19.1480778 L18.3694223,18.5558432 C21.2129758,18.5558432 23.5374679,16.3995015 23.5374679,13.7572237 C23.5374679,11.1149458 21.2129758,8.96619691 18.3694223,8.96619691 L18.3694223,6.40743936 Z M0.187229858,16.6576551 C4.12156442,11.5553255 11.3959459,6.39984661 18.0459493,6.39984661 C18.1587887,6.39984661 18.2641055,6.40743936 18.3694223,6.40743936 L18.3694223,8.96619691 C15.5333914,8.96619691 13.2164219,11.1149458 13.2164219,13.7572237 C13.2164219,16.3995015 15.5333914,18.5558432 18.3694223,18.5558432 L18.3694223,19.1480778 C18.2641055,19.1480778 18.1587887,19.1556706 18.0459493,19.1556706 C15.1723053,18.0167577 3.78304615,18.3280606 0.194752486,21.1829355 C0.0743904347,19.7479053 0.0442999218,18.2141693 0.187229858,16.6576551 Z" id="Shape" fill="#1D1D1B" fill-rule="nonzero"></path>
                                <path d="M31.082664,6.32391909 C33.2190904,8.41951874 34.7913197,11.1680951 35.9272366,14.3874221 C36.0325534,14.6911322 36.1378702,14.9872495 36.2431869,15.2833669 C35.5661504,15.9743074 33.5952218,16.5209855 32.8053458,16.6424696 C32.2336261,16.7259898 31.6468611,16.6272841 31.082664,16.384316 L31.082664,16.2476464 C31.4888859,16.414687 31.9026305,16.4602435 32.2938071,16.3387595 C33.6253123,15.9363436 34.1744642,13.7875947 33.5049503,11.570511 C33.0385473,9.99121848 32.0756509,8.79156361 31.082664,8.36636948 L31.082664,6.32391909 Z M30.1649033,5.83798294 C30.2852654,5.82279743 30.4131501,5.81520468 30.5335121,5.80761193 C30.7215778,5.97465248 30.9021209,6.14928578 31.082664,6.32391909 L31.082664,8.36636948 C30.6764421,8.19932892 30.2626975,8.15377241 29.8790435,8.27525645 C28.5400156,8.67767232 27.9908638,10.8264212 28.6603777,13.0435049 C29.1343033,14.6227974 30.0896771,15.8224523 31.082664,16.2476464 L31.082664,16.384316 C29.5555705,15.7313393 28.1789295,13.9850062 27.6448229,11.8134791 C27.5319835,11.3275429 27.4567572,10.8491995 27.4341893,10.3860416 L27.4341893,9.69510114 C27.5395061,7.6602435 28.5776288,6.08095101 30.1649033,5.83798294 Z" id="Shape" fill="#1D1D1B" fill-rule="nonzero"></path>
                            </g>
                            <g id="Group" transform="translate(18.990949, 12.549132)" fill-rule="nonzero">
                                <path d="M29.5091072,2.2710766 C25.5221142,1.86866072 20.2788423,4.38186176 17.2020874,6.14338031 C17.4954699,7.7074873 19.0752218,9.53734062 21.5877796,8.6793596 C21.5877796,8.6793596 17.6985808,12.3086952 15.9458085,11.6860895 C14.1930361,11.0710766 10.8454665,7.19118014 10.875557,7.13043812 L13.3505017,1.54976512 L26.0486982,0.0691784105 L29.5091072,2.2710766 Z" id="Shape" fill="#1D1D1B"></path>
                                <g transform="translate(10.059417, 8.682314) rotate(5.000000) translate(-10.059417, -8.682314) translate(1.375207, 3.375297)">
                                    <path d="M0.834175886,3.67236123 C0.834175886,3.67236123 6.65669013,2.28288755 12.3061839,3.80143802 C17.9556777,5.32758125 16.2856543,7.84837504 16.2856543,7.84837504 C16.2856543,7.84837504 12.3287518,8.65320679 8.40946251,7.37762439 C4.48265058,6.10963474 0.834175886,3.67236123 0.834175886,3.67236123 Z" id="Shape" fill="#DF3839"></path>
                                    <path d="M8.56234945,7.71141961 C12.5438726,7.71141961 17.0781214,6.52883003 16.9082209,5.07388109 C16.630697,2.69729647 14.4637956,2.57958079 12.1955634,2.70234355 C11.7232034,2.72790894 15.9554094,3.29045888 15.3740295,4.17029986 C15.0272409,4.03121044 12.8953685,4.19475086 12.176022,4.20326584 C10.9502954,4.21777488 11.2762812,4.10637543 10.4547947,4.1328374 C9.29132707,4.17031537 10.744561,2.73081522 10.5113481,2.73081522 C10.2781354,2.73081522 1.29489382,4.84563146 1.29489382,6.30165971 C1.29489382,7.75768795 4.58082631,7.71141961 8.56234945,7.71141961 Z" id="Oval-3" fill="#AD2323" transform="translate(9.103874, 5.190846) rotate(21.000000) translate(-9.103874, -5.190846) "></path>
                                    <path d="M0.0217320371,3.93810756 C2.64712929,3.5660627 6.47614706,3.30790912 9.75601296,4.18866839 C12.2986613,4.87201611 13.3743971,5.9577797 13.7956643,6.95243026 C13.0810146,6.03370722 11.7720773,5.13016969 9.45510783,4.50756399 C6.37835289,3.67995398 2.90289865,3.68754674 0.0217320371,3.93810756 Z" id="Shape" fill="#640B07"></path>
                                </g>
                            </g>
                            <g id="Group" transform="translate(32.807018, 9.069121)" fill-rule="nonzero">
                                <path d="M1.2420695,0.0489310708 C2.22001117,-0.171258748 3.34840541,1.0967309 3.7471047,2.87343495 C4.13828137,4.65013901 3.66435579,6.28258077 2.6788915,6.50277059 C1.6934272,6.73055316 0.572555593,5.46256351 0.173856297,3.68585946 C-0.224842999,1.9091554 0.256605207,0.276713642 1.2420695,0.0489310708 Z" id="Shape" fill="#714B21"></path>
                                <path d="M1.41508995,1.67378008 C1.96424181,1.55229604 2.58109733,2.25082926 2.80677618,3.23788707 C3.02493239,4.21735212 2.76164041,5.12088966 2.21248855,5.24996645 C1.67085931,5.37145048 1.04648117,4.67291727 0.828324953,3.68585946 C0.610168734,2.69880165 0.873460722,1.79526412 1.41508995,1.67378008 Z" id="Shape" fill="#1D1D1B"></path>
                                <path d="M2.08460387,0.876541079 C2.37046374,0.81579906 2.70145938,1.18025117 2.82182143,1.70415109 C2.93466086,2.22045825 2.79173092,2.69880165 2.50587105,2.76713642 C2.22001117,2.83547119 1.88901553,2.46342633 1.77617611,1.93952641 C1.65581406,1.42321925 1.79874399,0.944875851 2.08460387,0.876541079 Z" id="Shape" fill="#FFFFFF"></path>
                            </g>
                            <g id="Group" transform="translate(17.552799, 8.963666)">
                                <g id="Mask" fill="#FFFFFF" fill-rule="nonzero">
                                    <path d="M5.20482289,0.00253091746 C8.04837635,0.00253091746 10.3728685,2.15127984 10.3728685,4.79355766 C10.3728685,7.43583549 8.04837635,9.59217716 5.20482289,9.59217716 C2.36879204,9.59217716 0.05182255,7.43583549 0.05182255,4.79355766 C0.05182255,2.15127984 2.36879204,0.00253091746 5.20482289,0.00253091746 Z" id="path-9"></path>
                                </g>
                                <g id="Shape-Clipped">
                                    <mask id="mask-16" fill="white">
                                        <use xlink:href="#path-15"></use>
                                    </mask>
                                    <g id="path-9"></g>
                                    <g id="Shape" mask="url(#mask-16)">
                                        <g transform="translate(-0.313443, 1.265459)" id="Group">
                                            <g>
                                                <path d="M3.77552352,0.0430255968 C5.82920103,0.0430255968 7.50674712,1.73620938 7.50674712,3.80903077 C7.50674712,5.88185217 5.82920103,7.57503595 3.77552352,7.57503595 C1.72936864,7.57503595 0.05182255,5.88185217 0.05182255,3.80903077 C0.05182255,1.73620938 1.72936864,0.0430255968 3.77552352,0.0430255968 Z" id="Shape" fill="#714B21" fill-rule="nonzero"></path>
                                                <path d="M3.77552352,1.72861662 C4.91144038,1.72861662 5.83682814,2.66252517 5.83682814,3.80903077 C5.83682814,4.96312913 4.91154487,5.89703768 3.77552352,5.89703768 C2.63960666,5.89703768 1.71432339,4.96312913 1.71432339,3.80903077 C1.71432339,2.66252517 2.63960666,1.72861662 3.77552352,1.72861662 Z" id="Shape" fill="#1D1D1B" fill-rule="nonzero"></path>
                                                <path d="M4.9223064,0.623871153 C5.55293899,0.623871153 6.06532797,1.12499281 6.06532797,1.732413 C6.06532797,2.33983319 5.55293899,2.83336209 4.9223064,2.83336209 C4.29167381,2.83336209 3.77928484,2.33983319 3.77928484,1.732413 C3.77928484,1.12499281 4.29167381,0.623871153 4.9223064,0.623871153 Z" id="Shape" fill="#FFFFFF" fill-rule="nonzero" transform="translate(4.922306, 1.728617) rotate(-14.000000) translate(-4.922306, -1.728617) "></path>
                                            </g>
                                        </g>
                                    </g>
                                </g>
                            </g>
                            <g id="Group" transform="translate(16.716952, 18.349152)" fill-rule="nonzero">
                                <path d="M5.96544418,1.09504362 C12.1039088,4.36751989 17.74588,6.68330937 25.373825,1.8467261 C25.373825,1.8467261 23.7790278,6.03033266 20.4013678,7.08572524 C16.5272142,8.29297287 9.40328528,5.74940082 6.5296413,3.00841722 C5.92783104,3.55509539 5.07025142,4.01066053 4.08478713,4.2384431 C2.06872276,4.69400824 0.0752262823,3.83602723 0.0752262823,2.51488831 L2.15147167,0.0472437925 L5.96544418,1.09504362 Z" id="Shape" fill="#3C3C38"></path>
                                <path d="M6.56725444,1.40634647 C10.6014021,3.5278076 14.4565037,5.1425577 18.8472586,4.45929586 C20.8837754,4.14238583 18.0985693,5.74610254 14.7632816,5.1790415 C11.4203877,4.61068728 8.48394386,2.8544132 6.56725444,1.40634647 Z" id="Shape" fill="#818B91"></path>
                            </g>
                            <g id="Group" transform="translate(16.716952, 12.021858)" fill-rule="nonzero">
                                <g id="Shape">
                                    <path d="M4.77686892,7.49826479 C4.77686892,7.49826479 7.77087496,8.6447704 11.4795307,8.25754002 C16.3842843,7.74123286 20.7624539,4.77246669 25.6596849,3.46651328 C29.48118,2.45667721 31.4972444,2.75279455 31.8207174,2.79835107 C32.1441904,2.83631483 32.6482065,2.88187135 32.1366678,2.17574537 C31.6251291,1.46202665 29.3532953,-0.375419423 26.3893798,0.171258748 C22.9966745,0.793864443 21.1987663,1.32535711 18.656118,1.3101716 C16.7002347,1.2949861 15.6244988,0.300335538 14.3306068,1.09757454 C13.5332082,1.59110344 11.6224606,5.37229412 8.741294,5.85823028 C6.16855515,6.38213019 4.58880322,5.25081009 2.2116527,6.21508964 L2.19660744,6.22268239 C0.865102246,6.78454606 -0.00752262823,7.83234589 0.0752262823,8.84218196 L4.77686892,7.49826479 Z" fill="#3C3C38"></path>
                                    <path d="M14.7997846,4.24284423 C19.4206963,3.81008258 21.5772202,3.15005438 23.5027673,2.46420316 C25.0889207,1.89923896 27.7720038,1.66174481 27.7720038,1.42932473 C27.7720038,0.94694664 23.9414372,1.6683004 23.2803416,1.80958109 C21.2224815,2.24936007 20.1129791,2.69477866 17.3544584,2.7853229 C16.6172408,2.80810115 15.8716583,2.7802233 15.2848933,2.68151752 C14.3347059,3.64056232 14.2425871,4.29502738 14.7997846,4.24284423 Z" fill="#818B91"></path>
                                </g>
                                <path d="M7.01861214,8.06772122 C5.544177,7.63493433 3.84406302,7.48307928 2.18156219,8.76625443 C2.77696532,7.73350499 3.88951674,7.35060698 4.97043248,7.39875476 C5.28962728,7.41297281 6.84558573,6.87109414 7.14513147,6.95485413 C7.37926468,7.02032325 6.67116571,7.24471748 6.53475669,7.5108986 C6.42864827,7.71795279 6.88162049,7.9694146 7.01861214,8.06772122 Z" id="Shape" fill="#1D1D1B"></path>
                            </g>
                        </g>
                        <g id="Group" transform="translate(22.192982, 28.947368)">
                            <g id="Group-3" transform="translate(0.031723, 0.035282)">
                                <path d="M8.53783671,13.7528811 C2.34937271,21.574118 -0.31722088,28.327694 2.11396141,29.3705255 C3.56170216,29.9898136 6.52480496,32.0595422 12.6336615,31.8266138 C17.3014801,31.6486316 22.5621898,30.9622056 27.2423873,29.3705255 C35.386198,26.0333 40.5031618,22.8213064 42.5932787,19.7345446 C44.6833955,16.6477828 33.3315815,14.6538949 8.53783671,13.7528811 Z" id="Shape" fill="#4C361E" fill-rule="nonzero"></path>
                                <path d="M8.56858512,13.0375249 C3.18855549,19.837029 -0.970848101,27.9616101 1.14273497,28.8682107 C3.36306464,29.8179826 15.4467819,30.8181213 24.8404845,27.6234337 L23.2108194,15.9527506 L8.56858512,13.0375249 Z" id="Shape" fill="#4C361E" fill-rule="nonzero" transform="translate(12.711051, 21.419444) rotate(3.000000) translate(-12.711051, -21.419444) "></path>
                                <path d="M3.04221575,31.9945288 C4.29264283,33.635616 17.5754815,30.8041029 26.0689485,23.4574745 L18.1653056,14.9034142 C10.3009843,21.5102779 1.79178866,30.3449386 3.04221575,31.9945288 Z" id="Shape" fill="#4C361E" fill-rule="nonzero"></path>
                                <path d="M14.429753,29.9452956 C18.2360845,28.4827725 22.3569889,26.3144967 25.7386471,23.4319654 L18.149577,15.2180268 C17.2923659,15.9407853 16.4351549,16.68055 15.5936726,17.4203146 C15.2083208,17.7689394 14.8151047,18.1175641 14.429753,18.4661889 L14.429753,17.8539699 C14.7285972,17.5903755 15.0195771,17.3267812 15.3184213,17.0546838 C16.2385469,16.2468948 17.1429438,15.4561119 18.0316122,14.7163473 L18.1810343,14.5888017 L18.322592,14.7333534 L26.2262349,23.2874137 L26.39925,23.4744806 L26.202642,23.6360385 C22.703019,26.6716244 18.3855066,28.9334336 14.429753,30.4384721 L14.429753,29.9452956 Z M4.24545691,32.1815957 C4.83528101,32.2326139 5.61384882,32.2071048 6.52611009,32.0880623 C8.61801955,31.8159649 11.4255823,31.1017094 14.429753,29.9452956 L14.429753,30.4384721 C11.4413109,31.5778798 8.65734115,32.2836323 6.58116033,32.5557296 C5.62957746,32.6747722 4.82741669,32.7087843 4.21399962,32.6577661 C3.7971906,32.6152509 3.45902478,32.5387236 3.20736649,32.4111779 L3.20736649,31.841474 C3.34892428,32.0200379 3.70281874,32.1305774 4.24545691,32.1815957 Z M14.429753,18.4661889 L14.429753,17.8539699 C11.2604315,20.719495 8.24839645,23.7125659 6.07784377,26.2124602 C4.77236643,27.7174986 3.7657333,29.0524762 3.20736649,30.1068535 L3.20736649,31.0591942 C3.53766799,30.0898474 4.70945187,28.4742694 6.39241662,26.5355758 C8.49219041,24.1207119 11.3783963,21.2381806 14.429753,18.4661889 Z M3.20736649,32.4111779 C3.06580871,32.3346505 2.95570821,32.2496201 2.87706501,32.1475836 L2.87706501,32.1390805 C2.86920067,32.1390805 2.86920067,32.1305774 2.86133635,32.1220744 C2.78269315,32.0115349 2.73550721,31.8839893 2.71977857,31.7309345 L2.71977857,31.4928493 C2.75123586,31.1187155 2.92425093,30.6510481 3.20736649,30.1068535 L3.20736649,31.0591942 C3.08940167,31.4078189 3.08940167,31.6714132 3.20736649,31.832971 C3.20736649,31.832971 3.20736649,31.832971 3.20736649,31.841474 L3.20736649,32.4111779 Z" id="Shape" fill="#4C361E" fill-rule="nonzero"></path>
                                <path d="M0.363640466,30.1837846 C1.60675903,31.6963568 12.2253976,25.8565806 20.0289741,19.7984951 L15.128681,13.8417674 C7.32510442,19.8920562 -0.879478097,28.6712124 0.363640466,30.1837846 Z" id="Shape" fill="#4C361E" fill-rule="nonzero"></path>
                                <path d="M10.0760055,17.78693 C11.6720094,16.3523254 13.3401942,14.9489079 14.9923389,13.6780353 L15.1687816,13.5376936 L15.3051236,13.7092224 L20.2054167,19.6659501 L20.3417588,19.8296821 L20.1653161,19.962227 C16.9973689,22.4260045 13.3642546,24.850798 10.0760055,26.768802 L10.0760055,26.2620124 C13.2279126,24.4141793 16.676564,22.1063371 19.7161894,19.7595112 L15.0966004,14.1380444 C13.4043552,15.4634943 11.6960697,16.9058956 10.0760055,18.3716872 L10.0760055,17.78693 Z M0.187197831,30.3163296 C0.0989765138,30.2071749 0.0508557952,30.0590363 0.0348155557,29.8953043 L0.0348155557,29.7549626 C0.0989765138,28.5698545 1.72706082,26.2620124 4.18923759,23.5721288 C5.84940239,21.7554828 7.89453292,19.7439177 10.0760055,17.78693 L10.0760055,18.3716872 C8.02285484,20.2351138 6.09802609,22.1375242 4.5180625,23.8606091 C1.72706082,26.9169405 -0.00528504309,29.3885146 0.5400831,30.0512396 C1.07743112,30.7061678 3.94061388,29.6146209 7.62986896,27.6420396 C8.4158407,27.2210143 9.23389292,26.7532085 10.0760055,26.2620124 L10.0760055,26.768802 C9.306074,27.2132176 8.56020286,27.6342428 7.83839208,28.0162842 C3.95665412,30.0980202 0.892968369,31.1739736 0.187197831,30.3163296 Z" id="Shape" fill="#4C361E" fill-rule="nonzero"></path>
                                <g id="Path-3" transform="translate(6.070460, 0.000000)">
                                    <g id="Mask" fill="#724B22" fill-rule="nonzero">
                                        <path d="M15.9821307,0.12984741 C11.2085122,4.32019753 8.46665173,5.03464844 2.36283403,13.7193965 C1.82757996,15.0108936 -1.11702887,20.8374847 0.580164764,22.5917755 C1.17421415,23.2058098 7.46846552,20.4305746 8.34841478,21.2458896 C9.27125815,22.1009478 12.3958366,20.6643375 13.8562734,21.2458896 C15.6429526,21.9573527 18.2804144,17.0769817 21.1719273,18.1585587 C23.0996025,18.8796101 23.0996025,22.6169285 21.1719273,29.3705141 C31.567892,25.5467982 41.8819986,18.1062776 38.3866624,10.9554324 C36.8510608,7.80825915 32.2532254,3.64669721 27.8711107,1.90089866 C21.8815429,-0.485296127 15.9821307,0.12984741 15.9821307,0.12984741 Z" id="path-11"></path>
                                    </g>
                                    <g id="Clipped">
                                        <mask id="mask-18" fill="white">
                                            <use xlink:href="#path-17"></use>
                                        </mask>
                                        <g id="path-11"></g>
                                        <path d="M-0.529943117,17.3387838 C-0.131564716,16.9512422 5.23251918,11.4158649 10.6450117,6.66280625 C14.4885051,3.28758685 17.6033244,0.692265898 18.4409162,-0.0530634028 C18.9993106,-0.549949603 17.6818403,-0.903907337 14.4885051,-1.1149366 L-7.09103061,18.5350718 C-3.14591846,18.1548241 -0.958889296,17.7560615 -0.529943117,17.3387838 Z" id="Shape" fill="#4C361E" fill-rule="nonzero" mask="url(#mask-18)"></path>
                                    </g>
                                </g>
                                <path d="M8.33325883,23.511799 L35.4477996,7.5562123 C34.6152066,9.93038657 36.819442,13.0546773 34.9357954,16.7058291 C32.8714173,20.7073003 30.2603049,24.6521118 27.2876213,26.7351299 C26.2037682,27.4932682 24.7177309,27.9205826 24.9835816,26.1079426 C21.6297723,29.6160558 17.1103098,32.503874 17.9419453,29.8434973 C16.8376423,30.9255676 12.9805476,33.6107048 11.1661599,31.7526278 C9.95656817,30.5139097 9.01226779,27.7669668 8.33325883,23.511799 Z" id="Shape" fill="#724B22" fill-rule="nonzero" transform="translate(22.027512, 19.973398) rotate(41.000000) translate(-22.027512, -19.973398) "></path>
                            </g>
                            <g id="Path-5" transform="translate(1.456221, 0.000000)">
                                <g id="Clipped">
                                    <mask id="mask-20" fill="white">
                                        <use xlink:href="#path-19"></use>
                                    </mask>
                                    <g id="path-13"></g>
                                    <path d="M42.3476254,7.29616696 C40.3155151,16.3997278 29.7569434,21.644902 21.277124,25.4119847 C18.2020428,26.7780616 2.33896436,29.6713435 1.92543237,29.8615585 C1.64974439,29.9883686 1.42163184,30.6520369 1.24109472,31.8525635 L1.24109472,32.6073355 C1.47597442,33.1966065 1.62609541,33.4962995 1.69145771,33.5064141 C6.2584418,34.2131477 11.9606128,33.1881996 14.5701668,32.8758744 C17.6499644,32.5072678 28.1236031,30.3808586 45.991083,26.4966469 L45.991083,8.12168201 C44.9168514,1.5022981 43.7023655,1.22712641 42.3476254,7.29616696 Z" id="Shape" fill-opacity="0.7" fill="#683907" fill-rule="nonzero" style="mix-blend-mode: darken;" mask="url(#mask-20)"></path>
                                </g>
                            </g>
                        </g>
                    </g>
                </g>
            </g>
        </g>
    </g>
</svg>