<?xml version="1.0" encoding="UTF-8"?>
<svg width="86px" height="84px" viewBox="0 0 86 84" version="1.1" xmlns="http://www.w3.org/2000/svg" xmlns:xlink="http://www.w3.org/1999/xlink">
    <!-- Generator: Sketch 51.3 (57544) - http://www.bohemiancoding.com/sketch -->
    <title>Bem-te-vi</title>
    <desc>Created with Sketch.</desc>
    <defs>
        <path d="M2.84083012,30.1603103 C-0.48294112,34.0034569 -1.55075903,40.6579326 3.66049316,42.5047365 C9.08982083,44.4188329 19.0836941,46.6918223 32.0328662,44.0898476 C52.005573,40.0747313 64.1952408,22.5338325 57.3597022,3.03397568 C46.6794916,-0.24617084 37.4465907,-0.84601305 29.6609992,1.23444905 C26.3695569,2.11398675 23.8807249,4.80444263 22.1945036,9.30581671 L2.84083012,30.1603103 Z" id="path-1"></path>
        <path d="M38.0150495,10.6949683 L38.4806572,11.5569385 C39.1705842,15.3989167 38.9018781,18.525383 37.6745389,20.9363374 C36.2879464,23.6601252 23.211846,19.9571994 19.5204869,19.2417171 C18.0003877,18.9470821 13.756097,12.7047134 17.2702309,16.0472736 C19.2080053,17.8904384 30.5789215,22.3090498 29.4631207,23.0085129 C28.9231228,23.3470219 25.2676743,21.5854494 19.9622988,20.9363374 C14.6569232,20.2872253 9.23298477,21.1501747 6.0210197,20.2432272 C2.73053958,19.3141097 1.65438068,16.6446566 1.19564125,14.7396086 C0.813924489,13.1544194 0.141090487,10.5696727 0.0223997807,8.30832577 L14.6569232,0.0625815439 L38.0150495,10.6949683 Z" id="path-3"></path>
        <path d="M1.5765466,0.105554204 C2.89813366,-0.2999742 4.51838446,1.16443393 5.17544469,3.36480101 C5.83997152,5.55765831 5.29491019,7.68292754 3.97332313,8.08094616 C2.64426948,8.48647456 1.02401868,7.02206644 0.366958444,4.82169935 C-0.297568383,2.62884205 0.247492947,0.503572823 1.5765466,0.105554204 Z" id="path-5"></path>
        <path d="M5.16605312,0.00250326176 C7.98842548,0.00250326176 10.2956029,2.12777249 10.2956029,4.74117777 C10.2956029,7.35458304 7.98842548,9.48736206 5.16605312,9.48736206 C2.35114735,9.48736206 0.0514365334,7.35458304 0.0514365334,4.74117777 C0.0514365334,2.12777249 2.35114735,0.00250326176 5.16605312,0.00250326176 Z" id="path-7"></path>
        <path d="M16.0094809,0.128289939 C11.2276933,4.26837838 8.48114069,4.97425972 2.36687754,13.5548375 C1.83070749,14.8308436 -1.11894044,20.5875469 0.581157599,22.3207956 C1.17622358,22.9274648 7.48124629,20.1855176 8.36270141,20.9910531 C9.28712403,21.8358552 12.4170496,20.4164765 13.8799856,20.9910531 C15.6697224,21.6939825 18.3116976,16.8721497 21.2081588,17.9407537 C23.1391328,18.6531563 23.1391328,22.345647 21.2081588,29.0182258 C31.621914,25.2403739 41.9536712,17.8890996 38.4523534,10.8240261 C36.9141239,7.71460202 32.3084202,3.60295645 27.9188065,1.87809809 C21.9189887,-0.479475182 16.0094809,0.128289939 16.0094809,0.128289939 Z" id="path-9"></path>
        <path d="M25.6883064,29.0289498 C22.0489134,30.2090715 18.1557086,30.9177455 14.5392006,31.3016228 C12.5965535,31.5078268 10.5572676,31.4353453 8.85652292,31.4768444 C7.31074549,31.8995321 4.07337585,32.3370513 2.68987848,32.2695464 C1.31196462,32.202314 1.30277998,31.257356 0.752228679,31.0582615 C-1.31187325,30.3095231 1.35299866,24.4423627 5.62807349,17.8704264 C5.37915253,16.1383506 6.1406925,14.3981071 7.91269339,12.6496959 C12.2503914,7.36724512 17.1374766,2.39552676 20.6633937,0.163159795 C20.6633937,0.163159795 26.5729015,-0.444605326 32.5727193,1.91296795 C36.9623329,3.63782631 41.5680368,7.74947188 43.1062662,10.858896 C46.607584,17.9239695 36.2758267,25.2752438 25.8620715,29.0530956 C25.8039638,29.0451188 25.746042,29.0370702 25.6883064,29.0289498 Z" id="path-11"></path>
    </defs>
    <g id="Symbols" stroke="none" stroke-width="1" fill="none" fill-rule="evenodd">
        <g id="Bem-te-vi-|-Erro">
            <g id="Bem-te-vi">
                <g>
                    <g id="Group" transform="translate(34.812427, 59.481574)" fill-rule="nonzero">
                        <path d="M15.8569878,9.23548757 L20.7515407,15.6016004 C20.7515407,15.6016004 21.7693682,17.0112932 23.430822,16.7863422 C25.1072438,16.5538929 31.0944645,15.7140759 33.2348959,15.6915808 C35.9815334,15.6615873 36.6176756,18.6309403 36.5203832,18.7584125 C36.5203832,18.7584125 22.8395839,17.9260939 19.3595119,18.2485236 C15.5800788,18.6009468 14.5397992,19.1258325 13.7315244,19.3582818 C13.7315244,19.3582818 13.0804141,17.4461984 14.180566,16.9588047 C14.9289685,16.5838863 16.1189287,17.0037948 16.9272035,16.9887981 C17.8028345,16.9738014 18.4763968,16.8613259 17.653154,15.6465906 L13.6492001,9.73037974 L15.8569878,9.23548757 Z" id="Shape" fill="#1D1D1B"></path>
                        <path d="M19.2622195,4.90143197 C19.2622195,4.90143197 13.1702225,5.70375714 15.8569878,9.23548757 L13.6492001,9.73037974 C12.9681538,8.79308397 10.4011329,5.78623917 4.85546969,6.37861009 L0.0956292198,4.01662477 L13.7390084,0.0349923751 L19.2622195,4.90143197 Z" id="Shape" fill="#9C7D03"></path>
                        <path d="M33.9907825,18.6159436 C33.4818687,17.5586739 32.4939773,16.2914501 29.9344405,16.4414174 C27.1578669,16.6138798 23.3859178,17.0112932 23.3859178,17.0112932 L23.2811414,17.1312671 C23.9322517,17.0787785 26.1550074,18.2110318 29.2010059,18.031071 C30.4583223,17.9560873 31.7006706,18.1885367 32.7708863,18.5484583 C33.2049598,18.5709534 33.6090972,18.5934485 33.9907825,18.6159436 Z" id="Shape" fill="#3C3C38"></path>
                        <path d="M24.2016766,18.1285498 L34.1703991,20.4080531 C34.5221483,20.4905351 33.5267729,16.4414174 30.091605,16.6438733 C26.6564371,16.8538275 23.2063012,17.1312671 23.2063012,17.1312671 L24.2016766,18.1285498 Z" id="Shape" fill="#1D1D1B"></path>
                        <path d="M31.5809262,19.8156821 C31.0794964,18.6309403 29.9269564,17.4237034 27.5545202,17.3037295 L22.6973874,17.2512409 L22.4953187,17.5061854 L27.3299994,18.6609338 C27.4198078,18.6684321 27.502132,18.6684321 27.5844563,18.6759305 C28.2655027,18.7134223 28.9540331,18.8483929 29.6126273,19.0433504 L30.5705827,19.5907312 L31.5809262,19.8156821 Z" id="Shape" fill="#3C3C38"></path>
                        <path d="M19.3595119,18.2485236 C22.7273235,18.5709534 26.9707662,20.1381119 31.536022,21.6377851 C31.6407984,20.1381119 30.5406466,17.6861462 27.3449675,17.5211821 C24.2465808,17.3487197 19.9582339,17.3262246 19.9582339,17.3262246 L19.3595119,18.2485236 Z" id="Shape" fill="#1D1D1B"></path>
                    </g>
                    <g id="Group" transform="translate(0.000000, 37.819628)" fill-rule="nonzero">
                        <path d="M10.3235306,1.97056506 C11.4128724,6.32053983 13.7882426,10.7301033 16.7007189,14.8566205 C10.8455069,11.9963631 5.58035497,8.42848993 1.48775844,4.22003831 C0.156340718,2.8569469 -0.532062765,2.55900342 0.708576478,5.12131733 C5.08107332,14.2458363 14.8851493,21.6571803 27.4957933,24.9643529 C27.9572506,23.0575147 28.6759136,21.2475081 29.6290876,19.5641274 C29.6215227,19.5641274 29.6139579,19.5641274 29.6139579,19.5641274 C29.666912,19.482193 29.727431,19.3928099 29.7803851,19.2959783 C21.7237949,14.6927516 15.3239119,8.48807863 11.4128724,1.78435038 C9.94528694,-0.725823416 9.73347048,-0.37573983 10.3235306,1.97056506 Z" id="Shape" fill="#4C361E"></path>
                        <path d="M9.0873127,11.276333 C11.6006114,17.2438926 20.5058502,22.6031509 27.4957933,24.9643529 L29.7803851,19.2959783 C24.6816604,17.7392236 17.8030108,13.1390805 14.4123424,9.5617193 C15.1839595,11.6249779 16.7097191,14.0143572 18.0638315,15.9882328 C15.3480419,15.0199165 11.3719045,12.6990131 9.0873127,11.276333 Z" id="Shape" fill="#FFD700"></path>
                    </g>
                    <g id="Path-2" transform="translate(22.912261, 20.063934)">
                        <g id="Mask" fill="#FFD700" fill-rule="nonzero">
                            <path d="M2.84083012,30.1603103 C-0.48294112,34.0034569 -1.55075903,40.6579326 3.66049316,42.5047365 C9.08982083,44.4188329 19.0836941,46.6918223 32.0328662,44.0898476 C52.005573,40.0747313 64.1952408,22.5338325 57.3597022,3.03397568 C46.6794916,-0.24617084 37.4465907,-0.84601305 29.6609992,1.23444905 C26.3695569,2.11398675 23.8807249,4.80444263 22.1945036,9.30581671 L2.84083012,30.1603103 Z" id="path-5"></path>
                        </g>
                        <g id="Clipped">
                            <mask id="mask-2" fill="white">
                                <use xlink:href="#path-1"></use>
                            </mask>
                            <g id="path-5"></g>
                            <path d="M20.5272476,45.6739736 C19.8818822,44.3814633 21.1603083,42.7719157 24.3625256,40.8453305 C28.3204417,38.4640862 41.3263225,36.4181646 47.6786639,30.7836057 C47.6786639,31.7163978 45.5911774,33.5876875 45.7705729,33.9153278 C45.9499683,34.242968 48.8955959,32.997978 50.5093155,31.6353057 C54.8680888,27.9546293 58.3540842,21.1086636 59.5523723,17.3053171 C61.0029818,12.7011067 62.3887887,15.3448547 63.709793,25.2365614 L40.8058631,45.6739736 L20.5272476,45.6739736 Z" id="Shape" fill="#D5AA02" fill-rule="nonzero" mask="url(#mask-2)"></path>
                        </g>
                    </g>
                    <g id="Group" transform="translate(24.866019, 60.191802)" fill-rule="nonzero">
                        <path d="M10.3502066,9.36881811 L13.1199685,16.1699591 C13.1199685,16.1699591 13.7975178,17.6706456 11.9510098,17.6041127 C10.1045019,17.5449724 3.37368254,16.901821 1.53462019,17.8184965 C-0.207649416,18.6908168 -0.0364006944,20.9233652 0.1944128,21.0416459 C0.1944128,21.0416459 13.8421914,18.6021062 17.5128705,18.653854 C21.1909952,18.7129944 23.1938607,19.2674352 23.1938607,19.2674352 C23.1938607,19.2674352 22.8960368,17.0718495 21.7494149,16.7761477 C20.6027931,16.480446 19.1360105,17.1014197 18.3542229,17.1679526 C17.4979793,17.2344855 16.7310828,17.1901302 16.0982071,15.9038275 L13.0082845,9.64234226 L10.3502066,9.36881811 Z" id="Shape" fill="#1D1D1B"></path>
                        <path d="M2.89716436,3.15168815 C2.89716436,3.15168815 8.23565712,4.67455233 10.3502066,9.36881811 L13.0082845,9.64234226 C12.5615487,8.64434874 11.4893828,5.40641424 17.4309689,5.44337696 L19.1881297,2.62681749 L1.65374973,0.0320343597 L2.89716436,3.15168815 Z" id="Shape" fill="#FFD700"></path>
                        <path d="M2.33129902,20.6720187 C2.55466692,19.4522489 3.32900896,18.0254878 5.33932004,17.9441698 C8.94298879,17.7963189 12.4126368,17.811104 12.4126368,17.811104 L12.4349736,17.9293847 C11.7574243,17.9441698 9.3673878,19.4744265 6.27001962,19.5927072 C4.98193141,19.644455 4.08101422,20.0066897 3.48536649,20.47242 C3.06841308,20.5463454 2.68124206,20.6054858 2.33129902,20.6720187 Z" id="Shape" fill="#3C3C38"></path>
                        <path d="M12.7849166,19.0234813 L2.66635087,22.6162579 C2.42064618,22.7049685 2.01113837,18.2694417 5.49567757,18.1289834 C8.98021678,17.9959176 12.5689943,17.9293847 12.5689943,17.9293847 L12.7849166,19.0234813 Z" id="Shape" fill="#1D1D1B"></path>
                        <path d="M6.98479689,21.0860012 C7.01457928,19.9401568 7.48365186,18.7425646 8.90576081,18.5133957 C10.2236314,18.2990119 13.1571965,18.0328803 14.0730048,17.9515623 L12.7849166,19.0234813 L10.4395537,19.8588388 C10.3725433,19.8662313 10.2980874,19.8810164 10.2236314,19.8958015 C9.62798368,19.9992972 9.12912871,20.1988959 8.73451209,20.4650275 L6.98479689,21.0860012 Z" id="Shape" fill="#3C3C38"></path>
                        <path d="M17.5128705,18.653854 C14.7431085,18.8830229 10.4991185,21.6330495 7.93038766,23.5772887 C7.25283837,23.4368304 6.27746521,19.2082949 9.10679192,18.7277795 C11.8393259,18.2472641 15.8673936,17.7963189 15.8673936,17.7963189 L17.5128705,18.653854 Z" id="Shape" fill="#1D1D1B"></path>
                    </g>
                    <g id="Group-2" transform="translate(36.766185, 0.710228)">
                        <path d="M11.0970173,10.159905 C5.16854198,10.8733346 0.718452225,8.39510551 0.00165924301,4.41491932 C1.86084104,5.83426873 4.60854747,6.57773747 7.85651567,6.33742435 C6.41546311,5.51134797 5.31787386,4.40740953 4.64588044,3.1007069 C6.71412685,4.33231168 8.52850909,5.20344677 13.2175298,3.5588038 L11.0970173,10.159905 Z" id="Shape" fill="#1D1D1B" fill-rule="nonzero"></path>
                        <g id="Group" transform="translate(4.355513, 0.000000)">
                            <g id="Path-6" transform="translate(0.103703, 11.681888)">
                                <g id="Mask" fill="#724B22" fill-rule="nonzero">
                                    <path d="M38.0150495,10.6949683 L38.4806572,11.5569385 C39.1705842,15.3989167 38.9018781,18.525383 37.6745389,20.9363374 C36.2879464,23.6601252 23.211846,19.9571994 19.5204869,19.2417171 C18.0003877,18.9470821 13.756097,12.7047134 17.2702309,16.0472736 C19.2080053,17.8904384 30.5789215,22.3090498 29.4631207,23.0085129 C28.9231228,23.3470219 25.2676743,21.5854494 19.9622988,20.9363374 C14.6569232,20.2872253 9.23298477,21.1501747 6.0210197,20.2432272 C2.73053958,19.3141097 1.65438068,16.6446566 1.19564125,14.7396086 C0.813924489,13.1544194 0.141090487,10.5696727 0.0223997807,8.30832577 L14.6569232,0.0625815439 L38.0150495,10.6949683 Z" id="path-7"></path>
                                </g>
                                <g id="Clipped">
                                    <mask id="mask-4" fill="white">
                                        <use xlink:href="#path-3"></use>
                                    </mask>
                                    <g id="path-7"></g>
                                    <path d="M-0.938580634,8.67418208 L1.26726766,8.06194395 C1.89422041,12.4574447 4.81356891,16.9694602 10.0253132,21.5979903 C15.2370575,26.2265204 10.5391766,25.4178812 -4.06832944,19.1720728 L-0.938580634,8.67418208 Z" id="Shape" fill="#4C361E" fill-rule="nonzero" mask="url(#mask-4)"></path>
                                </g>
                            </g>
                            <path d="M0.0887695012,18.5333156 C0.103702688,11.7745089 2.80660956,3.94180285 14.6336938,2.20704245 C25.1541241,0.667536468 31.1572653,4.58013459 34.5022992,11.4440783 L34.08417,16.5807715 L20.5323027,18.2254144 L10.9451965,15.371696 L0.0887695012,18.5333156 Z" id="Shape" fill="#FFD700" fill-rule="nonzero"></path>
                            <path d="M25.0346586,5.9544253 C18.7851198,0.547379904 7.23429954,2.95051119 3.12767308,8.17732174 C7.21189975,1.92918039 26.9535731,-5.30274282 25.0346586,5.9544253 Z" id="Shape" fill="#1D1D1B" fill-rule="nonzero"></path>
                            <g id="Shape-Copy" transform="translate(25.948357, 12.343167)"></g>
                            <path d="M19.4197802,17.8649447 C11.6321231,15.9349299 4.05353068,25.4948866 11.7665218,28.836741 C18.8971187,31.9232628 25.9231832,31.2774212 34.6217647,38.103816 C38.915056,33.627984 39.116654,26.6664131 38.1385303,22.4759529 C37.9518654,21.6648961 37.0932072,18.2554536 35.6596212,14.2302087 L24.1162676,19.0289614 L19.4197802,17.8649447 Z" id="Shape" fill="#FFE37E" fill-rule="nonzero"></path>
                            <path d="M18.2325918,6.33742435 C21.8389565,6.49512984 24.7285282,9.2662406 24.7285282,12.6381342 C24.7285282,16.0100278 21.8389565,18.7811385 18.2325918,18.938844 L18.2325918,18.3530808 C21.0549642,18.3530808 23.3621416,16.2203018 23.3621416,13.6068965 C23.3621416,10.9934912 21.0549642,8.86822198 18.2325918,8.86822198 L18.2325918,6.33742435 Z M0.185835217,16.4756345 C4.09086365,11.4290588 11.3110596,6.32991456 17.9115283,6.32991456 C18.0235272,6.32991456 18.1280595,6.33742435 18.2325918,6.33742435 L18.2325918,8.86822198 C15.4176861,8.86822198 13.1179753,10.9934912 13.1179753,13.6068965 C13.1179753,16.2203018 15.4176861,18.3530808 18.2325918,18.3530808 L18.2325918,18.938844 C18.1280595,18.938844 18.0235272,18.9463538 17.9115283,18.9463538 C15.0592896,17.819886 3.75486694,18.1277872 0.193301811,20.9514665 C0.0738363141,19.5321171 0.0439699398,18.0151404 0.185835217,16.4756345 Z" id="Shape" fill="#1D1D1B" fill-rule="nonzero"></path>
                            <path d="M30.851135,6.25481671 C32.9716475,8.32751744 34.5321656,11.0460597 35.6596212,14.2302087 C35.7641535,14.5306001 35.8686858,14.8234817 35.9732181,15.1163633 C35.3012247,15.7997538 33.3449772,16.3404583 32.5609849,16.4606149 C31.9935238,16.5432225 31.4111295,16.4455953 30.851135,16.2052822 L30.851135,16.0701061 C31.254331,16.2353213 31.6649937,16.28038 32.0532565,16.1602235 C33.3748436,15.7622049 33.9199049,13.6369356 33.2553781,11.4440783 C32.7924493,9.88204299 31.8367253,8.69549692 30.851135,8.27494894 L30.851135,6.25481671 Z M29.9402105,5.77419045 C30.059676,5.75917088 30.1866081,5.75166109 30.3060736,5.74415131 C30.4927385,5.90936659 30.6719367,6.08209165 30.851135,6.25481671 L30.851135,8.27494894 C30.4479389,8.10973367 30.0372763,8.06467496 29.65648,8.18483152 C28.3274263,8.58285014 27.782365,10.7081194 28.4468918,12.9009767 C28.9172872,14.463012 29.8655446,15.6495581 30.851135,16.0701061 L30.851135,16.2052822 C29.3354165,15.5594407 27.9690298,13.83219 27.4389017,11.6843915 C27.3269028,11.2037652 27.2522369,10.7306487 27.2298371,10.2725518 L27.2298371,9.58916137 C27.3343694,7.57653891 28.3647593,6.01450358 29.9402105,5.77419045 Z" id="Shape" fill="#1D1D1B" fill-rule="nonzero"></path>
                        </g>
                        <g id="Group" transform="translate(32.435446, 8.079277)">
                            <mask id="mask-6" fill="white">
                                <use xlink:href="#path-5"></use>
                            </mask>
                            <use id="Mask" fill="#FFFFFF" fill-rule="nonzero" xlink:href="#path-5"></use>
                            <path d="M1.36001539,0.939140369 C2.33067255,0.721356596 3.45066158,1.97549074 3.84639104,3.73278049 C4.23465391,5.49007024 3.76425851,7.10467407 2.78613476,7.32245785 C1.808011,7.5477514 0.69548856,6.29361726 0.299759102,4.53632751 C-0.0959703566,2.77903776 0.381891631,1.16443393 1.36001539,0.939140369 Z" id="Shape" fill="#714B21" fill-rule="nonzero" mask="url(#mask-6)"></path>
                            <path d="M1.53174704,2.54623442 C2.07680837,2.42607785 2.68906904,3.1169781 2.91306685,4.09325018 C3.12959806,5.06201248 2.86826729,5.95567693 2.32320596,6.08334328 C1.78561122,6.20349984 1.16588395,5.5125996 0.949352741,4.53632751 C0.732821528,3.56005543 0.994152303,2.66639098 1.53174704,2.54623442 Z" id="Shape" fill="#1D1D1B" fill-rule="nonzero" mask="url(#mask-6)"></path>
                            <path d="M2.19627387,1.75770696 C2.48000442,1.69762868 2.80853454,2.05809837 2.92800003,2.57627356 C3.03999894,3.08693896 2.89813366,3.56005543 2.6144031,3.62764349 C2.33067255,3.69523156 2.00214243,3.32725208 1.89014353,2.8090769 C1.77067803,2.2984115 1.91254331,1.82529503 2.19627387,1.75770696 Z" id="Shape" fill="#FFFFFF" fill-rule="nonzero" mask="url(#mask-6)"></path>
                            <path d="M1.53174704,2.54623442 C2.07680837,2.42607785 2.68906904,3.1169781 2.91306685,4.09325018 C3.12959806,5.06201248 2.86826729,5.95567693 2.32320596,6.08334328 C1.78561122,6.20349984 1.16588395,5.5125996 0.949352741,4.53632751 C0.732821528,3.56005543 0.994152303,2.66639098 1.53174704,2.54623442 Z" id="Shape-Copy-2" fill="#1D1D1B" fill-rule="nonzero" mask="url(#mask-6)"></path>
                            <path d="M3.03149501,3.81956023 C5.15209507,3.81956023 6.87966633,4.74326382 6.87966633,5.87724139 C6.87966633,7.01872875 5.15229012,7.94243234 3.03149501,7.94243234 C0.910894954,7.94243234 -0.816481252,7.01872875 -0.816481252,5.87724139 C-0.816481252,4.74326382 0.910894954,3.81956023 3.03149501,3.81956023 Z" id="Shape-Copy" fill="#1D1D1B" fill-rule="nonzero" mask="url(#mask-6)" transform="translate(3.031593, 5.880996) rotate(-6.000000) translate(-3.031593, -5.880996) "></path>
                        </g>
                        <g id="Group" transform="translate(17.422052, 8.865719)">
                            <g id="Mask" fill="#FFFFFF" fill-rule="nonzero">
                                <path d="M5.16605312,0.00250326176 C7.98842548,0.00250326176 10.2956029,2.12777249 10.2956029,4.74117777 C10.2956029,7.35458304 7.98842548,9.48736206 5.16605312,9.48736206 C2.35114735,9.48736206 0.0514365334,7.35458304 0.0514365334,4.74117777 C0.0514365334,2.12777249 2.35114735,0.00250326176 5.16605312,0.00250326176 Z" id="path-9"></path>
                            </g>
                            <g id="Shape-Clipped">
                                <mask id="mask-8" fill="white">
                                    <use xlink:href="#path-7"></use>
                                </mask>
                                <g id="path-9"></g>
                                <g id="Shape" mask="url(#mask-8)">
                                    <g transform="translate(-1.074295, 1.251631)" id="Group">
                                        <g>
                                            <path d="M4.51058732,0.0425554499 C6.54896736,0.0425554499 8.21401772,1.71723756 8.21401772,3.76740894 C8.21401772,5.81758032 6.54896736,7.49226244 4.51058732,7.49226244 C2.47967387,7.49226244 0.814623505,5.81758032 0.814623505,3.76740894 C0.814623505,1.71723756 2.47967387,0.0425554499 4.51058732,0.0425554499 Z" id="Shape" fill="#714B21" fill-rule="nonzero"></path>
                                            <path d="M4.51058732,1.70972778 C5.63804294,1.70972778 6.55653765,2.63343137 6.55653765,3.76740894 C6.55653765,4.9088963 5.63814665,5.83259989 4.51058732,5.83259989 C3.38313169,5.83259989 2.46474068,4.9088963 2.46474068,3.76740894 C2.46474068,2.63343137 3.38313169,1.70972778 4.51058732,1.70972778 Z" id="Shape" fill="#1D1D1B" fill-rule="nonzero"></path>
                                            <path d="M5.64882802,0.617054023 C6.27476315,0.617054023 6.78333543,1.11269985 6.78333543,1.71348267 C6.78333543,2.31426549 6.27476315,2.80240154 5.64882802,2.80240154 C5.0228929,2.80240154 4.51432061,2.31426549 4.51432061,1.71348267 C4.51432061,1.11269985 5.0228929,0.617054023 5.64882802,0.617054023 Z" id="Shape" fill="#FFFFFF" fill-rule="nonzero" transform="translate(5.648828, 1.709728) rotate(-14.000000) translate(-5.648828, -1.709728) "></path>
                                            <path d="M5.38178035,5.08996557 C8.347652,5.08996557 10.7638335,6.01366916 10.7638335,7.14764673 C10.7638335,8.28913409 8.3479248,9.21283768 5.38178035,9.21283768 C2.4159087,9.21283768 0,8.28913409 0,7.14764673 C0,6.01366916 2.4159087,5.08996557 5.38178035,5.08996557 Z" id="Shape-Copy" fill="#1D1D1B" fill-rule="nonzero"></path>
                                        </g>
                                    </g>
                                </g>
                            </g>
                        </g>
                        <g transform="translate(16.543924, 14.828205)" fill-rule="nonzero" id="Group">
                            <g transform="translate(3.222845, 0.107751)">
                                <g transform="translate(9.107644, 5.988588) rotate(5.000000) translate(-9.107644, -5.988588) translate(0.454377, 0.817734)">
                                    <path d="M0.827962263,3.63223281 C0.827962263,3.63223281 6.60710568,2.2579421 12.2145174,3.75989916 C17.8219292,5.269366 16.1643454,7.76261471 16.1643454,7.76261471 C16.1643454,7.76261471 12.2369172,8.55865194 8.34682198,7.29700802 C4.44926014,6.04287388 0.827962263,3.63223281 0.827962263,3.63223281 Z" id="Shape" fill="#DF3839"></path>
                                    <path d="M8.49857009,7.62715581 C12.4504356,7.62715581 16.9509097,6.45748856 16.7822747,5.01843806 C16.506818,2.66782272 14.3560575,2.55139334 12.1047209,2.67281465 C11.6358794,2.69810069 15.8365605,3.25450356 15.2595111,4.12473039 C14.9153057,3.98716082 12.7993133,4.14891421 12.085325,4.15733615 C10.8687286,4.17168665 11.1922862,4.06150448 10.3769189,4.08767729 C9.22211769,4.12474573 10.6645267,2.7009752 10.433051,2.7009752 C10.2015755,2.7009752 1.2852484,4.79268255 1.2852484,6.23280056 C1.2852484,7.67291857 4.54670458,7.62715581 8.49857009,7.62715581 Z" id="Oval-3" fill="#AD2323" transform="translate(9.036061, 5.134125) rotate(21.000000) translate(-9.036061, -5.134125) "></path>
                                    <path d="M0.0215701592,3.89507529 C2.62741131,3.52709581 6.42790743,3.27176312 9.68334222,4.14289821 C12.2070508,4.81877888 13.2747737,5.89267817 13.692903,6.87646004 C12.9835766,5.96777603 11.6843893,5.07411158 9.38467848,4.45830919 C6.33084172,3.63974259 2.88127549,3.64725238 0.0215701592,3.89507529 Z" id="Shape" fill="#640B07"></path>
                                </g>
                            </g>
                            <g transform="translate(0.048506, 3.320442)">
                                <path d="M5.92100869,1.08307792 C12.013749,4.31979537 17.6136942,6.61027988 25.1848201,1.82654666 C25.1848201,1.82654666 23.6019022,5.96443834 20.2494017,7.0082985 C16.404106,8.20235435 9.33324195,5.68657629 6.48100321,2.97554381 C5.88367572,3.51624835 5.03248406,3.96683546 4.0543603,4.19212902 C2.05331323,4.64271614 0.0746659356,3.7941104 0.0746659356,2.48740776 L2.13544576,0.0467275528 L5.92100869,1.08307792 Z" id="Shape" fill="#3C3C38"></path>
                                <path d="M6.51833618,1.39097912 C10.5224342,3.48925873 14.3488199,5.08636423 18.7068688,4.41056849 C20.728216,4.09712138 17.9637564,5.68331405 14.6533126,5.12244937 C11.3353193,4.56030563 8.42074853,2.82322261 6.51833618,1.39097912 Z" id="Shape" fill="#818B91"></path>
                            </g>
                        </g>
                        <g id="Group" transform="translate(16.592430, 11.890493)" fill-rule="nonzero">
                            <g id="Shape" transform="translate(0.000000, 0.000000)">
                                <path d="M4.74128691,7.41633016 C4.74128691,7.41633016 7.71299114,8.55030774 11.3940218,8.16730869 C16.2622408,7.65664329 20.6077982,4.72031725 25.4685506,3.42863419 C29.2615802,2.42983274 31.2626272,2.72271437 31.5836907,2.76777308 C31.9047543,2.80532201 32.405016,2.85038072 31.8972877,2.15197069 C31.3895593,1.44605087 29.1346481,-0.37131716 26.1928102,0.169387379 C22.8253765,0.785189771 21.0408606,1.31087474 18.517152,1.29585517 C16.5758377,1.2808356 15.5081148,0.297053728 14.2238607,1.08558118 C13.4324018,1.57371722 11.535887,5.31359029 8.67618171,5.79421654 C6.12260672,6.31239173 4.55462207,5.19343372 2.19517851,6.14717645 L2.18024532,6.15468624 C0.858658259,6.71041035 -0.00746659356,7.74676071 0.0746659356,8.74556216 L4.74128691,7.41633016 Z" fill="#3C3C38"></path>
                                <path d="M14.6895438,4.19648206 C19.2760351,3.76844926 21.4164954,3.11563328 23.3276996,2.43727645 C24.902038,1.8784857 27.5651353,1.64358668 27.5651353,1.41370629 C27.5651353,0.936599217 23.7631018,1.65007064 23.1069307,1.78980754 C21.0643992,2.22478099 19.9631613,2.66533242 17.2251883,2.75488727 C16.4934621,2.77741663 15.7534333,2.7498434 15.171039,2.65221619 C14.2279293,3.60078137 14.1364967,4.248095 14.6895438,4.19648206 Z" fill="#818B91"></path>
                            </g>
                            <path d="M6.96633179,7.97956406 C5.50287945,7.5515063 3.81542931,7.40131059 2.16531213,8.6704643 C2.75628021,7.64899986 3.86054445,7.27028584 4.93340865,7.31790749 C5.25022582,7.33197018 6.79459423,6.7960127 7.0919087,6.87885743 C7.3242979,6.94361116 6.62147342,7.1655534 6.48608049,7.42882592 C6.38076246,7.6336176 6.83036057,7.88233166 6.96633179,7.97956406 Z" id="Shape" fill="#1D1D1B"></path>
                        </g>
                    </g>
                    <g id="Group" transform="translate(21.668960, 29.829566)">
                        <g id="Group-3" transform="translate(0.031777, 0.034858)">
                            <path d="M8.55244749,13.5879204 C2.35339319,21.3153446 -0.317763739,27.9879139 2.11757903,29.0182371 C3.5677973,29.630097 6.53597084,31.6750001 12.6552814,31.4448655 C17.3310881,31.2690181 22.6008004,30.5908256 27.2890071,29.0182371 C35.4467544,25.7210404 40.5724748,22.5475734 42.6661685,19.4978361 C44.7598621,16.4480989 33.3886218,14.4781269 8.55244749,13.5879204 Z" id="Shape" fill="#4C361E" fill-rule="nonzero"></path>
                            <path d="M8.58324852,12.8811447 C3.19401206,19.5990913 -0.972509511,27.6262211 1.14469053,28.5219474 C3.36881985,29.4603271 15.473216,30.4484695 24.8829939,27.292101 L23.2505401,15.7614033 L8.58324852,12.8811447 Z" id="Shape" fill="#4C361E" fill-rule="nonzero" transform="translate(12.732804, 21.162525) rotate(3.000000) translate(-12.732804, -21.162525) "></path>
                            <path d="M3.04742189,31.6107665 C4.29998883,33.2321694 17.6055583,30.4346193 26.1135603,23.1761109 L18.1963919,14.7246533 C10.3186124,21.2522702 1.79485495,29.9809625 3.04742189,31.6107665 Z" id="Shape" fill="#4C361E" fill-rule="nonzero"></path>
                            <path d="M14.4544466,29.5861131 C18.2672919,28.1411323 22.3952484,25.9988642 25.7826935,23.1509078 L18.1806363,15.0354923 C17.3219583,15.7495816 16.4632803,16.480473 15.620358,17.2113645 C15.2343467,17.5558076 14.8404578,17.9002507 14.4544466,18.2446939 L14.4544466,17.6398182 C14.7538022,17.3793855 15.04528,17.118953 15.3446356,16.8501193 C16.2663359,16.0520194 17.1722805,15.2707217 18.0624696,14.5398302 L18.2121474,14.4138145 L18.3539474,14.5566324 L26.2711158,23.00809 L26.444427,23.192913 L26.2474825,23.3525331 C22.7418706,26.3517083 18.4169697,28.586388 14.4544466,30.0733741 L14.4544466,29.5861131 Z M4.25272215,31.7955895 C4.84355561,31.8459959 5.62345578,31.8207927 6.53727821,31.7031781 C8.63276755,31.4343444 11.4451348,30.7286561 14.4544466,29.5861131 L14.4544466,30.0733741 C11.4608904,31.199115 8.67215644,31.8964023 6.59242266,32.1652358 C5.63921134,32.2828506 4.83567783,32.3164548 4.22121103,32.2660484 C3.80368872,32.2240433 3.4649442,32.1484338 3.21285525,32.022418 L3.21285525,31.4595475 C3.35465529,31.6359696 3.70915537,31.7451832 4.25272215,31.7955895 Z M14.4544466,18.2446939 L14.4544466,17.6398182 C11.2797015,20.4709725 8.26251191,23.4281425 6.08824477,25.8980516 C4.78053337,27.3850376 3.7721776,28.7040027 3.21285525,29.7457331 L3.21285525,30.6866508 C3.54372199,29.728931 4.71751114,28.1327312 6.40335595,26.2172915 C8.50672308,23.831393 11.3978682,20.9834366 14.4544466,18.2446939 Z M3.21285525,32.022418 C3.07105522,31.9468086 2.96076631,31.862798 2.88198852,31.7619854 L2.88198852,31.7535844 C2.87411073,31.7535844 2.87411073,31.7451832 2.86623295,31.7367822 C2.78745517,31.6275686 2.74018848,31.5015528 2.72443292,31.3503339 L2.72443292,31.1151044 C2.75594404,30.7454582 2.92925519,30.2834003 3.21285525,29.7457331 L3.21285525,30.6866508 C3.09468856,31.0310939 3.09468856,31.2915265 3.21285525,31.4511465 C3.21285525,31.4511465 3.21285525,31.4511465 3.21285525,31.4595475 L3.21285525,32.022418 Z" id="Shape" fill="#4C361E" fill-rule="nonzero"></path>
                            <path d="M0.364262763,29.8217415 C1.60950867,31.3161709 12.2463189,25.5464407 20.0632497,19.5610195 L15.1545707,13.6757406 C7.33763986,19.6534585 -0.880983146,28.327312 0.364262763,29.8217415 Z" id="Shape" fill="#4C361E" fill-rule="nonzero"></path>
                            <path d="M10.0932485,17.5735824 C11.6919836,16.1561854 13.3630233,14.7696013 15.0179952,13.5139724 L15.1947399,13.3753141 L15.3313152,13.5447855 L20.2399942,19.4300644 L20.3765696,19.5918325 L20.199825,19.7227876 C17.0264564,22.157013 13.3871248,24.5527221 10.0932485,26.4477203 L10.0932485,25.9470094 C13.2505494,24.1213404 16.7051026,21.8411799 19.7499297,19.5225033 L15.1224352,13.9684639 C13.4272941,15.2780155 11.7160851,16.7031158 10.0932485,18.1513257 L10.0932485,17.5735824 Z M0.187518182,29.9526966 C0.0991458921,29.8448512 0.0509428246,29.6984895 0.0348751355,29.5367214 L0.0348751355,29.398063 C0.0991458921,28.2271698 1.73001634,25.9470094 4.19640663,23.28939 C5.85941246,21.494534 7.90804281,19.5070969 10.0932485,17.5735824 L10.0932485,18.1513257 C8.03658433,19.9924012 6.10846163,21.871993 4.52579425,23.57441 C1.73001634,26.5940819 -0.00529408737,29.0360105 0.541007343,29.6907863 C1.07927493,30.3378589 3.94735744,29.2594046 7.64292594,27.3104837 C8.43024271,26.8945084 9.24969486,26.4323138 10.0932485,25.9470094 L10.0932485,26.4477203 C9.32199946,26.8868052 8.57485192,27.3027805 7.8518059,27.6802394 C3.96342513,29.7370057 0.894496504,30.8000535 0.187518182,29.9526966 Z" id="Shape" fill="#4C361E" fill-rule="nonzero"></path>
                            <g id="Path-3" transform="translate(6.080848, 0.000000)">
                                <g id="Mask" fill="#724B22" fill-rule="nonzero">
                                    <path d="M16.0094809,0.128289939 C11.2276933,4.26837838 8.48114069,4.97425972 2.36687754,13.5548375 C1.83070749,14.8308436 -1.11894044,20.5875469 0.581157599,22.3207956 C1.17622358,22.9274648 7.48124629,20.1855176 8.36270141,20.9910531 C9.28712403,21.8358552 12.4170496,20.4164765 13.8799856,20.9910531 C15.6697224,21.6939825 18.3116976,16.8721497 21.2081588,17.9407537 C23.1391328,18.6531563 23.1391328,22.345647 21.2081588,29.0182258 C31.621914,25.2403739 41.9536712,17.8890996 38.4523534,10.8240261 C36.9141239,7.71460202 32.3084202,3.60295645 27.9188065,1.87809809 C21.9189887,-0.479475182 16.0094809,0.128289939 16.0094809,0.128289939 Z" id="path-11"></path>
                                </g>
                                <g id="Clipped">
                                    <mask id="mask-10" fill="white">
                                        <use xlink:href="#path-9"></use>
                                    </mask>
                                    <g id="path-11"></g>
                                    <path d="M-0.530850008,17.1308116 C-0.131789862,16.7479184 5.24147358,11.2789359 10.6632285,6.58288839 C14.5132992,3.24815348 17.6334489,0.683962429 18.4724741,-0.0524269272 C19.0318241,-0.543353164 17.7120992,-0.893065308 14.5132992,-1.10156335 L-7.10316548,18.3127506 C-3.15130206,17.9370639 -0.960530241,17.5430842 -0.530850008,17.1308116 Z" id="Shape" fill="#4C361E" fill-rule="nonzero" mask="url(#mask-10)"></path>
                                </g>
                            </g>
                            <path d="M8.34751951,23.2297838 L35.5084613,7.46557837 C34.6744435,9.81127531 36.882451,12.8980913 34.9955809,16.5054489 C32.9276701,20.458924 30.3120893,24.356419 27.3343186,26.414452 C26.2486107,27.1634968 24.7600303,27.5856857 25.0263359,25.7947876 C21.6667872,29.2608223 17.1395906,32.1140022 17.9726494,29.4855358 C16.8664565,30.5546271 13.0027612,33.207557 11.1852685,31.3717669 C9.97360682,30.1479068 9.02769047,27.4339124 8.34751951,23.2297838 Z" id="Shape" fill="#724B22" fill-rule="nonzero" transform="translate(22.065208, 19.733824) rotate(41.000000) translate(-22.065208, -19.733824) "></path>
                        </g>
                        <g id="Path-5" transform="translate(1.458713, 0.000000)">
                            <g id="Clipped">
                                <mask id="mask-12" fill="white">
                                    <use xlink:href="#path-11"></use>
                                </mask>
                                <g id="path-13"></g>
                                <path d="M42.4200948,7.20865218 C40.384507,16.2030192 29.8078664,21.3852795 21.3135355,25.1071775 C18.233192,26.4568688 2.34296702,29.3154469 1.92872736,29.5033803 C1.65256759,29.6286694 1.42406467,30.2843773 1.2432186,31.470504 L1.2432186,32.2162228 C1.47850025,32.7984257 1.62887815,33.0945239 1.6943523,33.1045173 C6.26915186,33.8027738 11.9810809,32.7901197 14.5951007,32.4815407 C17.6801687,32.1173554 28.171731,30.0164516 46.0697875,26.1788296 L46.0697875,8.02426549 C44.9937175,1.48427859 43.7771533,1.21240749 42.4200948,7.20865218 Z" id="Shape" fill-opacity="0.7" fill="#683907" fill-rule="nonzero" style="mix-blend-mode: darken;" mask="url(#mask-12)"></path>
                            </g>
                        </g>
                    </g>
                    <g id="drop" transform="translate(47.067822, 0.000000)" fill-rule="nonzero">
                        <path d="M7.45980575,6.09204527 C7.45980575,4.13281088 4.04073403,0.306138026 3.76098244,0 C3.76098244,0 0,4.07155529 0,6.09204527 C0,8.11253525 1.67847405,9.76563162 3.72990287,9.76563162 C3.85422113,9.76563162 4.00965447,9.76563162 4.13397272,9.73502131 C4.16505229,9.73502131 4.19613185,9.73502131 4.22721142,9.70441101 C4.32045011,9.70441101 4.41372432,9.67380071 4.50696301,9.67380071 C4.53804257,9.67380071 4.56912214,9.6431904 4.63128127,9.6431904 C4.72451996,9.6125801 4.81779417,9.6125801 4.91103286,9.58196979 C4.94211243,9.58196979 4.97319199,9.55135949 5.00427155,9.55135949 C5.09751025,9.52074918 5.19078446,9.49013888 5.28402315,9.45952858 C5.31510271,9.45952858 5.34618228,9.42891827 5.34618228,9.42891827 C5.43942097,9.39830797 5.53269518,9.33708736 5.62593387,9.27586675 C5.65701344,9.27586675 5.65701344,9.24525644 5.688093,9.24525644 C5.78133169,9.18403584 5.8746059,9.12281523 5.9678446,9.06155964 C5.9678446,9.06155964 5.99892416,9.06155964 5.99892416,9.03094933 C6.09216285,8.96972872 6.18543706,8.87789781 6.27867576,8.81664222 C6.99357677,8.11253525 7.45980575,7.16351087 7.45980575,6.09204527 Z" id="Shape" fill="#3CAED6"></path>
                        <path d="M5.23962546,4.97159428 C4.89772125,4.97159428 4.61797499,5.25125001 4.61797499,5.59304356 C4.61797499,5.93483712 4.89772125,6.21449285 5.23962546,6.21449285 C5.58152968,6.21449285 5.86127594,5.93483712 5.86127594,5.59304356 C5.86127594,5.2512145 5.58149416,4.97159428 5.23962546,4.97159428 Z" id="Shape" fill="#63BFDE"></path>
                        <path d="M3.95822451,9.63245837 C1.94863226,9.63245837 0.304452043,7.95452954 0.304452043,5.9037671 C0.304452043,4.1947688 2.80120236,1.05646844 3.68418287,0.0310694683 L3.65377246,0 C3.65377246,0 0,4.16369933 0,6.21449729 C0,8.26529524 1.64421501,9.94318856 3.65377246,9.94318856 C4.7499042,9.94318856 5.72425513,9.44604156 6.39411921,8.7003033 C5.72418554,9.25958924 4.90209543,9.63245837 3.95822451,9.63245837 Z" id="Shape" fill="#369DC0"></path>
                    </g>
                </g>
            </g>
        </g>
    </g>
</svg>