<?xml version="1.0" encoding="UTF-8"?>
<svg width="1680px" height="1125px" viewBox="0 0 1680 1125" version="1.1" xmlns="http://www.w3.org/2000/svg" xmlns:xlink="http://www.w3.org/1999/xlink">
    <!-- Generator: Sketch 51.3 (57544) - http://www.bohemiancoding.com/sketch -->
    <title>Qualidade de Vida</title>
    <desc>Created with Sketch.</desc>
    <defs>
        <linearGradient x1="100%" y1="44.373839%" x2="15.5506595%" y2="79.0196581%" id="linearGradient-1">
            <stop stop-color="#FAD961" offset="0%"></stop>
            <stop stop-color="#F76B1C" offset="100%"></stop>
        </linearGradient>
    </defs>
    <g id="Symbols" stroke="none" stroke-width="1" fill="none" fill-rule="evenodd">
        <g id="Colaboradores-Pode-Melhorar" transform="translate(-2.000000, 1.000000)" fill="url(#linearGradient-1)" fill-rule="nonzero">
            <g id="Qualidade-de-Vida" transform="translate(842.000000, 562.000000) scale(-1, 1) translate(-842.000000, -562.000000) translate(2.000000, -1.000000)">
                <g id="Background">
                    <g id="Group" opacity="0.6" transform="translate(341.000000, 0.000000)">
                        <path d="M668.879019,604.145027 L1247.7457,958.460179 L1155.71815,1124.00828 L1157.90129,1124.00828 L1249.42503,959.364814 L1338.42977,1013.79365 L1338.42977,1011.68284 L1250.2647,957.706317 L1338.42977,799.244519 L1338.42977,795.324437 L1248.7533,956.801683 L670.39042,602.938848 L1054.28634,303.655624 L1338.26184,358.687552 L1338.26184,356.878283 L1055.96567,302.1479 L1338.42977,82.3217332 L1338.42977,80.0601471 L1053.78254,301.846355 L670.222486,227.666332 L705.992316,-5.68434189e-14 L703.977114,-5.68434189e-14 L668.375218,227.214014 L389.941522,173.388266 L389.605655,175.046762 L668.207285,229.023283 L614.468574,570.221236 L614.468574,570.824326 L667.367617,603.240393 L668.879019,604.145027 Z M1.84726819,1121.74669 L0.83966736,1122.50056 L3.35866944,1124.00828 L6.88527235,1124.00828 L4.03040333,1122.34978 L1.84726819,1121.74669 Z M668.879019,602.034214 L616.483775,569.919691 L670.054553,229.324828 L1052.1032,303.354079 L668.879019,602.034214 Z" id="Shape-Copy"></path>
                    </g>
                    <g id="Group" opacity="0.6" transform="translate(100.000000, 0.000000)">
                        <path d="M1199.0899,836.794191 L1206.14234,1005.17811 L267.496398,1123.81565 L281.265444,1123.81565 L1206.31026,1006.83632 L1211.1798,1123.81565 L1213.02686,1123.81565 L1208.15732,1006.68557 L1579.08199,959.803389 L1579.08199,957.99443 L1207.98941,1004.87661 L1200.93697,836.341951 L1578.91407,736.396977 L1578.91407,734.588019 L1200.76905,834.532992 L1170.88015,114.868884 L1578.74616,139.591321 L1578.74616,137.933108 L1171.04806,113.059925 L1166.34644,2.84217094e-14 L1164.49937,2.84217094e-14 L1169.201,113.059925 L1.85455832,42.5105318 L0.00749117326,42.3597852 L382.686222,587.308623 M657.731312,979.249696 L658.067143,979.852682 M61.8002831,1123.81565 L63.9831807,1123.81565 M384.701204,587.308623 L631.368626,174.564524 L629.689474,173.810791 L383.525798,585.650411 L3.53371028,44.3194906 L1169.201,114.718137 L1199.0899,835.135978" id="Shape-Copy-2"></path>
                    </g>
                    <g id="Group" opacity="0.6" transform="translate(294.000000, 0.000000)">
                        <path d="M689.355112,670.635658 L798.845863,1124.00828 L800.86103,1124.00828 L690.866488,669.278706 L785.411415,583.790753 L1385.42745,985.297667 L1385.42745,983.186854 L786.922791,582.433801 L1265.86086,149.264681 L1385.42745,329.588478 L1385.42745,326.271485 L1267.20431,148.058502 L1338.23895,83.8294572 L1385.42745,50.2072109 L1385.42745,47.9456248 L1349.65823,73.4261613 L1385.42745,41.1608666 L1385.42745,38.7485081 L1337.06344,82.623278 L1260.31915,137.353661 L1169.13284,-6.38390809e-14 L1166.94974,-6.38390809e-14 L1258.63985,138.409068 L709.002992,530.266549 L3.1906814,57.5950587 L88.6673567,-8.52651283e-14 L85.4766753,-8.52651283e-14 L1.0075836,56.9919691 L1.13686838e-13,57.7458312 L707.491617,531.472728 L663.325869,562.833388 L688.85132,668.675617 L689.355112,670.635658 Z M185.563313,1124.00828 L188.250202,1124.00828 L185.563313,1124.00828 Z M1325.47622,92.8758015 L1266.19672,146.550778 L1261.1588,138.861385 L1325.47622,92.8758015 Z M1259.64743,139.916792 L1264.85328,147.756957 L785.411415,581.378394 L710.682298,531.321956 L1259.64743,139.916792 Z M665.508967,563.436478 L709.170923,532.377362 L784.235901,582.584573 L690.698557,667.167893 L665.508967,563.436478 Z" id="Shape-Copy-3"></path>
                    </g>
                    <g id="Group" opacity="0.6" transform="translate(260.000000, 0.000000)">
                        <path d="M449.641001,228.872511 L719.454744,262.494757 L693.598293,602.486531 L693.598293,603.08962 L1364.52282,951.826193 L1355.95997,970.521972 L564.987635,1124.00828 L574.054183,1124.00828 L1354.95258,972.482013 L1285.77818,1124.00828 L1287.79297,1124.00828 L1357.30316,972.029696 L1390.71507,965.546482 L1419.42581,980.47295 L1419.42581,978.512909 L1393.56936,965.094165 L1419.42581,960.118676 L1419.42581,958.309407 L1391.05087,963.737213 L1366.87341,951.072331 L1419.42581,835.731441 L1419.42581,831.208269 L1365.19442,950.167697 L695.613082,602.184986 L721.469533,262.796302 L1419.42581,349.641207 L1419.42581,347.982711 L721.469533,261.137806 L741.449517,-5.68434189e-14 L739.434729,-5.68434189e-14 L719.622643,260.836261 L449.137303,227.214014 L448.465707,227.063242 L449.641001,228.872511 Z M0.00739418908,1124.00828 L2.02218257,1124.00828 L0.00739418908,1124.00828 Z M1358.14266,970.069654 L1366.03391,952.730828 L1388.19659,964.340303 L1358.14266,970.069654 Z" id="Shape-Copy-4"></path>
                    </g>
                    <g id="Group" opacity="0.6" transform="translate(62.000000, 0.000000)">
                        <path d="M725.813035,1031.98398 L726.316955,1032.4363 L1012.87957,935.48964 L1074.86175,1124.40746 L1076.87743,1124.40746 L1014.72727,934.88655 L1261.48019,851.358638 L1295.57879,1124.40746 L1297.42649,1124.40746 L1263.15992,850.604776 L1617.58378,730.589941 L1617.58378,728.780672 L1262.99195,848.795507 L1200.50585,349.588073 L1460.69663,133.681989 L1617.58378,132.626583 L1617.58378,130.968086 L1462.88029,132.023493 L1617.58378,3.56540375 L1617.58378,1.30381767 L1460.02474,132.023493 L1173.6301,133.832762 L1157.00074,0.248410838 L1155.15303,0.248410838 L1171.7824,133.832762 L1.84770733,141.371382 L0,141.371382 L725.813035,1031.98398 Z M1457.84109,133.832762 L1200.33787,347.47726 L1173.79808,135.642031 L1457.84109,133.832762 Z M3.52744127,143.180651 L1171.7824,135.642031 L1198.49017,348.984984 L901.681179,595.196321 L901.177259,595.497866 L1012.20767,933.680371 L726.988849,1030.17471 L3.52744127,143.180651 Z M1014.05538,933.228054 L903.528886,596.100956 L1198.82611,351.095798 L1261.14424,849.549369 L1014.05538,933.228054 Z" id="Shape-Copy-5"></path>
                    </g>
                    <g id="Group" opacity="0.6" transform="translate(254.000000, 0.000000)">
                        <polyline id="Shape-Copy-6" points="829.426993 615.799724 1404.26574 944.427239 1339.44314 1123.81565 1341.45836 1123.81565 1405.94509 945.331719 1425.76132 956.637711 1425.76132 954.678006 1406.61682 943.673506 1425.76132 890.761462 1425.76132 885.183839 1404.93748 942.769027 830.770466 614.593752 1272.9412 150.445073 1425.76132 346.114117 1425.76132 343.099185 1274.28468 149.088354 1416.18907 2.84217094e-14 1413.67006 2.84217094e-14 1273.10914 147.580889 1157.73835 2.84217094e-14 1155.38727 2.84217094e-14 1271.76566 148.937608 829.091124 613.538526 3.52661811 141.852519 185.567286 2.84217094e-14 182.544471 2.84217094e-14 1.34347357 141.249533 0.335868391 142.003266 827.747651 614.895245"></polyline>
                        <path d="M342.921628,1123.81565 L345.440641,1123.81565" id="Shape"></path>
                    </g>
                    <g id="Group" opacity="0.6" transform="translate(344.000000, 0.000000)">
                        <path d="M347.255407,284.356756 L609.33496,299.433997 L611.350957,636.711867 L611.350957,637.314956 L992.038307,802.561512 L1041.09422,1036.56029 L708.95879,1124.00828 L715.846779,1124.00828 L1041.43022,1038.21878 L1059.40619,1124.00828 L1061.42219,1124.00828 L1043.27822,1037.76646 L1335.59772,960.721765 L1335.59772,958.912496 L1042.94222,1035.9572 L994.222304,803.315374 L1335.59772,951.524649 L1335.59772,949.564607 L993.718304,801.204561 L891.910478,315.566644 L1335.59772,341.04718 L1335.59772,339.237911 L891.574479,313.757375 L825.718591,-5.68434189e-14 L823.702595,-5.68434189e-14 L889.558482,313.757375 L611.350957,297.7755 L609.67096,-5.68434189e-14 L607.822963,-5.68434189e-14 L609.50296,297.7755 L346.751408,282.69826 L346.07941,282.69826 L347.255407,284.356756 Z M0.50399914,1124.00828 L2.5199957,1124.00828 L0.50399914,1124.00828 Z M613.198954,636.108777 L611.182957,299.584769 L889.894482,315.566644 L991.534308,800.450699 L613.198954,636.108777 Z" id="Shape-Copy-7"></path>
                    </g>
                    <g id="Group" opacity="0.6" transform="translate(34.000000, 0.000000)">
                        <polygon id="Shape-Copy-8" points="442.718444 -5.68434189e-14 440.03123 -5.68434189e-14 185.41774 225.555518 186.761346 226.761697"></polygon>
                        <path d="M790.376706,1081.79201 L790.880558,1082.24432 L1077.90856,962.229489 L1145.59276,1124.00828 L1147.60817,1124.00828 L1079.58807,961.6264 L1645.91834,724.913724 L1645.91834,722.953682 L1078.91627,959.967903 L939.852963,627.967067 L1447.56839,139.313702 L1645.91834,356.878283 L1645.91834,354.16438 L1449.9197,139.012158 L1645.91834,124.839551 L1645.91834,123.181055 L1449.5838,137.353661 L1592.17407,-5.68434189e-14 L1589.48686,-5.68434189e-14 L1447.73634,136.599799 L1323.28476,-5.68434189e-14 L1320.76549,-5.68434189e-14 L1446.05683,137.504433 L2.18336107,241.386621 L0.335901702,241.537393 M4.19877128,243.045117 L1444.71322,139.464475 L938.173455,627.062433 L937.837553,627.51475 L1077.23676,960.721765 L791.384411,1080.13351" id="Shape-Copy-9"></path>
                    </g>
                    <g id="Group" opacity="0.6" transform="translate(219.000000, 0.000000)">
                        <polygon id="Shape-Copy-10" points="1460.75962 980.47295 1421.63812 1124.00828 1423.65296 1124.00828 1460.75962 987.710026"></polygon>
                        <path d="M826.924265,700.790139 L1422.81345,912.77614 L1460.75962,931.019601 L1460.75962,929.05956 L1438.26056,918.203947 L1460.75962,926.194885 L1460.75962,924.385616 L1423.65296,911.117644 L872.258184,645.305894 L1399.81068,-5.68434189e-14 L1397.46003,-5.68434189e-14 L870.57915,644.401259 L733.066262,578.061401 L683.702662,-5.68434189e-14 L681.687821,-5.68434189e-14 L731.051422,577.156767 L1.67903404,225.404746 L0.839517021,226.91247 L731.219325,579.116808 L738.942882,668.977161 L738.942882,669.580251 L825.077328,700.187049 L826.924265,700.790139 Z M478.692605,1124.00828 L481.043253,1124.00828 L478.692605,1124.00828 Z M826.252652,698.679325 L740.789819,668.223299 L733.234166,580.021442 L869.403827,645.758211 L826.252652,698.679325 Z M828.099589,699.433187 L871.250764,646.662845 L1408.20585,905.689837 L828.099589,699.433187 Z" id="Shape-Copy-11"></path>
                    </g>
                    <g id="Group" opacity="0.6" transform="translate(13.000000, 0.000000)">
                        <path d="M511.360385,811.758629 L664.180729,339.841001 L1201.23508,334.413195 L1412.83248,1046.51126 L1183.60197,1123.85751 L1188.97587,1123.85751 L1413.33629,1048.16976 L1435.8395,1123.85751 L1437.85472,1123.85751 L1415.18357,1047.56667 L1665.90969,962.983351 L1665.90969,961.174083 L1414.67976,1045.90817 L1203.08236,334.563967 L1665.90969,329.890022 L1665.90969,328.231526 L1202.57856,332.90547 L1158.4118,184.243879 L1661.20753,114.134711 L1665.90969,119.864062 L1665.90969,116.999386 L1662.0472,112.325442 L1157.908,182.585383 L1103.66517,-5.68434189e-14 L1101.64996,-5.68434189e-14 L1156.06072,182.886927 L2.35108223,343.610311 L0.503803335,343.911856 L509.177237,812.361719 L511.360385,811.758629 Z M847.565143,1124.00828 L850.252094,1124.00828 L847.565143,1124.00828 Z M408.248635,1124.00828 L410.263849,1124.00828 L408.248635,1124.00828 Z M663.341057,338.182505 L662.669319,338.182505 L509.848975,810.401677 L4.53423001,345.118035 L1156.56452,184.545424 L1200.73128,332.90547 L663.341057,338.182505 Z" id="Shape-Copy-12"></path>
                    </g>
                    <g id="Group" opacity="0.6" transform="translate(192.000000, 0.000000)">
                        <path d="M1487.59038,908.953696 L1487.59038,907.144428 L1281.40968,824.822694 L1487.59038,721.392824 L1487.59038,719.432783 L1279.22699,823.91806 L811.290826,636.960278 L1253.03465,143.180651 L1487.59038,364.363769 L1487.59038,361.800638 L1254.20995,141.672927 L1380.63834,0.248410838 L1378.11985,0.248410838 L1252.69885,140.315975 L1104.27561,0.399183243 L1101.58922,0.399183243 L1251.52355,141.823699 L809.443931,636.055643 L3.69379101,314.156558 L312.964839,0.399183243 L310.446345,0.399183243 L1.51109632,313.855013 L0.671598366,314.759648 L808.268633,637.563367 L789.631779,658.520732 L957.027672,985.696851 L680.497044,1124.40746 L684.358735,1124.40746 L957.69927,987.204575 L1027.8813,1124.40746 L1030.06399,1124.40746 L959.378266,986.29994 L1279.39489,825.727329 L1487.59038,908.953696 Z M958.706667,984.792216 L791.814473,658.671504 L810.115529,638.166457 L1277.21219,824.822694 L958.706667,984.792216 Z" id="Shape-Copy-13"></path>
                    </g>
                    <g id="Group" opacity="0.6" transform="translate(491.000000, 0.000000)">
                        <polygon id="Shape-Copy-14" points="1188.34004 968.56193 812.186455 1124.00828 816.722474 1124.00828 1188.34004 970.371199"></polygon>
                        <path d="M176.135773,397.285287 L417.888793,378.589509 L471.985021,703.202497 L471.985021,703.805587 L569.425432,731.246165 L295.752278,1124.00828 L297.936287,1124.00828 L571.44144,731.54771 L1188.34004,904.785203 L1188.34004,902.975934 L572.617445,730.039985 L840.410574,345.871897 L1188.34004,318.883637 L1188.34004,317.22514 L841.75458,344.062628 L1081.49159,-5.68434189e-14 L1079.30758,-5.68434189e-14 L839.234569,344.213401 L419.400799,376.629468 L356.568534,-5.68434189e-14 L354.552526,-5.68434189e-14 L417.384791,376.78024 L175.29577,395.626791 L174.623767,395.626791 L176.135773,397.285287 Z M0.0710308955,1124.00828 L2.0870394,1124.00828 L0.0710308955,1124.00828 Z M570.769437,729.587668 L474.001029,702.448635 L419.7368,378.438737 L837.890564,346.02267 L570.769437,729.587668 Z" id="Shape-Copy-15"></path>
                    </g>
                    <g id="Group" opacity="0.6" transform="translate(4.000000, 0.000000)">
                        <path d="M4.70102904,447.040181 L1138.82429,212.589091 L1210.68287,398.039149 L989.902401,686.315988 L991.413446,687.220622 L1211.35445,399.999191 L1397.38088,880.510846 L987.048205,1124.00828 L990.573976,1124.00828 L1398.05246,882.320115 L1491.56936,1124.00828 L1493.58408,1124.00828 L1399.7314,881.264708 L1675.58107,717.525876 L1675.58107,715.415062 L1399.05982,879.606211 L1212.86549,398.340694 L1395.86984,159.517205 L1640.99492,108.857676 L1675.58107,145.344599 L1675.58107,142.630695 L1642.17018,107.349952 L1641.83439,106.897635 L1397.54878,157.406391 L1518.09659,-5.68434189e-14 L1515.74608,-5.68434189e-14 L1394.69458,158.009481 L1140.16744,210.62905 L1058.571,-5.68434189e-14 L1056.55628,-5.68434189e-14 L1138.3206,210.930595 L2.35051452,445.834002 L0.503681683,446.135547 L4.70102904,447.040181 Z M844.842076,1124.00828 L847.696272,1124.00828 L844.842076,1124.00828 Z M1140.83901,212.287546 L1393.18354,160.120294 L1212.02602,396.380653 L1140.83901,212.287546 Z" id="Shape-Copy-16"></path>
                    </g>
                    <g id="Group" opacity="0.6" transform="translate(172.000000, 0.000000)">
                        <polygon id="Shape-Copy-17" points="941.089041 707.574897 1507.75729 890.612597 1507.75729 888.803328 942.096451 706.067173 1258.42326 166.603508 1507.75729 369.543165 1507.75729 367.281579 1259.26277 165.095784 1356.14205 -5.68434189e-14 1353.95933 -5.68434189e-14 1257.75165 163.889604 1056.43751 -5.68434189e-14 1053.58318 -5.68434189e-14 1256.91214 165.397328 940.249532 705.464083 3.86173915 403.165411 349.907147 -5.68434189e-14 347.556524 -5.68434189e-14 1.67901702 403.165411 0.839508511 404.070046 939.410024 707.12258 889.039513 792.912078 823.557849 686.46676 821.878832 687.220622 888.032103 794.721347 694.945145 1124.00828 697.127868 1124.00828 889.039513 796.530616 1090.35365 1124.00828 1092.53638 1124.00828 890.214825 794.721347"></polygon>
                    </g>
                    <g id="Group" opacity="0.6" transform="translate(555.000000, 0.000000)">
                        <path d="M108.384032,452.769533 L336.932926,419.599603 L416.026628,735.467792 L416.194555,736.070882 L843.233378,825.478918 L957.255934,1060.83464 L829.799203,1124.15905 L833.829456,1124.15905 L958.09557,1062.34237 L987.986608,1124.15905 L990.001734,1124.15905 L959.606914,1061.43773 L1124.00763,979.719088 L1124.00763,977.759047 L958.935206,1059.93001 L845.584358,825.931235 L1124.00763,884.280156 L1124.00763,882.470887 L844.576795,823.971194 L628.286586,377.232558 L1124.00763,305.163348 L1124.00763,303.354079 L627.44695,375.574061 L445.581812,-5.68434189e-14 L443.566686,-5.68434189e-14 L625.599751,375.875606 L338.44427,417.639562 L233.825636,-5.68434189e-14 L231.81051,-5.68434189e-14 L336.429144,417.941107 L107.376469,451.261808 L106.70476,451.412581 L108.384032,452.769533 Z M0.0709998082,1124.00828 L2.08612599,1124.00828 L0.0709998082,1124.00828 Z M417.7059,734.563158 L338.780125,419.298059 L626.271459,377.534102 L842.225815,823.368104 L417.7059,734.563158 Z" id="Shape-Copy-18"></path>
                    </g>
                    <g id="Group" opacity="0.6">
                        <path d="M4.03059079,549.113099 L1359.48469,174.142128 L1007.47976,715.113517 L1007.14387,715.565835 L1231.34549,1024.80004 L1088.5954,1124.00828 L1091.78628,1124.00828 L1232.35314,1026.30776 L1303.22436,1124.00828 L1305.57553,1124.00828 L1234.03255,1025.25235 L1679.41283,715.26429 L1679.41283,713.153476 L1232.85696,1023.74463 L1009.32711,715.565835 L1362.00381,173.539038 L1388.20265,166.301963 L1679.24489,369.84471 L1679.24489,367.733896 L1390.38588,165.698873 L1614.75544,103.580642 L1679.24489,162.231108 L1679.24489,159.818749 L1615.76308,101.922146 L1615.4272,101.620601 L1388.70647,164.341922 L1374.5994,154.390943 L1475.02829,-5.68434189e-14 L1472.84505,-5.68434189e-14 L1373.08793,153.335536 L1153.92456,-5.68434189e-14 L1150.73367,-5.68434189e-14 L1372.08028,154.692488 L1360.82822,171.880542 L1.67941283,548.057693 L0,548.51001 L4.03059079,549.113099 Z M825.263465,1124.00828 L828.454349,1124.00828 L825.263465,1124.00828 Z M1373.59175,155.898667 L1386.52323,164.945011 L1363.51528,171.277452 L1373.59175,155.898667 Z" id="Shape-Copy-19"></path>
                    </g>
                    <g id="Group" opacity="0.6" transform="translate(158.000000, 0.000000)">
                        <path d="M1521.08504,871.916819 L1483.81342,862.719702 L1521.08504,867.996736 L1521.08504,866.187467 L1467.69596,858.648847 L969.397907,734.71393 L1325.49298,-5.68434189e-14 L1323.4783,-5.68434189e-14 L967.551115,734.261613 L801.339835,692.949974 L566.965142,-5.68434189e-14 L564.95046,-5.68434189e-14 L799.157263,692.497657 L3.35780363,494.533489 L372.212532,-5.68434189e-14 L369.862069,-5.68434189e-14 L1.00734109,494.533489 L0.335780363,495.588896 L799.828823,694.457698 L825.348131,770.145445 L942.199697,786.579637 L778.674661,1124.00828 L780.689343,1124.00828 L944.046489,786.881182 L1467.36018,860.307343 L1521.08504,873.726088 L1521.08504,871.916819 Z M943.039148,784.921141 L826.859143,768.637721 L802.011396,695.060788 L966.879554,736.070882 L943.039148,784.921141 Z M945.05383,785.222686 L968.726346,736.372427 L1451.24273,856.387261 L945.05383,785.222686 Z" id="Shape-Copy-20"></path>
                    </g>
                    <g id="Group" opacity="0.6" transform="translate(7.000000, 0.000000)">
                        <polyline id="Shape-Copy-21" points="657.00746 508.166676 1160.84754 400.382881 1548.63645 1062.91404 1444.84539 1123.81565 1448.37227 1123.81565 1549.47618 1064.42151 1584.24115 1123.81565 1586.42446 1123.81565 1551.15565 1063.51703 1672.74906 992.213901 1672.74906 990.103449 1550.31592 1062.00956 1162.69495 400.081388 1672.74906 290.940873 1672.74906 289.131915 1161.85522 398.423175 1087.79073 272.097553 1578.36301 99.9449736 1672.74906 173.961538 1672.74906 171.700339 1578.86685 97.8345217 1086.95099 270.590087 928.409315 2.84217094e-14 926.226008 2.84217094e-14 1085.10358 271.193073 0.839733461 651.828154 1.51152023 653.486366 1085.94331 272.700539 1159.83986 398.875415 655.327993 506.809957"></polyline>
                        <path d="M606.287559,1123.81565 L608.302919,1123.81565" id="Shape"></path>
                    </g>
                    <g id="Group" opacity="0.6" transform="translate(7.000000, 0.000000)">
                        <path d="M1672.74906,859.255429 L1672.74906,857.44647 L1528.14695,831.668807 L1672.74906,714.689472 L1672.74906,712.428273 L1525.7957,831.216568 L1018.42874,740.617881 L1331.48138,166.574956 L1672.74906,370.9873 L1672.74906,368.876848 L1332.32111,165.218237 L1422.50848,2.84217094e-14 L1420.32518,2.84217094e-14 L1330.80959,164.163011 L1056.55264,2.84217094e-14 L1053.02576,2.84217094e-14 L1329.96986,165.821223 L1016.58133,740.316388 L150.480236,585.801157 L526.344934,2.84217094e-14 L523.99368,2.84217094e-14 L148.128983,585.951904 L147.457196,587.00713 L1015.57365,741.9746 L1014.39802,744.235799 L1266.15011,1041.35728 L1164.20647,1123.81565 L1167.06156,1123.81565 L1267.32574,1042.714 L1336.01594,1123.81565 L1338.36719,1123.81565 L1268.66931,1041.50803 L1526.29954,833.176273 L1672.74906,859.255429 Z M1267.66163,1040.15131 L1016.74928,743.934306 L1017.58901,742.276094 L1524.11623,832.724033 L1267.66163,1040.15131 Z" id="Shape-Copy-22"></path>
                        <path d="M783.639266,1123.81565 L787.166147,1123.81565" id="Shape"></path>
                        <path d="M1.84741362,651.9789 L0.671786769,653.335619" id="Shape"></path>
                    </g>
                    <g id="Group" opacity="0.6" transform="translate(651.000000, 0.000000)">
                        <path d="M18.1430999,563.738023 L217.381215,506.746054 L343.878939,801.958423 L344.046931,802.41074 L472.05658,811.758629 L350.598606,1124.00828 L352.614506,1124.00828 L474.07248,811.909401 L1028.10899,852.617951 L1028.10899,850.959454 L474.744447,810.401677 L639.880254,385.826585 L1028.10899,274.707322 L1028.10899,272.898053 L640.720212,383.866543 L789.896811,-5.68434189e-14 L787.880911,-5.68434189e-14 L638.368329,384.318861 L218.557157,504.63524 L2.35188332,-5.68434189e-14 L0.335983331,-5.68434189e-14 L216.709248,505.087557 L16.9671582,562.381071 L16.2951915,562.531843 L18.1430999,563.738023 Z M14.2792916,1124.00828 L16.1271999,1124.00828 L14.2792916,1124.00828 Z M472.896538,810.100133 L345.558856,800.752243 L219.397115,506.142964 L637.864354,386.278902 L472.896538,810.100133 Z" id="Shape-Copy-23"></path>
                    </g>
                    <g id="Group" opacity="0.6" transform="translate(22.000000, 0.000000)">
                        <polyline id="Shape-Copy-24" points="4.19938639 754.938805 1051.69433 303.905078 1463.23419 895.434605 1219.50181 1123.81565 1222.02144 1123.81565 1464.24205 896.942071 1579.30523 1062.31105 1489.27039 1123.81565 1492.46192 1123.81565 1580.31309 1063.81852 1622.13897 1123.81565 1624.32265 1123.81565 1581.82486 1062.76329 1657.91775 1010.75573 1657.91775 1008.64528 1580.81701 1061.25583 1465.58585 895.736098 1657.91775 715.593951 1657.91775 713.182006 1464.578 894.228633 1053.37408 303.151345 1533.78388 96.327056 1657.91775 180.44364 1657.91775 178.333188 1534.45579 94.6688438 1533.95186 94.2166041 1052.36623 301.64388 842.396909 2.84217094e-14 840.213229 2.84217094e-14 1050.5185 302.397612 1.67975456 754.034326 0 754.788059"></polyline>
                        <path d="M716.583293,1123.81565 L720.446729,1123.81565" id="Shape"></path>
                    </g>
                    <g id="Group" opacity="0.6" transform="translate(158.000000, 0.000000)">
                        <path d="M1005.99797,791.555127 L1521.08504,848.547096 L1521.08504,846.888599 L1006.50164,790.047403 L1183.12211,197.813395 L1521.08504,368.940075 L1521.08504,366.980034 L1183.45789,196.004127 L1241.88367,-5.68434189e-14 L1239.86899,-5.68434189e-14 L1181.77899,195.099492 L1147.3615,177.609893 L1226.77355,-5.68434189e-14 L1224.75887,-5.68434189e-14 L1145.85049,176.856031 L796.8068,-5.68434189e-14 L792.945326,-5.68434189e-14 L1145.01104,178.363755 L881.255561,768.939266 L881.087671,769.391583 L888.306949,776.779431 L3.35780363,678.92814 L372.548312,-5.68434189e-14 L370.36574,-5.68434189e-14 L0.335780363,680.435864 L889.985851,778.739472 L980.310768,870.861412 L904.760187,1124.00828 L906.774869,1124.00828 L981.82178,872.369136 L1228.45246,1124.00828 L1230.97081,1124.00828 L982.493341,870.409095 L1005.99797,791.555127 Z M883.270244,769.090038 L1146.85783,179.26839 L1181.44321,196.757989 L1004.48695,789.745858 L890.993192,777.231748 L883.270244,769.090038 Z M980.982329,868.901371 L893.007874,779.041017 L1004.15117,791.253582 L980.982329,868.901371 Z" id="Shape-Copy-25"></path>
                    </g>
                    <g id="Group" opacity="0.6" transform="translate(574.000000, 0.000000)">
                        <polyline id="Shape-Copy-26" points="103.999944 617.457936 288.85581 550.526461 437.445675 834.080753 437.781471 834.532992 1105.34453 839.055389 1105.34453 837.24643 438.956758 832.87478 290.534791 549.772728 1105.34453 254.761697 1105.34453 252.952739 289.695301 548.265262 2.25366352 5.68434189e-14 0.0709875348 5.68434189e-14 288.016319 548.868249 102.656759 616.101217 101.985166 616.251964"></polyline>
                        <path d="M141.105436,1123.81565 L142.952315,1123.81565" id="Shape"></path>
                        <polygon id="Shape" points="1105.34453 1030.80502 988.319514 1123.81565 991.173782 1123.81565 1105.34453 1033.06622"></polygon>
                    </g>
                    <g id="Group" opacity="0.6" transform="translate(46.000000, 0.000000)">
                        <path d="M4.5339991,855.331854 L1010.24217,338.031732 L1124.5997,477.948524 L1011.92143,795.927527 L1011.7535,796.379844 L1315.69937,1063.54855 L1260.28383,1123.85751 L1262.80271,1123.85751 L1317.04278,1064.75472 L1384.38106,1123.85751 L1387.06787,1123.85751 L1318.21826,1063.39777 L1468.84778,899.357396 L1633.91894,1101.54319 L1633.91894,1098.67852 L1470.02327,898.000445 L1633.91894,719.485917 L1633.91894,716.772014 L1468.84778,896.643493 L1126.61481,477.646979 L1213.09665,233.546455 L1479.76297,96.3435669 L1633.91894,185.450058 L1633.91894,183.339245 L1479.93089,94.2327532 L1214.1042,231.134097 L1295.88411,-5.68434189e-14 L1293.869,-5.68434189e-14 L1211.58532,232.340276 L1010.74595,335.619374 L736.690892,-5.68434189e-14 L734.339929,-5.68434189e-14 L1009.06669,336.524008 L2.01511071,854.577992 L0.503777678,855.331854 L4.5339991,855.331854 Z M618.303137,1124.00828 L622.66921,1124.00828 L618.303137,1124.00828 Z M1011.92143,337.127098 L1210.74569,234.752635 L1125.27141,475.83771 L1011.92143,337.127098 Z M1316.87485,1062.34237 L1013.76861,795.927527 L1125.94311,479.607021 L1467.6723,898.000445 L1316.87485,1062.34237 Z" id="Shape-Copy-27"></path>
                    </g>
                    <g id="Group" opacity="0.6" transform="translate(168.000000, 0.000000)">
                        <polygon id="Shape" points="1511.58908 10.403296 1509.23772 -5.68434189e-14 1507.22227 -5.68434189e-14 1511.58908 18.8465506"></polygon>
                        <path d="M1511.58908,836.636076 L1019.14695,814.92485 L1146.62429,213.192181 L1511.58908,367.432351 L1511.58908,365.47231 L1146.9602,211.382912 L1191.63606,-6.38390809e-14 L1189.62061,-6.38390809e-14 L1144.94475,210.62905 L646.624218,-6.38390809e-14 L642.089451,-6.38390809e-14 L1144.60884,212.438319 L1016.96354,814.92485 L825.999455,806.481595 L339.939589,28.9483018 L353.040027,-8.52651283e-14 L351.024575,-8.52651283e-14 L338.763908,26.9882605 L321.80052,-6.38390809e-14 L319.617113,-6.38390809e-14 L337.756182,29.0990742 L0.839771711,770.748535 L0.335908685,771.803942 L824.991729,808.140091 L861.437822,866.489012 L863.117365,865.584378 L827.175136,808.140091 L1016.62763,816.432574 L951.461349,1123.85751 L953.476801,1123.85751 L1018.47513,816.583346 L1511.58908,838.294572 L1511.58908,836.636076 Z M3.1911325,770.296218 L339.099817,31.0591155 L823.984003,806.481595 L3.1911325,770.296218 Z" id="Shape-Copy-28"></path>
                    </g>
                    <g id="Group" opacity="0.6" transform="translate(687.000000, 0.000000)">
                        <polygon id="Shape-Copy-29" points="992.111387 186.925742 806.615096 96.327056 805.775746 97.8345217 992.111387 188.885448"></polygon>
                        <polyline id="Shape-Copy-30" points="5.03609841 671.123714 450.730808 473.645712 797.046509 837.547924 343.126172 865.134545 343.294042 866.792757 798.557338 839.206136 992.111387 1042.56325 992.111387 1040.00056 800.907517 839.055389 992.111387 827.447904 992.111387 825.789691 799.396688 837.397177 452.577377 472.891979 992.111387 233.807925 992.111387 231.998966 451.234418 471.53526 2.51804921 2.84217094e-14 -3.41060513e-13 2.84217094e-14 449.387848 472.288993 3.52526889 669.766995 2.8537891 670.068488"></polyline>
                        <path d="M72.855557,1123.81565 L74.8699964,1123.81565" id="Shape"></path>
                        <polygon id="Shape" points="992.111387 1059.74836 922.445359 1123.81565 925.131278 1123.81565 992.111387 1062.16031"></polygon>
                    </g>
                    <g id="Group" opacity="0.6" transform="translate(186.000000, 0.000000)">
                        <path d="M44.0643155,862.418157 L920.740389,842.214655 L1219.4584,1068.97635 L1176.30465,1123.85751 L1178.65543,1123.85751 L1220.96962,1070.03176 L1291.82909,1123.85751 L1294.85154,1123.85751 L1222.14502,1068.67481 L1409.3685,830.906725 L1493.49314,828.946683 L1493.49314,827.288187 L1410.71181,829.248228 L1493.49314,724.159862 L1493.49314,721.144414 L1408.36102,829.248228 L921.579957,840.405386 L893.538412,818.995705 L1042.30972,258.574675 L1095.20245,226.610925 L1493.66105,363.663041 L1493.66105,361.853772 L1097.21742,225.555518 L1308.28461,97.8512909 L1307.27713,96.4943393 L1095.03454,224.801656 L1055.07114,211.081367 L1110.65049,-5.68434189e-14 L1108.63553,-5.68434189e-14 L1052.88827,210.327505 L441.179603,-5.68434189e-14 L435.806373,-5.68434189e-14 L1052.38453,211.986002 L1040.29476,257.519268 L43.3926617,860.608888 L3.09343593,861.513523 L322.968541,-5.68434189e-14 L320.953579,-5.68434189e-14 L0.40682088,863.322792 L40.3702198,862.418157 L44.0643155,862.418157 Z M366.122295,1124.00828 L371.327611,1124.00828 L366.122295,1124.00828 Z M1054.23157,212.589091 L1092.85167,225.857063 L1042.81346,256.162316 L1054.23157,212.589091 Z M47.0867574,860.608888 L1039.62311,260.082399 L891.187624,819.297249 L891.01971,819.749567 L918.389601,840.556158 L47.0867574,860.608888 Z M1220.46588,1067.6194 L923.594918,842.214655 L1406.8498,831.057497 L1220.46588,1067.6194 Z" id="Shape-Copy-31"></path>
                    </g>
                    <g id="Group" opacity="0.6" transform="translate(391.000000, 0.000000)">
                        <polygon id="Shape-Copy-32" points="1288.60004 137.202889 1244.58267 -5.68434189e-14 1242.56661 -5.68434189e-14 1288.60004 143.384557"></polygon>
                        <path d="M1288.60004,815.527939 L814.489309,876.138446 L871.107069,428.947493 L1288.60004,208.669009 L1288.60004,206.708967 L871.275074,426.836679 L925.372755,-5.68434189e-14 L923.524698,-5.68434189e-14 L869.259011,427.892086 L471.758659,637.616501 L2.68808353,-5.68434189e-14 L0.336010441,-5.68434189e-14 L470.078607,638.370363 L315.177794,720.089007 L316.185825,721.596731 L471.254644,639.878087 L660.428522,897.09581 L660.764533,897.548128 L812.305241,878.24926 L781.224276,1124.15905 L783.072333,1124.15905 L814.321304,878.098487 L1288.60004,817.186436 L1288.60004,815.527939 Z M812.473247,876.289218 L661.604559,895.588086 L472.766691,638.973453 L868.923001,430.002899 L812.473247,876.289218 Z" id="Shape-Copy-33"></path>
                    </g>
                    <path d="M802,1124 L804,1124" id="Shape"></path>
                    <path d="M707,721 L705,721.6" id="Shape-Copy-34"></path>
                    <polyline id="Shape-Copy-35" points="1028.53633 406.780952 1567.74221 894.827632 1414.69031 1124 1416.87197 1124 1569.2526 896.033803 1678 994.487458 1678 992.075117 1570.25952 894.52609 1678 733.200805 1678 729.883836 1568.74913 893.169148 1030.04671 405.725553 1462.35121 99.9613682 1678 187.710262 1678 185.750235 1462.68685 98.1521127 1462.18339 97.8505701 1028.70415 404.519383 613.517301 28.9480885 639.865052 0 637.347751 0 611.50346 28.4957746 611 29.0988598 1027.19377 405.574782"></polyline>
                    <polygon id="Shape" points="1678 31.5949367 1663.92 0 1662 0 1678 36"></polygon>
                    <polygon id="Shape" points="1680 1099 1656 1124 1658.58993 1124 1680 1101.72727"></polygon>
                    <g id="Group" opacity="0.6" transform="translate(478.000000, 0.000000)">
                        <path d="M662.364707,869.956777 L753.929915,929.66265 L745.361428,1123.85751 L747.209533,1123.85751 L755.610011,930.868829 L1051.30683,1123.85751 L1054.49901,1123.85751 L755.778021,928.908788 L758.802193,861.36275 L1201.84339,821.709608 L1201.84339,820.051111 L758.802193,859.704254 L785.683722,247.417517 L1201.84339,358.989097 L1201.84339,357.179828 L785.851731,245.608248 L796.604343,-1.13686838e-13 L794.756238,-1.13686838e-13 L784.003626,245.155931 L733.09673,231.586414 L774.595091,1.48694469e-14 L772.578976,1.48694469e-14 L731.080616,230.983325 L1.41511109,35.2807428 L0.40705375,34.979198 L662.364707,869.956777 Z M1.7511302,37.2407841 L730.744597,232.641821 L621.202366,842.666972 L621.034356,843.119289 L659.844564,868.449053 L1.7511302,37.2407841 Z M623.38649,842.365427 L732.760711,233.094138 L783.835616,246.814427 L756.954087,859.704254 L662.868736,868.147509 L623.38649,842.365427 Z M753.929915,927.702609 L665.220869,869.806005 L756.786078,861.664295 L753.929915,927.702609 Z" id="Shape-Copy-36"></path>
                    </g>
                    <g id="Group" opacity="0.6" transform="translate(279.000000, 0.000000)">
                        <polygon id="Shape-Copy-37" points="1400.25891 105.221103 1339.98398 2.84217094e-14 1337.80132 2.84217094e-14 1400.25891 108.989768"></polygon>
                        <polyline id="Shape-Copy-38" points="450.970675 771.370181 587.974424 686.198371 794.487429 927.392877 794.823222 927.845117 1400.25891 808.604583 1400.25891 806.946371 795.494809 925.885412 589.485495 685.143145 1390.1851 187.679475 1400.25891 212.251166 1400.25891 207.276529 1391.69617 186.624249 1400.25891 181.34812 1400.25891 179.237668 1391.02459 184.966037 1314.79946 8.52651283e-14 1312.7847 8.52651283e-14 1389.34562 186.021263 588.310218 683.786426 3.02214153 8.52651283e-14 0.671587007 8.52651283e-14 586.799147 684.841652 448.788017 770.616448"></polyline>
                        <path d="M561.446738,1123.81565 L563.461499,1123.81565" id="Shape"></path>
                    </g>
                    <g id="Group" opacity="0.6" transform="translate(187.000000, 0.000000)">
                        <path d="M834.45995,441.913919 L965.279894,544.13761 L934.548123,864.679743 L1309.71084,1074.25339 L1281.83393,1124.00828 L1284.01706,1124.00828 L1311.39017,1075.15802 L1398.71542,1124.00828 L1402.40995,1124.00828 L1312.22983,1073.6503 L1412.98974,893.628045 L1492.92593,955.897048 L1492.92593,953.635462 L1413.99734,891.969549 L1492.92593,750.99735 L1492.92593,747.22804 L1412.48594,890.914142 L967.295092,543.383748 L989.126405,314.963554 L1247.07176,103.42987 L1492.758,184.545424 L1492.758,182.736155 L1247.2397,101.620601 L1246.7359,101.469829 L989.462271,312.551196 L1019.52231,-5.68434189e-14 L1017.67504,-5.68434189e-14 L987.447073,314.209692 L834.45995,439.652333 L383.89524,88.0510846 L453.251641,-5.68434189e-14 L450.900577,-5.68434189e-14 L381.880041,87.5987674 L381.376242,88.201857 L833.116485,440.70774 L834.45995,441.913919 Z M0,1124.00828 L2.85486399,1124.00828 L0,1124.00828 Z M835.971349,440.858513 L987.27914,316.772823 L965.61576,542.026796 L835.971349,440.858513 Z M1310.5505,1072.74566 L936.563321,863.775109 L967.127159,545.494562 L1411.64627,892.421866 L1310.5505,1072.74566 Z" id="Shape-Copy-39"></path>
                    </g>
                    <g id="Group" opacity="0.6" transform="translate(247.000000, 0.000000)">
                        <polygon id="Shape-Copy-40" points="1432.92886 253.749958 1303.64019 -5.68434189e-14 1301.6253 -5.68434189e-14 1432.92886 257.971585"></polygon>
                        <path d="M1015.84698,882.470887 L1025.08188,1124.00828 L1026.92886,1124.00828 L1017.69396,882.169342 L1432.92886,816.583346 L1432.92886,814.774077 L1017.69396,880.360073 L994.354833,266.113295 L1432.92886,352.9582 L1432.92886,351.148931 L994.186926,264.304026 L984.112484,-5.68434189e-14 L982.265503,-5.68434189e-14 L992.339945,264.002481 L199.145574,107.048408 L198.13813,106.897635 M0.343258884,1041.53577 L0.00744416306,1042.74195 M199.817203,108.857676 L992.339945,265.660978 L1015.67907,880.661618" id="Shape-Copy-41"></path>
                    </g>
                    <g id="Group" opacity="0.6" transform="translate(149.000000, 0.000000)">
                        <path d="M604.541984,819.749567 L726.659801,731.095392 L950.234511,956.349366 L950.570461,956.801683 L1400.91141,836.485303 L1530.25215,923.028664 L1530.25215,920.91785 L1403.26306,835.882214 L1530.25215,801.958423 L1530.25215,800.149154 L1401.24736,834.525262 L975.934684,550.017734 L1526.05277,150.47086 L1530.25215,156.652529 L1530.25215,153.335536 L1527.56455,149.415453 L1530.25215,147.455412 L1530.25215,145.193826 L1526.5567,147.907729 L1425.93968,-5.68434189e-14 L1423.756,-5.68434189e-14 L1525.2129,148.963136 L974.422909,548.962327 L378.951574,150.621633 L481.584292,-5.68434189e-14 L479.400618,-5.68434189e-14 L376.935875,150.47086 L376.43195,151.07395 L972.743159,550.017734 L726.827776,728.683034 L3.35949977,-5.68434189e-14 L0.839874943,-5.68434189e-14 L725.316001,729.889213 L602.694259,818.844932 L602.190334,819.297249 L604.541984,819.749567 Z M726.323851,1124.00828 L728.339551,1124.00828 L726.323851,1124.00828 Z M951.074386,954.690869 L728.003601,730.039985 L974.254934,551.073141 L1398.89571,835.128352 L951.074386,954.690869 Z" id="Shape-Copy-42"></path>
                    </g>
                    <g id="Group" opacity="0.6" transform="translate(289.000000, 0.000000)">
                        <path d="M863.683995,347.530394 L856.293467,883.978611 L856.293467,884.430928 L1252.02266,1070.93639 L1227.66751,1123.85751 L1229.6831,1123.85751 L1253.70232,1071.69026 L1364.39228,1123.85751 L1368.59144,1123.85751 L1254.54215,1070.03176 L1390.93099,773.763983 L1390.93099,769.240811 L1252.86249,1069.12712 L858.309065,883.526294 L865.699593,345.721125 L927.511283,287.070659 L1390.76303,346.625759 L1390.76303,344.967263 L929.022982,285.562935 L1115.12992,108.857676 L1390.76303,179.871479 L1390.76303,178.06221 L1115.12992,107.048408 L1114.62602,106.897635 L926.671451,285.26139 L866.539426,277.571998 L870.402657,0.150772405 L868.387058,0.150772405 L864.523828,277.421225 L126.478811,182.43461 L125.471012,182.283838 L863.683995,347.530394 Z M42.9994365,1124.00828 L45.6869013,1124.00828 L42.9994365,1124.00828 Z M127.318644,184.093107 L864.691794,278.928949 L863.851961,344.967263 L127.318644,184.093107 Z M0.167966549,1124.00828 L2.01559859,1124.00828 L0.167966549,1124.00828 Z M866.539426,279.230494 L925.159752,286.769114 L865.699593,343.157994 L866.539426,279.230494 Z" id="Shape-Copy-43"></path>
                    </g>
                    <g id="Group" opacity="0.6" transform="translate(55.000000, 0.000000)">
                        <polygon id="Shape-Copy-44" points="1624.24751 281.944398 1451.57673 -5.68434189e-14 1449.39315 -5.68434189e-14 1624.24751 285.562935"></polygon>
                        <path d="M1624.24751,812.964808 L1624.24751,811.155539 L1487.68978,842.214655 L1624.24751,795.625982 L1624.24751,793.816713 L1471.56489,845.833193 L1238.42574,898.754307 L1129.24675,-5.68434189e-14 L1127.3991,-5.68434189e-14 L1236.5781,899.206624 L1031.99346,945.644525 L4.53512749,51.1118453 L559.500358,-5.68434189e-14 L540.687978,-5.68434189e-14 L2.35154759,49.6041213 L0.33593537,49.7548937 L1029.64191,946.247614 L246.912497,1124.00828 L254.63901,1124.00828 L1031.15362,947.604566 L1072.47367,983.639171 L1239.60151,926.647202 L1263.62089,1124.00828 L1265.46854,1124.00828 L1241.44916,926.044112 L1471.90082,847.491689 L1624.24751,812.964808 Z M1072.97757,981.67913 L1033.3372,947.152249 L1236.5781,901.015893 L1239.43355,924.988705 L1072.97757,981.67913 Z M1241.44916,924.234843 L1238.59371,900.563576 L1455.94389,851.260999 L1241.44916,924.234843 Z" id="Shape-Copy-45"></path>
                    </g>
                    <g id="Group" opacity="0.6" transform="translate(457.000000, 0.000000)">
                        <path d="M325.964197,866.33824 L668.320014,577.910629 L1221.83445,893.778817 L1221.83445,891.818776 L669.831889,576.70445 L1162.03137,162.080335 L1202.01208,169.618956 L1221.83445,194.34563 L1221.83445,191.330182 L1204.86784,170.071273 L1221.83445,173.237493 L1221.83445,171.428225 L1203.18798,167.960459 L1183.70159,143.686102 L1221.66646,111.57158 L1221.66646,109.159221 L1182.52568,142.178378 L1068.96703,-5.68434189e-14 L1066.61523,-5.68434189e-14 L1181.18179,143.53533 L1161.35943,160.271067 L915.595658,114.134711 L555.601293,511.419998 L36.5240239,215.152222 L161.505735,-5.68434189e-14 L159.321915,-5.68434189e-14 L34.3402037,215.00145 L34.0042313,215.755312 L554.257404,512.77695 L325.964197,866.33824 Z M451.953825,1124.00828 L453.969659,1124.00828 L451.953825,1124.00828 Z M555.937265,513.681584 L666.640152,576.855222 L324.116349,865.433605 L323.612391,865.885922 L555.937265,513.681584 Z M0.406997092,1124.00828 L2.92678966,1124.00828 L0.406997092,1124.00828 Z M1182.3577,144.892281 L1200.33222,167.508142 L1163.71123,160.572611 L1182.3577,144.892281 Z M557.113169,512.324633 L916.267603,115.94398 L1159.67956,161.628018 L668.152028,575.649043 L557.113169,512.324633 Z" id="Shape-Copy-46"></path>
                    </g>
                    <g id="Group" opacity="0.6" transform="translate(341.000000, 0.000000)">
                        <path d="M53.2349106,259.328537 L788.951451,304.258713 L830.095152,901.920527 L830.095152,902.372845 L912.550486,934.638139 L281.456499,1124.00828 L287.502104,1124.00828 L915.237422,935.844318 L1243.88323,1064.60395 L1222.21981,1124.00828 L1224.23501,1124.00828 L1245.56256,1065.35781 L1338.42977,1101.69396 L1338.42977,1099.8847 L1246.2343,1063.69932 L1338.42977,811.004767 L1338.42977,805.426188 L1337.75804,807.386229 L915.405356,933.884277 L831.94242,901.166665 L790.966653,304.409486 L1338.42977,337.88096 L1338.42977,336.222463 L790.798719,302.750989 L769.974969,-5.68434189e-14 L768.127701,-5.68434189e-14 L788.951451,302.600217 L52.5631767,257.67004 L51.5555759,257.67004 L53.2349106,259.328537 Z M0.671733888,1124.00828 L2.51900208,1124.00828 L0.671733888,1124.00828 Z M1244.38703,1062.94546 L917.924358,935.090456 L1336.91837,809.497043 L1244.38703,1062.94546 Z" id="Shape-Copy-47"></path>
                    </g>
                    <g id="Group" opacity="0.6" transform="translate(17.000000, 0.000000)">
                        <path d="M888.494487,819.146477 L1139.97196,1008.36585 L1140.47593,1008.66739 L1310.47941,937.352043 L1348.78059,1123.85751 L1350.79644,1123.85751 L1312.32727,936.59818 L1662.2455,789.89663 L1662.2455,787.936589 L1311.99129,934.788912 L1221.27798,493.779627 L1560.27701,162.532653 L1662.07751,302.901762 L1662.07751,299.735541 L1561.62091,161.326473 L1662.07751,63.1736377 L1662.07751,60.6105069 L1560.445,159.818749 L1444.53353,-5.68434189e-14 L1442.18171,-5.68434189e-14 L1559.10109,161.024929 L1220.77401,491.819585 L1119.64546,-5.68434189e-14 L1117.7976,-5.68434189e-14 L1219.26212,493.327309 L888.326499,816.734118 L4.37560407,151.375495 L968.120622,-5.68434189e-14 L957.033438,-5.68434189e-14 L2.02377729,150.018543 L0.00792576378,150.320088 L886.982598,817.940298 L888.494487,819.146477 Z M922.092012,1124.00828 L924.275851,1124.00828 L922.092012,1124.00828 Z M1140.64392,1006.70735 L889.6704,817.789525 L1219.5981,495.438123 L1310.14343,935.693546 L1140.64392,1006.70735 Z" id="Shape-Copy-48"></path>
                    </g>
                    <g id="Group" opacity="0.6" transform="translate(462.000000, 0.000000)">
                        <path d="M552.876045,549.866961 L689.079712,615.302185 L735.26468,919.862444 L737.112078,919.560899 L691.263002,616.20682 L1217.09985,869.202915 L1146.73075,1123.70674 L1148.7461,1123.70674 L1217.93957,873.87686 L1217.93957,866.941329 L1217.77163,867.695191 L690.759166,614.397551 L660.193115,412.362528 L884.232193,124.990324 L1158.31898,157.858708 L1217.60368,221.484663 L1217.60368,218.619987 L1161.17405,158.009481 L1217.60368,164.794239 L1217.60368,163.135742 L1159.32665,156.200212 L1013.88599,-5.68434189e-14 L1011.36681,-5.68434189e-14 L1156.47158,155.747894 L883.896302,123.181055 L883.392466,123.181055 L659.857224,409.799397 L597.885395,-5.68434189e-14 L596.037996,-5.68434189e-14 L658.345716,411.910211 L552.372209,547.756148 L2.51918004,283.150577 L140.234355,-5.68434189e-14 L138.219011,-5.68434189e-14 L0.671781343,283.150577 L0.335890671,283.904439 L551.532482,549.113099 L552.876045,549.866961 Z M102.950491,1124.00828 L105.301725,1124.00828 L102.950491,1124.00828 Z M554.051663,548.51001 L658.681607,414.322569 L688.743822,613.342144 L554.051663,548.51001 Z" id="Shape-Copy-49"></path>
                    </g>
                </g>
            </g>
        </g>
    </g>
</svg>