<?xml version="1.0" encoding="UTF-8"?>
<svg width="20px" height="18px" viewBox="0 0 20 18" version="1.1" xmlns="http://www.w3.org/2000/svg" xmlns:xlink="http://www.w3.org/1999/xlink">
    <!-- Generator: Sketch 51.3 (57544) - http://www.bohemiancoding.com/sketch -->
    <title>Icon | Camera</title>
    <desc>Created with Sketch.</desc>
    <defs></defs>
    <g id="App" stroke="none" stroke-width="1" fill="none" fill-rule="evenodd">
        <g id="Traçar-Perfil" transform="translate(-56.000000, -92.000000)" fill="#FFFFFF">
            <g id="Group-2" transform="translate(23.000000, 74.000000)">
                <g id="Sua-foto">
                    <g id="Group-4" transform="translate(23.000000, 18.000000)">
                        <g id="Icon-|-Camera" transform="translate(10.000000, 0.000000)">
                            <g id="Group-3">
                                <path d="M10,5.6 C7.5699471,5.6 5.6,7.5699471 5.6,10 C5.6,12.4300529 7.5699471,14.4 10,14.4 C12.4300529,14.4 14.4,12.4300529 14.4,10 C14.3972835,7.5710732 12.4289268,5.6027165 10,5.6 Z M10,13.3714223 C8.13801487,13.3714223 6.62857769,11.8619851 6.62857769,10 C6.62857769,8.13801487 8.13801487,6.62857769 10,6.62857769 C11.8619851,6.62857769 13.3714223,8.13801487 13.3714223,10 C13.3693353,11.86112 11.86112,13.3693353 10,13.3714223 Z" id="Shape" fill-rule="nonzero"></path>
                                <path d="M16.8000177,5.6 C16.4764515,5.59999759 16.1847445,5.7949076 16.06092,6.09384328 C15.9370955,6.39277897 16.0055387,6.73686965 16.2343345,6.96566547 C16.4631304,7.19446129 16.807221,7.26290451 17.1061567,7.13907999 C17.4050924,7.01525547 17.6000024,6.7235485 17.6,6.39998235 C17.5999934,5.95816702 17.241833,5.60000658 16.8000177,5.6 Z" id="Shape" fill-rule="nonzero"></path>
                                <path d="M17.6447356,3.06458264 L15.9037778,3.06458264 C15.2643867,3.06458264 14.6967467,2.38769109 14.5374178,1.76057021 L14.4759467,1.51809681 C14.2487185,0.6239395 13.4647999,0.000249533846 12.5678444,0 L7.43215556,0 C6.53535344,0.000374157225 5.75159318,0.623921602 5.52426444,1.51788842 L5.46237556,1.76078089 C5.30324889,2.3877804 4.73560889,3.06458264 4.09621778,3.06458264 L2.35526444,3.06458264 C1.05512375,3.06605787 0.0014916865,4.15177121 0,5.49156081 L0,15.1729096 C0.00144880056,16.5127357 1.0550884,17.598507 2.35526444,17.6 L17.6447356,17.6 C18.9449116,17.598507 19.9985512,16.5127357 20,15.1729096 L20,5.49156081 C19.9985083,4.15177121 18.9448762,3.06605787 17.6447356,3.06458264 Z M18.9473733,15.1729096 C18.9465675,15.9139297 18.3638263,16.5144359 17.6447356,16.5152588 L2.35526444,16.5152588 C1.63617367,16.5144359 1.05343251,15.9139297 1.05262667,15.1729096 L1.05262667,5.49156081 C1.05343628,4.7505579 1.63619029,4.15008144 2.35526444,4.14930782 L4.09622222,4.14930782 C5.29647333,4.14930782 6.22081556,3.06002555 6.48066667,2.03535767 L6.54255778,1.79256367 C6.64853617,1.3757099 7.01398141,1.0849362 7.43215111,1.08474122 L12.5678444,1.08474122 C12.9861303,1.08482731 13.3517088,1.37568631 13.4576422,1.79267588 L13.5191244,2.03536683 C13.7796089,3.06013776 14.7037356,4.14931698 15.9037911,4.14931698 L17.6447444,4.14931698 C18.3638186,4.1500906 18.9465726,4.75056706 18.9473822,5.49156997 L18.9473733,15.1729096 Z" id="Shape" fill-rule="nonzero"></path>
                            </g>
                        </g>
                    </g>
                </g>
            </g>
        </g>
    </g>
</svg>