<?xml version="1.0" encoding="UTF-8"?>
<svg width="19px" height="18px" viewBox="0 0 19 18" version="1.1" xmlns="http://www.w3.org/2000/svg" xmlns:xlink="http://www.w3.org/1999/xlink">
    <!-- Generator: Sketch 51.3 (57544) - http://www.bohemiancoding.com/sketch -->
    <title>Shape</title>
    <desc>Created with Sketch.</desc>
    <defs></defs>
    <g id="Symbols" stroke="none" stroke-width="1" fill="none" fill-rule="evenodd">
        <g id="Botão-Comentário" transform="translate(-11.000000, -11.000000)" fill="#FFFFFF" fill-rule="nonzero">
            <g id="Shape">
                <path d="M12.4436198,27.9929307 L15.1434227,27.4144015 C16.6433132,28.4428978 18.4217548,29 20.2644774,29 C20.5216014,29 20.7787255,28.978573 21.0572766,28.957146 C25.4283861,28.5714599 28.9424152,24.9931497 29.2423933,20.6006132 C29.4138094,18.0507994 28.5353021,15.6081206 26.7782875,13.765398 C25.0426999,11.9655294 22.6000211,10.95846 20.0716343,11.0013141 C15.4434008,11.0870221 11.5865395,14.7724673 11.2865614,19.3792738 C11.1794264,20.8577373 11.4579775,22.3362008 12.0579337,23.6861022 L11.0722913,26.4501862 C10.9223023,26.8572993 11.0080103,27.3072664 11.3079884,27.6286715 C11.5865395,27.9500767 12.0365066,28.0786387 12.4436198,27.9929307 Z M13.000722,19.5078359 C13.236419,15.7795366 16.3647621,12.8011826 20.1144883,12.7154746 C22.150054,12.6726206 24.1213386,13.4868469 25.5355211,14.9653104 C26.9711306,16.4652009 27.6782218,18.4150585 27.5282328,20.4934782 C27.2925357,24.0503614 24.4427437,26.9430073 20.9072876,27.2644124 C19.150273,27.4144015 17.3932584,26.9215803 15.9576489,25.893084 C15.7433789,25.7430949 15.5076818,25.6573869 15.2505577,25.6573869 C15.1648497,25.6573869 15.0791416,25.6573869 14.9934336,25.6788139 L12.979295,26.107354 L13.7078132,24.0289344 C13.8149482,23.7289563 13.7935212,23.4075512 13.6649592,23.1290001 C13.150711,22.0147957 12.9150139,20.7506023 13.000722,19.5078359 Z"></path>
            </g>
        </g>
    </g>
</svg>