<?xml version="1.0" encoding="UTF-8"?>
<svg width="42px" height="55px" viewBox="0 0 42 55" version="1.1" xmlns="http://www.w3.org/2000/svg" xmlns:xlink="http://www.w3.org/1999/xlink">
    <!-- Generator: Sketch 51.3 (57544) - http://www.bohemiancoding.com/sketch -->
    <title>Shape</title>
    <desc>Created with Sketch.</desc>
    <defs>
        <linearGradient x1="0%" y1="1.72254642e-14%" x2="100%" y2="100%" id="linearGradient-1">
            <stop stop-color="#0072FF" offset="0%"></stop>
            <stop stop-color="#00C6FF" offset="100%"></stop>
        </linearGradient>
    </defs>
    <g id="App" stroke="none" stroke-width="1" fill="none" fill-rule="evenodd">
        <g id="Histórico" transform="translate(-53.000000, -412.000000)" fill="url(#linearGradient-1)" fill-rule="nonzero">
            <g id="Hemograma" transform="translate(0.000000, 364.000000)">
                <g id="Group-7" transform="translate(53.000000, 29.000000)">
                    <path d="M39.600733,22.2109803 L28.086406,22.2109803 C26.1836406,20.2359322 23.5163076,19 20.563916,19 C17.6115245,19 14.9441915,20.2359322 13.041426,22.2109803 L1.52709907,22.2109803 C0.684140382,22.2109803 0,22.8951207 0,23.7380794 L0,72.4729009 C0,73.3158596 0.684140382,74 1.52709907,74 L39.600733,74 C40.4436917,74 41.1278321,73.3158596 41.1278321,72.4729009 L41.1278321,23.7380794 C41.1278321,22.8951207 40.4436917,22.2109803 39.600733,22.2109803 Z M20.563916,22.0541981 C24.6443247,22.0541981 27.9652562,25.3741115 27.9652562,29.4545202 C27.9652562,33.5369651 24.6443247,36.8568784 20.563916,36.8568784 C16.4835073,36.8568784 13.1625759,33.535947 13.1625759,29.4545202 C13.1625759,25.3741115 16.4835073,22.0541981 20.563916,22.0541981 Z M38.0736339,70.9458019 L3.05419813,70.9458019 L3.05419813,25.2651784 L10.9920591,25.2651784 C10.4270324,26.5489597 10.1093958,27.9640715 10.1093958,29.4535021 C10.1093958,35.2198282 14.7996261,39.9100585 20.5649341,39.9100585 C26.3302421,39.9100585 31.0204724,35.2198282 31.0204724,29.4535021 C31.0204724,27.9640715 30.7028358,26.5479417 30.1378091,25.2651784 L38.0756701,25.2651784 L38.0756701,70.9458019 L38.0736339,70.9458019 Z M12.6922294,52.0515141 L10.3038464,54.4398971 L9.11881756,53.2548682 C8.52223086,52.6582815 7.55608618,52.6582815 6.95949948,53.2548682 C6.36291278,53.8514549 6.36291278,54.8175996 6.95949948,55.4141863 L9.22469643,57.6793832 C9.52298978,57.9776766 9.91494521,58.1263142 10.3048645,58.1263142 C10.6968199,58.1263142 11.0867392,57.9776766 11.3850326,57.6793832 L14.8525655,54.2118503 C15.4491522,53.6152636 15.4491522,52.6491189 14.8525655,52.0525322 C14.2559788,51.4559455 13.2888161,51.4549274 12.6922294,52.0515141 Z M12.6922294,43.4122057 L10.3038464,45.8026248 L9.11881756,44.6186139 C8.52223086,44.0220272 7.55608618,44.0220272 6.95949948,44.6186139 C6.36291278,45.2152007 6.36291278,46.1813453 6.95949948,46.777932 L9.22469643,49.043129 C9.51077299,49.3292055 9.89865615,49.49006 10.3048645,49.49006 C10.7110729,49.49006 11.097938,49.3292055 11.3850326,49.043129 L14.8525655,45.5715238 C15.4491522,44.9749371 15.4491522,44.0077743 14.8525655,43.4122057 C14.2549608,42.815619 13.2888161,42.815619 12.6922294,43.4122057 Z M14.4453391,59.9639234 C13.8487524,59.3673367 12.8805716,59.3673367 12.286021,59.9639234 L10.9065415,61.3434029 L9.52706205,59.9639234 C8.93047534,59.3673367 7.96433067,59.3673367 7.36774397,59.9639234 C6.77115726,60.558474 6.77115726,61.5266548 7.36774397,62.1232415 L8.74925959,63.502721 L7.36774397,64.8842366 C6.77115726,65.4808233 6.77115726,66.4490041 7.36774397,67.0435547 C7.66603732,67.3418481 8.05799274,67.4904857 8.44791204,67.4904857 C8.83986747,67.4904857 9.23182289,67.3418481 9.52808011,67.0435547 L10.9075596,65.6640752 L12.2870391,67.0435547 C12.5853324,67.3418481 12.9772879,67.4904857 13.3672072,67.4904857 C13.7591626,67.4904857 14.1490819,67.3418481 14.4473752,67.0435547 C15.0439619,66.4490041 15.0439619,65.4808233 14.4473752,64.8842366 L13.0678958,63.502721 L14.4473752,62.1232415 C15.0419258,61.5266548 15.0419258,60.558474 14.4453391,59.9639234 Z M33.0912187,61.9756219 L19.8339627,61.9756219 C18.991004,61.9756219 18.3068636,62.6597623 18.3068636,63.502721 C18.3068636,64.3456797 18.991004,65.0298201 19.8339627,65.0298201 L33.0902007,65.0298201 C33.9331593,65.0298201 34.6172997,64.3456797 34.6172997,63.502721 C34.6172997,62.6597623 33.9341774,61.9756219 33.0912187,61.9756219 Z M18.3068636,46.2271583 C18.3068636,47.0711351 18.991004,47.7542574 19.8339627,47.7542574 L33.0902007,47.7542574 C33.9331593,47.7542574 34.6172997,47.070117 34.6172997,46.2271583 C34.6172997,45.3841996 33.9331593,44.7000592 33.0902007,44.7000592 L19.8339627,44.7000592 C18.991004,44.7000592 18.3068636,45.3841996 18.3068636,46.2271583 Z M33.0912187,53.3383496 L19.8339627,53.3383496 C18.991004,53.3383496 18.3068636,54.02249 18.3068636,54.8654487 C18.3068636,55.7084074 18.991004,56.3925478 19.8339627,56.3925478 L33.0902007,56.3925478 C33.9331593,56.3925478 34.6172997,55.7084074 34.6172997,54.8654487 C34.6172997,54.02249 33.9341774,53.3383496 33.0912187,53.3383496 Z M19.036817,30.9744928 L19.036817,33.875981 C19.036817,34.7189397 19.7209574,35.4030801 20.563916,35.4030801 C21.4068747,35.4030801 22.0910151,34.7189397 22.0910151,33.875981 L22.0910151,30.9744928 L24.9904672,30.9744928 C25.8334259,30.9744928 26.5175663,30.2903524 26.5175663,29.4473938 C26.5175663,28.6044351 25.8334259,27.9202947 24.9904672,27.9202947 L22.0910151,27.9202947 L22.0910151,25.0330594 C22.0910151,24.1901007 21.4068747,23.5059603 20.563916,23.5059603 C19.7209574,23.5059603 19.036817,24.1901007 19.036817,25.0330594 L19.036817,27.9202947 L16.1455094,27.9202947 C15.3025507,27.9202947 14.6184103,28.6044351 14.6184103,29.4473938 C14.6184103,30.2903524 15.3025507,30.9744928 16.1455094,30.9744928 L19.036817,30.9744928 Z" id="Shape"></path>
                </g>
            </g>
        </g>
    </g>
</svg>