<?xml version="1.0" encoding="UTF-8"?>
<svg width="25px" height="25px" viewBox="0 0 25 25" version="1.1" xmlns="http://www.w3.org/2000/svg" xmlns:xlink="http://www.w3.org/1999/xlink">
    <!-- Generator: Sketch 51.3 (57544) - http://www.bohemiancoding.com/sketch -->
    <title>Icon | Settings</title>
    <desc>Created with Sketch.</desc>
    <defs></defs>
    <g id="App" stroke="none" stroke-width="1" fill="none" fill-rule="evenodd">
        <g id="Dashboard-|-Menu-Latera" transform="translate(-25.000000, -279.000000)" fill="#FFFFFF" fill-rule="nonzero">
            <g id="Menu-Lateral-|-Circ" transform="translate(-420.000000, -165.000000)">
                <g id="Nav" transform="translate(417.000000, 310.000000)">
                    <g id="Programas-Copy" transform="translate(28.000000, 134.000000)">
                        <g id="Icon-|-Settings">
                            <path d="M12.5,0 C11.87815,0 11.2653828,0.0425705833 10.6684028,0.130208333 C10.3446279,0.179484089 10.079725,0.413821273 9.99131944,0.729166667 L9.31423611,3.06423611 C8.88990806,3.2081625 8.47755278,3.37966083 8.08159722,3.57638889 L5.94618056,2.39583333 C5.66003303,2.24299519 5.31119964,2.27008904 5.05208333,2.46527778 C4.56809556,2.825355 4.10305611,3.22333472 3.66319444,3.66319444 C3.22333556,4.10305472 2.825355,4.56809333 2.46527778,5.05208333 C2.27008904,5.31119964 2.24299519,5.66003303 2.39583333,5.94618056 L3.57638889,8.08159722 C3.37966083,8.47755306 3.2081625,8.88990806 3.06423611,9.31423611 L0.729166667,9.99131944 C0.413821273,10.079725 0.179484089,10.3446279 0.130208333,10.6684028 C0.0425687222,11.2653853 0,11.8781514 0,12.5 C0,13.1218486 0.0425687222,13.7346147 0.130208333,14.3315972 C0.179484089,14.6553721 0.413821273,14.920275 0.729166667,15.0086806 L3.06423611,15.6857639 C3.20816278,16.1100919 3.37966111,16.5224472 3.57638889,16.9184028 L2.39583333,19.0538194 C2.24299519,19.339967 2.27008904,19.6888004 2.46527778,19.9479167 C2.8253525,20.4318997 3.22333278,20.8969439 3.66319444,21.3368056 C4.1030575,21.7766686 4.56809556,22.1746458 5.05208333,22.5347222 C5.31119964,22.729911 5.66003303,22.7570048 5.94618056,22.6041667 L8.08159722,21.4236111 C8.47755278,21.6203389 8.88990806,21.7918372 9.31423611,21.9357639 L9.99131944,24.2708333 C10.079725,24.5861787 10.3446279,24.8205159 10.6684028,24.8697917 C11.2653853,24.9574314 11.8781514,25 12.5,25 C13.1218486,25 13.7346147,24.9574314 14.3315972,24.8697917 C14.6553721,24.8205159 14.920275,24.5861787 15.0086806,24.2708333 L15.6857639,21.9357639 C16.1100919,21.7918372 16.5224472,21.6203389 16.9184028,21.4236111 L19.0538194,22.6041667 C19.339967,22.7570048 19.6888004,22.729911 19.9479167,22.5347222 C20.4319033,22.1746469 20.8969428,21.7766714 21.3368056,21.3368056 C21.7766672,20.8969439 22.1746475,20.4318997 22.5347222,19.9479167 C22.729911,19.6888004 22.7570048,19.339967 22.6041667,19.0538194 L21.4236111,16.9184028 C21.6203389,16.5224472 21.7918372,16.1100919 21.9357639,15.6857639 L24.2708333,15.0086806 C24.5861787,14.920275 24.8205159,14.6553721 24.8697917,14.3315972 C24.9574275,13.73462 25,13.1218514 25,12.5 C25,11.8781486 24.9574275,11.26538 24.8697917,10.6684028 C24.8205159,10.3446279 24.5861787,10.079725 24.2708333,9.99131944 L21.9357639,9.31423611 C21.7918375,8.88990806 21.6203392,8.47755306 21.4236111,8.08159722 L22.6041667,5.94618056 C22.7570048,5.66003303 22.729911,5.31119964 22.5347222,5.05208333 C22.174645,4.56809333 21.7766644,4.10305472 21.3368056,3.66319444 C20.8969439,3.22333472 20.4319044,2.825355 19.9479167,2.46527778 C19.6888004,2.27008904 19.339967,2.24299519 19.0538194,2.39583333 L16.9184028,3.57638889 C16.5224472,3.37966083 16.1100919,3.2081625 15.6857639,3.06423611 L15.0086806,0.729166667 C14.920275,0.413821273 14.6553721,0.179484089 14.3315972,0.130208333 C13.7346172,0.0425705833 13.12185,0 12.5,0 Z M12.5,1.66666667 C12.8655086,1.66666667 13.2203075,1.70924694 13.5763889,1.74479167 L14.2013889,3.90625 C14.2804358,4.18344765 14.4971079,4.40011975 14.7743056,4.47916667 C15.4025967,4.65693472 16.0020283,4.91214444 16.5625,5.22569444 C16.8136402,5.36472246 17.1186515,5.36472246 17.3697917,5.22569444 L19.3489583,4.140625 C19.6247192,4.36647833 19.9077544,4.57789444 20.1649306,4.83506944 C20.422105,5.09224444 20.6335219,5.37528111 20.859375,5.65104167 L19.7743056,7.63020833 C19.6352775,7.88134849 19.6352775,8.18635985 19.7743056,8.4375 C20.087855,8.99797056 20.3430653,9.59740389 20.5208333,10.2256944 C20.5998802,10.5028921 20.8165524,10.7195642 21.09375,10.7986111 L23.2552083,11.4236111 C23.2907531,11.7796936 23.3333333,12.1344922 23.3333333,12.5 C23.3333333,12.8655078 23.2907531,13.2203064 23.2552083,13.5763889 L21.09375,14.2013889 C20.8165524,14.2804358 20.5998802,14.4971079 20.5208333,14.7743056 C20.3430656,15.4025964 20.0878556,16.0020281 19.7743056,16.5625 C19.6352775,16.8136402 19.6352775,17.1186515 19.7743056,17.3697917 L20.859375,19.3489583 C20.6335211,19.6247203 20.4221031,19.9077581 20.1649306,20.1649306 C19.9077589,20.4221039 19.6247194,20.6335225 19.3489583,20.859375 L17.3697917,19.7743056 C17.1186515,19.6352775 16.8136402,19.6352775 16.5625,19.7743056 C16.0020281,20.0878556 15.4025964,20.3430656 14.7743056,20.5208333 C14.4971079,20.5998802 14.2804358,20.8165524 14.2013889,21.09375 L13.5763889,23.2552083 C13.2203083,23.2907528 12.8655094,23.3333333 12.5,23.3333333 C12.1344906,23.3333333 11.7796917,23.2907528 11.4236111,23.2552083 L10.7986111,21.09375 C10.7195642,20.8165524 10.5028921,20.5998802 10.2256944,20.5208333 C9.59740361,20.3430656 8.99797194,20.0878556 8.4375,19.7743056 C8.18635985,19.6352775 7.88134849,19.6352775 7.63020833,19.7743056 L5.65104167,20.859375 C5.37528139,20.6335225 5.09224472,20.4221058 4.83506944,20.1649306 C4.57789694,19.9077581 4.36647889,19.6247203 4.140625,19.3489583 L5.22569444,17.3697917 C5.36472246,17.1186515 5.36472246,16.8136402 5.22569444,16.5625 C4.91214444,16.0020281 4.65693444,15.4025964 4.47916667,14.7743056 C4.40011975,14.4971079 4.18344765,14.2804358 3.90625,14.2013889 L1.74479167,13.5763889 C1.70924722,13.2203083 1.66666667,12.8655094 1.66666667,12.5 C1.66666667,12.1344906 1.70924722,11.7796917 1.74479167,11.4236111 L3.90625,10.7986111 C4.18344765,10.7195642 4.40011975,10.5028921 4.47916667,10.2256944 C4.65693472,9.59740389 4.912145,8.99797056 5.22569444,8.4375 C5.36472246,8.18635985 5.36472246,7.88134849 5.22569444,7.63020833 L4.140625,5.65104167 C4.36647806,5.37528111 4.577895,5.09224444 4.83506944,4.83506944 C5.09224556,4.57789444 5.37528083,4.36647833 5.65104167,4.140625 L7.63020833,5.22569444 C7.88134849,5.36472246 8.18635985,5.36472246 8.4375,5.22569444 C8.99797167,4.91214444 9.59740333,4.65693472 10.2256944,4.47916667 C10.5028921,4.40011975 10.7195642,4.18344765 10.7986111,3.90625 L11.4236111,1.74479167 C11.7796925,1.70924694 12.1344914,1.66666667 12.5,1.66666667 Z M12.5,6.66666667 C9.28820944,6.66666667 6.66666667,9.28820917 6.66666667,12.5 C6.66666667,15.7117906 9.28820944,18.3333333 12.5,18.3333333 C15.7117908,18.3333333 18.3333333,15.7117906 18.3333333,12.5 C18.3333333,9.28820917 15.7117908,6.66666667 12.5,6.66666667 Z M12.5,8.33333333 C14.8110572,8.33333333 16.6666667,10.1889428 16.6666667,12.5 C16.6666667,14.8110572 14.8110572,16.6666667 12.5,16.6666667 C10.1889428,16.6666667 8.33333333,14.8110572 8.33333333,12.5 C8.33333333,10.1889428 10.1889428,8.33333333 12.5,8.33333333 Z" id="Shape"></path>
                        </g>
                    </g>
                </g>
            </g>
        </g>
    </g>
</svg>