<?xml version="1.0" encoding="UTF-8"?>
<svg width="30px" height="27px" viewBox="0 0 30 27" version="1.1" xmlns="http://www.w3.org/2000/svg" xmlns:xlink="http://www.w3.org/1999/xlink">
    <!-- Generator: Sketch 51.3 (57544) - http://www.bohemiancoding.com/sketch -->
    <title>Icon | PreMed</title>
    <desc>Created with Sketch.</desc>
    <defs></defs>
    <g id="App" stroke="none" stroke-width="1" fill="none" fill-rule="evenodd">
        <g id="Dashboard-|-Menu-Latera" transform="translate(-20.000000, -161.000000)" fill="#FFFFFF" fill-rule="nonzero">
            <g id="Menu-Lateral-|-Circ" transform="translate(-420.000000, -165.000000)">
                <g id="Nav" transform="translate(417.000000, 310.000000)">
                    <g id="PreMed" transform="translate(23.000000, 16.000000)">
                        <g id="Icon-|-PreMed">
                            <path d="M30,13.5100817 C30,11.2530245 27.9147968,9.27205046 24.5937338,7.96980664 C25.1254265,4.44338745 24.45228,1.64781305 22.4998449,0.519284459 C21.9036294,0.174335643 21.2230379,0 20.4785441,0 C18.8189432,0 16.9111777,0.879743563 14.9990694,2.4140213 C13.086961,0.879743563 11.1798159,2.20414456e-15 9.51959466,2.20414456e-15 C8.77448041,2.20414456e-15 8.09450936,0.174335643 7.49829387,0.519284459 C5.54585875,1.64719264 4.87271223,4.44338745 5.40564575,7.97042705 C2.08396236,9.27267087 0,11.2536449 0,13.5100817 C0,15.7665185 2.08458277,17.7474925 5.40564575,19.0491159 C4.87333264,22.5767759 5.54709958,25.3723503 7.50077551,26.5014993 C8.09575018,26.8458277 8.77572123,27.0201634 9.52083549,27.0201634 C11.1798159,27.0201634 13.0882018,26.1404198 15.0003102,24.6055217 C16.9111777,26.1397994 18.8189432,27.019543 20.4785441,27.019543 C21.2230379,27.019543 21.9036294,26.8445869 22.4998449,26.5002585 C24.277324,25.4740978 25.062765,23.1028849 24.7103712,19.8258712 C24.6830731,19.5721228 24.6402647,19.3084479 24.5993175,19.0472547 C27.916658,17.7456313 30,15.7652776 30,13.5100817 Z M20.4785441,1.86247544 C20.892979,1.86247544 21.2602626,1.95305553 21.5692276,2.13173405 C22.6903112,2.7794437 23.148175,4.72257264 22.8001241,7.36924827 C21.6294075,7.03546686 20.3488781,6.77737566 18.9876952,6.60490125 C18.1575845,5.50863406 17.2927308,4.52528177 16.4148485,3.67097508 C17.9727019,2.47482163 19.4058525,1.86247544 20.4785441,1.86247544 Z M8.12490952,15.8428291 C8.34081274,16.257264 8.5647813,16.6723193 8.80488057,17.0873746 C9.04373901,17.5011891 9.28942198,17.901975 9.54068866,18.2965567 C8.83466032,18.1588254 8.16709751,17.9981388 7.54358391,17.8151174 C7.69682556,17.182918 7.89101437,16.5234205 8.12490952,15.8428291 Z M7.54234309,9.20504601 C8.16585668,9.02202461 8.83403991,8.85947679 9.54006825,8.72360666 C9.28942198,9.11756799 9.0431186,9.51897425 8.80363975,9.93278875 C8.56416089,10.3478441 8.33957192,10.7628994 8.12304829,11.1767139 C7.89101437,10.4961224 7.69682556,9.83662496 7.54234309,9.20504601 Z M9.05676766,13.5094613 C9.44948816,12.6446076 9.8980457,11.761762 10.4160893,10.8627856 C10.937235,9.96132768 11.4776135,9.13307828 12.0279185,8.36376797 C12.9721849,8.27194706 13.9642229,8.21859167 15.0003102,8.21859167 C16.0363975,8.21859167 17.0271947,8.27194706 17.9714611,8.36376797 C18.5205253,9.13307828 19.0621446,9.96132768 19.5832902,10.8634061 C20.0907869,11.7419088 20.5405853,12.6290973 20.9413711,13.5113225 C20.5486506,14.3761762 20.1013339,15.2590218 19.5832902,16.1567573 C19.0621446,17.0582153 18.5205253,17.8870851 17.9714611,18.655775 C17.0265743,18.7482163 16.0363975,18.8015717 15.0003102,18.8015717 C13.9629821,18.8015717 12.9721849,18.7482163 12.0279185,18.655775 C11.4776135,17.8870851 10.937235,17.0588357 10.4160893,16.1573777 C9.8980457,15.2584014 9.44948816,14.3749354 9.05676766,13.5094613 Z M20.4580705,8.72236584 C21.1647193,8.86071761 21.8322821,9.02078379 22.4564161,9.20380519 C22.302554,9.83538414 22.1083652,10.4936408 21.8757109,11.1736118 C21.6585668,10.7585565 21.4321166,10.3441216 21.194499,9.93278875 C20.956261,9.51897425 20.7087168,9.11694758 20.4580705,8.72236584 Z M21.194499,17.0867542 C21.4345983,16.6716989 21.6585668,16.257264 21.8744701,15.8428291 C22.1046427,16.5110123 22.3037949,17.1711302 22.4613794,17.8138765 C21.8360045,17.9975184 21.1665805,18.1600662 20.4580705,18.2965567 C20.7099576,17.9025954 20.956261,17.5005687 21.194499,17.0867542 Z M16.4204322,6.38837762 C15.9538827,6.36852445 15.4798883,6.35611622 15.0003102,6.35611622 C14.5207321,6.35611622 14.0467377,6.36852445 13.5789474,6.38837762 C14.0541826,5.84117465 14.5287974,5.34112294 15.0003102,4.89132458 C15.4705822,5.34050253 15.945197,5.84055423 16.4204322,6.38837762 Z M5.78906008,17.1984283 C3.31796091,16.1772309 1.86061421,14.8067418 1.86061421,13.5100817 C1.86061421,12.2134216 3.31796091,10.8435529 5.78906008,9.82173508 C6.08561679,11.0042395 6.5000517,12.2413401 7.03174439,13.5094613 C6.5000517,14.7782029 6.08561679,16.0153035 5.78906008,17.1984283 Z M8.430152,2.13111364 C8.73911695,1.95243512 9.10640058,1.86185503 9.52083549,1.86185503 C10.593527,1.86185503 12.0254369,2.47420122 13.5839107,3.66911385 C12.7054079,4.52466136 11.8399338,5.50801365 11.011064,6.60304002 C9.64988109,6.77551442 8.36997208,7.03360563 7.19925551,7.36800744 C6.84996381,4.72195223 7.30906835,2.77882329 8.430152,2.13111364 Z M9.52083549,25.1576879 C9.10640058,25.1576879 8.74035777,25.0671078 8.43139282,24.8878089 C7.30906835,24.2407197 6.85120463,22.2963499 7.19925551,19.6502947 C8.36997208,19.9840761 9.64926068,20.2421673 11.011064,20.4140213 C11.8405542,21.5109089 12.7060283,22.4942612 13.5839107,23.3485679 C12.0254369,24.5447213 10.593527,25.1576879 9.52083549,25.1576879 Z M14.9990694,22.1288388 C14.5287974,21.67842 14.0535622,21.1789887 13.5777065,20.6317858 C14.0454968,20.6510185 14.5201117,20.6634267 15.0003102,20.6634267 C15.4792679,20.6634267 15.9526419,20.6510185 16.4204322,20.6317858 C15.945197,21.1789887 15.4705822,21.6790404 14.9990694,22.1288388 Z M21.5679868,24.8878089 C21.2590218,25.0664874 20.8917382,25.1583083 20.4773033,25.1583083 C19.4046117,25.1583083 17.9727019,24.5459622 16.4148485,23.3510495 C17.2927308,22.4961224 18.1582049,21.5121497 18.9876952,20.4165029 C20.3507393,20.244649 21.6325096,19.9859373 22.804467,19.6515355 C22.8199773,19.7756178 22.8441733,19.904043 22.8578224,20.0262641 C23.1245993,22.4886775 22.653707,24.2611933 21.5679868,24.8878089 Z M24.2196257,17.1947058 C23.9162444,15.9960707 23.4956054,14.7564885 22.968876,13.504498 C23.4999483,12.238238 23.9131424,11.0023782 24.2096991,9.82049426 C26.6820391,10.8423121 28.1387654,12.2121807 28.1387654,13.5094613 C28.1387654,14.8048806 26.6851411,16.172888 24.2196257,17.1947058 Z M15.0003102,15.0288491 C15.839727,15.0288491 16.5184572,14.3470169 16.5184572,13.5094613 C16.5184572,12.6706649 15.8384862,11.9906938 15.0003102,11.9906938 C14.1608934,11.9906938 13.4809223,12.6719057 13.4809223,13.5094613 C13.4809223,14.3470169 14.1615138,15.0288491 15.0003102,15.0288491 Z" id="Shape"></path>
                        </g>
                    </g>
                </g>
            </g>
        </g>
    </g>
</svg>