<?xml version="1.0" encoding="UTF-8"?>
<svg width="21px" height="30px" viewBox="0 0 21 30" version="1.1" xmlns="http://www.w3.org/2000/svg" xmlns:xlink="http://www.w3.org/1999/xlink">
    <!-- Generator: Sketch 51.3 (57544) - http://www.bohemiancoding.com/sketch -->
    <title>Icon | Coaching</title>
    <desc>Created with Sketch.</desc>
    <defs></defs>
    <g id="App" stroke="none" stroke-width="1" fill="none" fill-rule="evenodd">
        <g id="Dashboard-|-Menu-Latera" transform="translate(-25.000000, -214.000000)" fill="#FFFFFF" fill-rule="nonzero">
            <g id="Menu-Lateral-|-Circ" transform="translate(-420.000000, -165.000000)">
                <g id="Nav" transform="translate(417.000000, 310.000000)">
                    <g id="Programas" transform="translate(28.000000, 69.000000)">
                        <g id="Icon-|-Coaching">
                            <path d="M7.17585775,26.1440789 C8.26842381,26.1440789 9.34061439,25.9860313 10.1655458,25.6688347 C10.5906774,25.5041788 10.8037938,25.0267318 10.6396887,24.6010496 C10.4766848,24.1753673 9.99923788,23.9633523 9.57245427,24.1269068 C8.29485686,24.6186716 6.0733793,24.6131647 4.62121363,24.115893 C4.18947382,23.9666564 3.71918581,24.1984963 3.57215197,24.6302361 C3.42511813,25.0619759 3.65475525,25.5317132 4.08649506,25.6787471 C4.99347908,25.9893354 6.09485616,26.1440789 7.17585775,26.1440789 Z M15.9224438,7.03573733 C15.8436953,6.73340932 15.8998656,6.32039292 15.9692523,5.80329638 C16.07939,4.9860746 16.2170622,3.96950356 15.9483261,2.64124281 C15.3794649,-0.176630437 13.0687758,-0.150748076 11.3803647,0.112481045 C9.39733531,0.421968003 8.12249135,1.12574795 7.58997553,2.20234404 C7.21660871,2.95733803 7.2650693,3.84174382 7.72654629,4.69200692 C7.76674655,4.76524849 7.80804819,4.8318818 7.85045121,4.89741374 C7.70727219,5.06096824 7.57841107,5.2404927 7.48479402,5.45140641 C7.11362995,6.28735161 7.21165251,7.31768986 7.74747246,8.20705185 C8.40664663,9.30182066 9.25415629,9.67078198 9.81475722,9.91418631 C10.0328299,10.0100061 10.2591629,10.1080287 10.2988124,10.2110074 C10.9056712,11.6213208 10.7872732,12.9236992 10.6512531,14.430383 C10.5548826,15.4954146 10.4601642,16.5868793 10.6193132,17.7670048 C7.18687153,16.9442762 3.82436732,17.4432 0.43322731,19.2791956 C0.0317753671,19.4967175 -0.116910538,19.9978441 0.100611434,20.3987454 C0.318133406,20.7996466 0.818709286,20.9494339 1.22016123,20.7319119 C5.37896106,18.4784944 9.49535787,18.4806972 13.803945,20.7374188 C13.9261978,20.800748 14.0572617,20.8310359 14.1861228,20.8310359 C14.4840453,20.8310359 14.7709541,20.6707855 14.9185386,20.388833 C15.1305537,19.9846276 14.9747088,19.4851531 14.5699527,19.2736887 C13.8441452,18.8942643 13.1238446,18.5776184 12.4062975,18.3121865 C12.0802899,17.0279808 12.1832686,15.8340881 12.2967105,14.5790689 C12.4404402,12.9936366 12.5880247,11.3536861 11.830828,9.59368558 C11.5593385,8.87173291 10.9579866,8.61070654 10.4739314,8.39979283 C9.99868719,8.19328463 9.54987604,7.9977902 9.16274199,7.35568737 C8.85821123,6.85125667 8.88189084,6.37601246 8.99478199,6.12214505 C9.05866186,5.97786465 9.14126514,5.91453547 9.20844914,5.88204484 C9.68369335,5.9756619 10.1468224,5.89911619 10.497611,5.83909114 C11.0130555,5.75208235 11.3467727,5.70582451 11.6870982,5.86827763 C12.0990133,6.06322137 12.5918795,5.88865311 12.7873739,5.47673808 C12.9828684,5.06482306 12.8077494,4.57195682 12.3958344,4.37646238 C11.5675988,3.9816187 10.7889252,4.11378395 10.2206147,4.21070514 C9.49811131,4.33350868 9.41110253,4.3324073 9.17871196,3.90397162 C8.97550789,3.52840204 8.93861176,3.20294511 9.0713277,2.9347598 C9.19798606,2.67758825 9.70241676,2.04760056 11.6353335,1.74527256 C13.8369863,1.39888947 14.1404157,2.03438404 14.3298525,2.9683518 C14.542969,4.02347103 14.4311792,4.85170659 14.3320553,5.58302097 C14.240641,6.26587475 14.1536322,6.91128172 14.3557349,7.5654997 C14.3656473,7.59688895 14.3772117,7.62662613 14.3898776,7.656914 C18.6824947,17.2939634 19.0107051,20.6884075 19.0051982,24.4314375 C19.0029955,25.6842539 18.0425947,26.0113629 16.0044964,26.416119 C15.2010418,26.575268 14.4438451,26.7250553 13.8243205,27.036745 C13.8210163,27.0378464 13.8177122,27.0389477 13.8149588,27.0400491 C10.372054,28.7758194 5.05240276,28.7708632 1.16454169,27.0251805 C0.748221153,26.8379464 0.259209733,27.0240791 0.0725263188,27.4403997 C-0.114157095,27.8567202 0.0719756303,28.3451809 0.488296164,28.5318644 C2.66847208,29.5104379 5.1994366,30 7.67478157,30 C10.1644444,30 12.5968357,29.5054817 14.5583883,28.5158944 C14.558939,28.5158944 14.5600403,28.5158944 14.560591,28.514793 C14.9785636,28.3027779 15.6322309,28.1739168 16.3249971,28.0362447 C18.0486522,27.6953685 20.6528583,27.179924 20.6572638,24.434191 C20.6627707,20.4901597 20.3257493,16.932161 15.9224438,7.03573733 Z" id="Shape"></path>
                        </g>
                    </g>
                </g>
            </g>
        </g>
    </g>
</svg>