<?xml version="1.0" encoding="UTF-8"?>
<svg width="30px" height="21px" viewBox="0 0 30 21" version="1.1" xmlns="http://www.w3.org/2000/svg" xmlns:xlink="http://www.w3.org/1999/xlink">
    <!-- Generator: Sketch 51.3 (57544) - http://www.bohemiancoding.com/sketch -->
    <title>Menu</title>
    <desc>Created with Sketch.</desc>
    <defs></defs>
    <g id="Symbols" stroke="none" stroke-width="1" fill="none" fill-rule="evenodd">
        <g id="Header" transform="translate(0.000000, -12.000000)" fill="#FFFFFF">
            <g id="Menu">
                <path d="M1.5,12 L23.5,12 C24.3284271,12 25,12.6715729 25,13.5 C25,14.3284271 24.3284271,15 23.5,15 L1.5,15 C0.671572875,15 1.01453063e-16,14.3284271 0,13.5 C-1.01453063e-16,12.6715729 0.671572875,12 1.5,12 Z M1.5,21 L28.5,21 C29.3284271,21 30,21.6715729 30,22.5 C30,23.3284271 29.3284271,24 28.5,24 L1.5,24 C0.671572875,24 1.01453063e-16,23.3284271 0,22.5 C-1.01453063e-16,21.6715729 0.671572875,21 1.5,21 Z M1.5,30 L23.5,30 C24.3284271,30 25,30.6715729 25,31.5 C25,32.3284271 24.3284271,33 23.5,33 L1.5,33 C0.671572875,33 1.01453063e-16,32.3284271 0,31.5 C-1.01453063e-16,30.6715729 0.671572875,30 1.5,30 Z"></path>
            </g>
        </g>
    </g>
</svg>