<?xml version="1.0" encoding="UTF-8"?>
<svg width="85px" height="85px" viewBox="0 0 85 85" version="1.1" xmlns="http://www.w3.org/2000/svg" xmlns:xlink="http://www.w3.org/1999/xlink">
    <!-- Generator: Sketch 51.3 (57544) - http://www.bohemiancoding.com/sketch -->
    <title>Icon | Erro</title>
    <desc>Created with Sketch.</desc>
    <defs>
        <linearGradient x1="0%" y1="1.72254642e-14%" x2="100%" y2="100%" id="linearGradient-1">
            <stop stop-color="#F77062" offset="0%"></stop>
            <stop stop-color="#FE5196" offset="100%"></stop>
        </linearGradient>
    </defs>
    <g id="Symbols" stroke="none" stroke-width="1" fill="none" fill-rule="evenodd">
        <g id="Modal-|-Erro" transform="translate(-186.000000, -344.000000)">
            <g id="Modal-Sucesso">
                <g id="Group-5" transform="translate(64.000000, 216.000000)">
                    <g id="Icon-|-Erro" transform="translate(122.000000, 128.000000)">
                        <g id="Group-2">
                            <circle id="Oval" fill="#FFFFFF" cx="42.5" cy="42.5" r="42.5"></circle>
                            <path d="M45.125,39.875 L57.75,39.875 C58.9926407,39.875 60,40.8823593 60,42.125 L60,42.875 C60,44.1176407 58.9926407,45.125 57.75,45.125 L45.125,45.125 L45.125,57.75 C45.125,58.9926407 44.1176407,60 42.875,60 L42.125,60 C40.8823593,60 39.875,58.9926407 39.875,57.75 L39.875,45.125 L27.25,45.125 C26.0073593,45.125 25,44.1176407 25,42.875 L25,42.125 C25,40.8823593 26.0073593,39.875 27.25,39.875 L39.875,39.875 L39.875,27.25 C39.875,26.0073593 40.8823593,25 42.125,25 L42.875,25 C44.1176407,25 45.125,26.0073593 45.125,27.25 L45.125,39.875 Z" id="Combined-Shape" fill="url(#linearGradient-1)" transform="translate(42.500000, 42.500000) rotate(45.000000) translate(-42.500000, -42.500000) "></path>
                        </g>
                    </g>
                </g>
            </g>
        </g>
    </g>
</svg>