<?xml version="1.0" encoding="UTF-8"?>
<svg width="75px" height="79px" viewBox="0 0 75 79" version="1.1" xmlns="http://www.w3.org/2000/svg" xmlns:xlink="http://www.w3.org/1999/xlink">
    <!-- Generator: Sketch 51.3 (57544) - http://www.bohemiancoding.com/sketch -->
    <title>Shape</title>
    <desc>Created with Sketch.</desc>
    <defs>
        <filter x="-16.0%" y="-78.3%" width="132.0%" height="204.3%" filterUnits="objectBoundingBox" id="filter-1">
            <feOffset dx="0" dy="-30" in="SourceAlpha" result="shadowOffsetOuter1"></feOffset>
            <feGaussianBlur stdDeviation="15" in="shadowOffsetOuter1" result="shadowBlurOuter1"></feGaussianBlur>
            <feColorMatrix values="0 0 0 0 0   0 0 0 0 0   0 0 0 0 0  0 0 0 0.3 0" type="matrix" in="shadowBlurOuter1" result="shadowMatrixOuter1"></feColorMatrix>
            <feMerge>
                <feMergeNode in="shadowMatrixOuter1"></feMergeNode>
                <feMergeNode in="SourceGraphic"></feMergeNode>
            </feMerge>
        </filter>
    </defs>
    <g id="Symbols" stroke="none" stroke-width="1" fill="none" fill-rule="evenodd">
        <g id="Bottom-Bar" transform="translate(-287.000000, 8.000000)" fill="#FFFFFF" fill-rule="nonzero">
            <g filter="url(#filter-1)" transform="translate(0.000000, 25.000000)" id="Links">
                <g transform="translate(38.000000, 21.000000)">
                    <g id="Group-2-Copy" transform="translate(261.000000, 3.000000)">
                        <path d="M35.6833979,15.4294879 C35.6631694,15.30064 35.6322074,15.1736728 35.5908789,15.0499165 C35.1954366,13.9494578 34.067869,13.2909991 32.9151189,13.487367 C32.5338045,13.5474104 32.1759754,13.2870084 32.1158403,12.905694 L31.5357727,9.1942433 C31.0596917,6.05405315 28.7911624,3.48246315 25.7349137,2.61837074 C25.4569437,0.917157283 23.8525152,-0.236647812 22.1512558,0.0413222474 C20.4725185,0.315622735 19.3225206,1.88358487 19.5653086,3.56718438 C16.9309231,5.23436257 15.5403389,8.30850042 16.027658,11.3877757 L16.6492376,15.3379779 C16.7061618,15.7185584 16.4471818,16.0743692 16.0676105,16.1372565 C14.9101358,16.3042679 14.0389795,17.2770714 14.0001279,18.4458758 C13.9867339,19.7428401 15.0272869,20.8051352 16.3242511,20.8185292 C16.3323701,20.8186209 16.3405349,20.8186668 16.3486538,20.8186668 C16.4710799,20.8185751 16.5932766,20.8091718 16.7142349,20.7905028 L19.1238133,20.4116195 C19.9620352,21.9079792 21.854571,22.4415349 23.3509306,21.603313 C24.1413105,21.1605791 24.6989478,20.3947854 24.8777018,19.5066573 L33.7277455,18.1139631 C35.0090683,17.9127329 35.8846739,16.7108564 35.6833979,15.4294879 Z M22.4234922,1.66570405 C22.5050943,1.65299816 22.587522,1.6464388 22.6700874,1.64611771 C23.194882,1.64891576 23.6837149,1.91317079 23.9735193,2.35067548 L23.9359521,2.35067548 C23.6439917,2.34186851 23.3517104,2.35026266 23.0607133,2.37572031 C22.7542582,2.40498514 22.4497296,2.4520474 22.1486871,2.51663186 C22.0836898,2.52993406 22.0195182,2.54874062 21.9553007,2.56438217 C21.7087055,2.62231553 21.466789,2.69043196 21.229597,2.7710708 C21.2061118,2.77813472 21.1818467,2.78203364 21.1583615,2.79065713 C21.3235381,2.20036065 21.817967,1.76070009 22.4234922,1.66570405 Z M21.828517,20.434325 C21.4967418,20.434692 21.1736361,20.3281827 20.9071334,20.1305762 L23.0991062,19.7869208 C22.8041185,20.1942433 22.3314318,20.4351048 21.828517,20.434325 Z M34.0306687,16.2015199 C33.9108113,16.3983465 33.7103609,16.5323776 33.482664,16.5678808 L24.0533783,18.0505712 L19.4714135,18.7715503 L16.473144,19.2412555 C16.2459975,19.2783182 16.0141723,19.2123576 15.8406016,19.0612171 C15.663453,18.9101684 15.5627691,18.6880676 15.5658424,18.4552791 C15.5997401,18.0537821 15.9110574,17.7313643 16.3110865,17.6833847 C17.5440626,17.4857324 18.3859541,16.3294045 18.1953658,15.0953275 L17.574566,11.1451252 C17.1679774,8.53908714 18.4333834,5.95676363 20.7419568,4.6812205 C20.7555342,4.6766794 20.7688364,4.67145026 20.7818634,4.66557895 C21.5310982,4.25963257 22.355284,4.01078974 23.2039642,3.93441678 C23.4611553,3.91180304 23.7195391,3.90684912 23.9774182,3.91955501 L24.1058074,3.92583915 C24.3725852,3.94198527 24.637987,3.97542424 24.9004072,4.02606433 C24.9090307,4.02606433 24.9168286,4.02606433 24.9254521,4.02606433 C27.5743324,4.59911383 29.590441,6.75434505 29.9857456,9.43551764 L30.569758,13.1469684 C30.7638783,14.3822838 31.9224539,15.2265147 33.1578152,15.032853 C33.5526611,14.9557462 33.9474153,15.1661961 34.1035097,15.5370063 C34.1797909,15.7581439 34.1530948,16.0019869 34.0306687,16.2015199 Z" id="Shape" transform="translate(24.856093, 11.000000) scale(-1, 1) translate(-24.856093, -11.000000) "></path>
                    </g>
                </g>
            </g>
        </g>
    </g>
</svg>