<?xml version="1.0" encoding="UTF-8"?>
<svg width="77px" height="80px" viewBox="0 0 77 80" version="1.1" xmlns="http://www.w3.org/2000/svg" xmlns:xlink="http://www.w3.org/1999/xlink">
    <!-- Generator: Sketch 51.3 (57544) - http://www.bohemiancoding.com/sketch -->
    <title>Shape</title>
    <desc>Created with Sketch.</desc>
    <defs>
        <filter x="-16.0%" y="-78.3%" width="132.0%" height="204.3%" filterUnits="objectBoundingBox" id="filter-1">
            <feOffset dx="0" dy="-30" in="SourceAlpha" result="shadowOffsetOuter1"></feOffset>
            <feGaussianBlur stdDeviation="15" in="shadowOffsetOuter1" result="shadowBlurOuter1"></feGaussianBlur>
            <feColorMatrix values="0 0 0 0 0   0 0 0 0 0   0 0 0 0 0  0 0 0 0.3 0" type="matrix" in="shadowBlurOuter1" result="shadowMatrixOuter1"></feColorMatrix>
            <feMerge>
                <feMergeNode in="shadowMatrixOuter1"></feMergeNode>
                <feMergeNode in="SourceGraphic"></feMergeNode>
            </feMerge>
        </filter>
    </defs>
    <g id="Symbols" stroke="none" stroke-width="1" fill="none" fill-rule="evenodd">
        <g id="Bottom-Bar" transform="translate(-14.000000, 9.000000)" fill="#FFFFFF" fill-rule="nonzero">
            <g filter="url(#filter-1)" transform="translate(0.000000, 25.000000)" id="Links">
                <g transform="translate(38.000000, 21.000000)">
                    <g id="Group" transform="translate(0.000000, 3.000000)">
                        <path d="M23.4731778,12.9819556 L20.2809778,11 L23.4731778,9.01804444 C24.1916,8.56557778 24.5773333,7.79411111 24.5636444,7.03608889 C24.5773333,6.29126667 24.1916,5.51955556 23.4731778,5.06733333 L16.2107333,0.545111111 C15.6255333,0.186022222 14.9469556,0 14.2818222,0 C13.6166889,0 12.9388444,0.186022222 12.3536444,0.558555556 L5.1044,5.06757778 C4.37302222,5.50635556 4.00024444,6.29126667 4.00024444,7.03633333 C4.00024444,7.79435556 4.37302222,8.56582222 5.1044,9.01828889 L8.29635556,11 L5.10415556,12.9819556 C4.38573333,13.4207333 4,14.2056444 4,14.9639111 C4,15.7087333 4.37277778,16.4934 5.10415556,16.9324222 L12.3534,21.4414444 C12.9388444,21.8134889 13.6037333,22 14.2818222,22 C14.9469556,22 15.6255333,21.8134889 16.2107333,21.4412 L23.4731778,16.9321778 C24.1916,16.4797111 24.5773333,15.7084889 24.5636444,14.9636667 C24.5773333,14.2054 24.1913556,13.4207333 23.4731778,12.9819556 Z M6.15502222,7.32893333 C6.03548889,7.249 5.99515556,7.15586667 5.99515556,7.03633333 L6.15502222,6.75693333 L13.4045111,2.24791111 C13.6702222,2.07508889 13.9760222,1.99515556 14.2818222,1.99515556 C14.5876222,1.99515556 14.8936667,2.07484444 15.1598667,2.24791111 L22.4223111,6.75693333 L22.5684889,7.03633333 C22.5684889,7.16906667 22.5288889,7.249 22.4223111,7.32893333 L17.8597556,10.1618 L15.1598667,11.8377111 C14.8807111,11.9975778 14.5876222,12.0772667 14.2818222,12.0772667 C13.9760222,12.0772667 13.6699778,11.9975778 13.4045111,11.8245111 L10.7170889,10.1618 L6.15502222,7.32893333 Z M22.4086222,15.2430667 L15.1598667,19.7520889 C14.8936667,19.9249111 14.5876222,20.0048444 14.2818222,20.0048444 C13.9760222,20.0048444 13.6699778,19.9249111 13.4045111,19.7520889 L6.15502222,15.2430667 C6.04844444,15.1631333 6.00884444,15.0834444 5.99515556,14.9639111 C6.00884444,14.8306889 6.04844444,14.751 6.15502222,14.6713111 L10.1851778,12.1836 L12.3536444,13.5270667 C12.9388444,13.8861556 13.6169333,14.0724222 14.2818222,14.0724222 C14.9469556,14.0724222 15.6118444,13.8861556 16.1970444,13.5270667 L18.3921556,12.1836 L22.4083778,14.6710667 C22.5286444,14.7507556 22.5682444,14.8304444 22.5682444,14.9636667 L22.4086222,15.2430667 Z" id="Shape"></path>
                    </g>
                </g>
            </g>
        </g>
    </g>
</svg>