<?xml version="1.0" encoding="UTF-8"?>
<svg width="77px" height="83px" viewBox="0 0 77 83" version="1.1" xmlns="http://www.w3.org/2000/svg" xmlns:xlink="http://www.w3.org/1999/xlink">
    <!-- Generator: Sketch 51.3 (57544) - http://www.bohemiancoding.com/sketch -->
    <title>Shape</title>
    <desc>Created with Sketch.</desc>
    <defs>
        <filter x="-16.0%" y="-78.3%" width="132.0%" height="204.3%" filterUnits="objectBoundingBox" id="filter-1">
            <feOffset dx="0" dy="-30" in="SourceAlpha" result="shadowOffsetOuter1"></feOffset>
            <feGaussianBlur stdDeviation="15" in="shadowOffsetOuter1" result="shadowBlurOuter1"></feGaussianBlur>
            <feColorMatrix values="0 0 0 0 0   0 0 0 0 0   0 0 0 0 0  0 0 0 0.3 0" type="matrix" in="shadowBlurOuter1" result="shadowMatrixOuter1"></feColorMatrix>
            <feMerge>
                <feMergeNode in="shadowMatrixOuter1"></feMergeNode>
                <feMergeNode in="SourceGraphic"></feMergeNode>
            </feMerge>
        </filter>
    </defs>
    <g id="Symbols" stroke="none" stroke-width="1" fill="none" fill-rule="evenodd">
        <g id="Bottom-Bar" transform="translate(-90.000000, 12.000000)" fill="#FFFFFF" fill-rule="nonzero">
            <g filter="url(#filter-1)" transform="translate(0.000000, 25.000000)" id="Links">
                <g transform="translate(38.000000, 21.000000)">
                    <g id="Group-2" transform="translate(69.666667, 0.000000)">
                        <path d="M30.86791,19.7448135 C30.6464728,19.6710011 30.5726604,19.5602826 30.6095666,19.3388454 C30.6095666,18.8590649 30.6464728,18.4161906 30.5357542,17.93641 C30.1666923,16.0911004 28.6535384,14.9101022 26.6975101,14.9101022 C24.5569509,14.9101022 22.9330784,16.5339747 22.9330784,18.6745339 C22.9330784,19.5233764 22.9330784,20.409125 22.9330784,21.2579675 C22.9330784,22.4389656 22.0473297,23.3247143 20.7925192,23.3247143 C19.5008024,23.3247143 18.6150537,22.4758718 18.5781475,21.2579675 C18.5781475,19.7079073 18.5781475,18.120941 18.5781475,16.5708809 C18.5781475,16.3494437 18.6519599,16.3125375 18.8364909,16.3125375 C19.2793652,16.3125375 19.2793652,16.3125375 19.242459,15.8696632 C19.242459,15.648226 19.2793652,15.5375075 19.5008024,15.5006013 C20.755613,15.3529765 21.715174,14.688665 22.4902041,13.729104 C23.2283279,12.769543 23.6712023,11.6992633 24.003358,10.5551713 C24.5200447,8.89439263 24.7414819,7.19670773 25.0367314,5.53592903 C25.1843562,4.68708657 25.2581686,3.83824412 25.1105438,2.95249548 C24.8522004,1.58696632 23.9295456,0.62740529 22.6378288,0.405968129 C22.1949545,0.332155742 21.7520802,0.405968129 21.3461121,0.369061935 C21.2353935,0.369061935 21.1246749,0.405968129 21.0508625,0.295249548 C20.9032377,0.147624774 20.6818006,0.073812387 20.4603634,0 L19.9805829,0 C19.7960519,0.073812387 19.5746148,0.073812387 19.42699,0.221437161 C18.9472095,0.62740529 18.8364909,1.32862297 19.1317405,1.80840348 C19.5008024,2.39890258 20.1651139,2.62033974 20.755613,2.32509019 C21.0139563,2.21437161 21.2722997,2.14055922 21.530643,2.17746542 C21.715174,2.17746542 21.8627988,2.17746542 22.0473297,2.17746542 C22.6378288,2.17746542 23.0068908,2.43580877 23.2283279,2.98940167 C23.3759527,3.46918219 23.4128589,3.9489627 23.3759527,4.42874322 C23.1914217,5.79427238 22.9330784,7.12289535 22.674735,8.48842451 C22.4163917,9.70632889 22.1211421,10.8873271 21.4937368,11.9945129 C21.0508625,12.769543 20.4972696,13.3969482 19.611521,13.6552916 C19.42699,13.729104 19.2793652,13.729104 19.2793652,13.4338544 C19.242459,13.1016987 19.2055528,13.0647925 18.8733971,13.0647925 C18.0245546,13.0647925 17.1757122,13.0647925 16.3637759,13.0647925 C16.0316202,13.0647925 15.994714,13.1016987 15.9578078,13.4338544 C15.9578078,13.6921978 15.810183,13.729104 15.6256521,13.6552916 C15.0720592,13.5814792 14.5922787,13.2862297 14.2232167,12.8064491 C13.5958114,12.0683253 13.2267495,11.1825766 12.9314999,10.2599218 C12.377907,8.48842451 12.1195637,6.68002102 11.8243141,4.87161754 C11.7135956,4.24421225 11.6766894,3.57990077 11.9350327,2.98940167 C12.0457513,2.65724593 12.2671885,2.32509019 12.6362504,2.288184 C13.2267495,2.17746542 13.8172486,2.10365303 14.4077477,2.36199638 C14.8875282,2.58343355 15.3673087,2.54652735 15.7732768,2.21437161 C16.1423388,1.88221587 16.3268697,1.47624774 16.179245,0.959561031 C16.0316202,0.442874322 15.7363706,0.110718581 15.1827777,0.073812387 L14.7029972,0.073812387 C14.2232167,0.479780516 13.6696238,0.479780516 13.0791247,0.442874322 C13.0791247,0.442874322 13.0422185,0.442874322 13.0422185,0.442874322 C11.8243141,0.442874322 10.9754717,0.996467225 10.4218788,2.06674684 C9.97900446,2.87868309 9.94209827,3.80133793 10.0528169,4.68708657 C10.2373478,6.2740529 10.5325974,7.82411302 10.8647531,9.33726696 C11.1969088,10.7766085 11.6397832,12.1790439 12.4886256,13.3969482 C13.2636557,14.5410402 14.2970291,15.3160703 15.7363706,15.5006013 C16.0685264,15.5375075 16.2161512,15.648226 16.1423388,16.017288 C16.1054326,16.2756313 16.2161512,16.3494437 16.4375883,16.3125375 C16.5114007,16.3125375 16.5483069,16.3125375 16.6221193,16.3125375 C16.8435565,16.2756313 16.9173688,16.3494437 16.9173688,16.6077871 C16.9173688,18.1578472 16.9173688,19.7079073 16.9173688,21.2579675 C16.9173688,21.6639356 16.9911812,22.0699037 17.138806,22.4758718 C17.7293051,24.2473691 19.5008024,25.2438364 21.4199244,24.9485868 C23.3021403,24.6533373 24.6307633,23.1401833 24.6307633,21.2579675 C24.6307633,20.409125 24.6307633,19.5233764 24.6307633,18.6745339 C24.6307633,18.5269091 24.6307633,18.3423782 24.6676695,18.1947534 C24.8891066,17.1244738 25.7379491,16.5339747 26.9558535,16.5708809 C27.9154145,16.6077871 28.7273508,17.2720986 28.9118817,18.2316596 C28.9856941,18.6007215 28.9118817,19.0066897 28.9487879,19.3757516 C28.9487879,19.5602826 28.8749755,19.6340949 28.7273508,19.7448135 C27.4725402,20.2984064 26.8451349,21.6270294 27.1772906,22.9187462 C27.5094464,24.1735567 28.6166322,25.0223992 29.908349,24.985493 C31.1631595,24.9485868 32.2334391,24.0628382 32.4917825,22.8449338 C32.7132197,21.553217 32.0858144,20.2984064 30.86791,19.7448135 Z M29.7607242,23.1401833 C29.2809437,23.1401833 28.8749755,22.7342152 28.8749755,22.2544347 C28.8749755,21.7746542 29.2809437,21.3317798 29.7976304,21.368686 C30.2774109,21.368686 30.683379,21.7746542 30.683379,22.2544347 C30.683379,22.7342152 30.2774109,23.1401833 29.7607242,23.1401833 Z" id="Shape"></path>
                    </g>
                </g>
            </g>
        </g>
    </g>
</svg>