<?xml version="1.0" encoding="UTF-8"?>
<svg width="64px" height="90px" viewBox="0 0 64 90" version="1.1" xmlns="http://www.w3.org/2000/svg" xmlns:xlink="http://www.w3.org/1999/xlink">
    <!-- Generator: Sketch 51.3 (57544) - http://www.bohemiancoding.com/sketch -->
    <title>Group</title>
    <desc>Created with Sketch.</desc>
    <defs></defs>
    <g id="Symbols" stroke="none" stroke-width="1" fill="none" fill-rule="evenodd">
        <g id="Icon-|-Password" fill="#FFFFFF" fill-rule="nonzero" stroke="#FFFFFF" stroke-width="0.5">
            <g id="Group">
                <path d="M4.6,58 C4.6,73 16.9,85.3 31.9,85.3 C46.9,85.3 59.2,73.1 59.2,58 C59.2,50.5 56.2,43.8 51.3,38.8 C46.4,33.8 39.5,30.7 31.9,30.7 C24.3,30.7 17.4,33.8 12.5,38.8 C7.6,43.8 4.6,50.5 4.6,58 Z M51.7,33.8 L51.7,24.5 C51.7,13.6 42.8,4.7 31.9,4.7 C21,4.7 12.1,13.6 12.1,24.5 L12.1,33.8 C17.5,29.4 24.4,26.7 31.9,26.7 C39.4,26.7 46.3,29.4 51.7,33.8 Z M55.7,37.7 C60.4,43.2 63.2,50.2 63.2,58 C63.2,75.3 49.2,89.3 31.9,89.3 C14.6,89.3 0.6,75.3 0.6,58 C0.6,50.3 3.4,43.2 8.1,37.7 L8.1,24.5 C8.1,11.4 18.8,0.7 31.9,0.7 C45,0.7 55.7,11.4 55.7,24.5 L55.7,37.7 Z" id="Shape"></path>
                <path d="M50.2,57.1 C52.6,57.1 52.6,60.8 50.2,60.8 C48.3,60.8 46.3,60.8 44.4,60.8 C44.5,60.2 44.5,59.6 44.5,58.9 C44.5,58.3 44.4,57.6 44.4,57 C46.3,57.1 48.3,57.1 50.2,57.1 Z" id="Shape"></path>
                <path d="M43.5,44.7 C45.2,43 47.9,45.6 46.2,47.4 C44.8,48.8 43.5,50.1 42.1,51.5 C41.4,50.5 40.5,49.6 39.4,48.8 C40.8,47.5 42.2,46.1 43.5,44.7 Z" id="Shape"></path>
                <path d="M46.2,70.6 C47.9,72.3 45.2,75 43.5,73.3 C42.1,71.9 40.8,70.6 39.4,69.2 C40.4,68.4 41.3,67.6 42.1,66.6 C43.4,67.9 44.8,69.3 46.2,70.6 Z" id="Shape"></path>
                <path d="M33.8,71.6 C33.8,73.5 33.8,75.4 33.8,77.4 C33.8,79.8 30,79.8 30,77.4 C30,75.5 30,73.5 30,71.6 C30.6,71.7 31.2,71.7 31.9,71.7 C32.6,71.7 33.1,71.6 33.8,71.6 Z" id="Shape"></path>
                <path d="M33.8,40.7 C33.8,42.6 33.8,44.6 33.8,46.5 C33.2,46.4 32.6,46.4 31.9,46.4 C31.2,46.4 30.6,46.4 30,46.5 C30,44.6 30,42.6 30,40.7 C30,38.3 33.8,38.3 33.8,40.7 Z" id="Shape"></path>
                <path d="M24.3,69.2 C22.9,70.6 21.6,71.9 20.2,73.3 C18.5,75 15.8,72.3 17.5,70.6 C18.9,69.2 20.2,67.9 21.6,66.5 C22.4,67.6 23.3,68.5 24.3,69.2 Z" id="Shape"></path>
                <path d="M20.2,44.7 C21.6,46.1 22.9,47.4 24.3,48.8 C23.3,49.5 22.4,50.4 21.6,51.5 C20.2,50.1 18.9,48.8 17.5,47.4 C15.9,45.7 18.5,43 20.2,44.7 Z" id="Shape"></path>
                <path d="M13.6,57.1 C15.5,57.1 17.5,57.1 19.4,57.1 C19.3,57.7 19.3,58.3 19.3,59 C19.3,59.6 19.3,60.3 19.4,60.9 C17.5,60.9 15.6,60.9 13.6,60.9 C11.1,60.9 11.1,57.1 13.6,57.1 Z" id="Shape"></path>
            </g>
        </g>
    </g>
</svg>