<?xml version="1.0" encoding="UTF-8"?>
<svg width="38px" height="26px" viewBox="0 0 38 26" version="1.1" xmlns="http://www.w3.org/2000/svg" xmlns:xlink="http://www.w3.org/1999/xlink">
    <!-- Generator: Sketch 51.3 (57544) - http://www.bohemiancoding.com/sketch -->
    <title>Icon | Atividade Fisica</title>
    <desc>Created with Sketch.</desc>
    <defs>
        <path d="M5.09090909,0 C4.04428055,0 3.18181818,0.745415 3.18181818,1.65 L3.18181818,1.925 L1.90909091,1.925 C0.862462141,1.925 0,2.670415 0,3.575 L0,7.425 C0,8.329585 0.862462141,9.075 1.90909091,9.075 L3.18181818,9.075 L3.18181818,9.35 C3.18181818,10.254585 4.04428055,11 5.09090909,11 L5.72727273,11 C6.77390127,11 7.63636364,10.254585 7.63636364,9.35 L7.63636364,7.15 L20.3636364,7.15 L20.3636364,9.35 C20.3636364,10.254585 21.2260987,11 22.2727273,11 L22.9090909,11 C23.9557195,11 24.8181818,10.254585 24.8181818,9.35 L24.8181818,9.075 L26.0909091,9.075 C27.137538,9.075 28,8.329585 28,7.425 L28,3.575 C28,2.670415 27.137538,1.925 26.0909091,1.925 L24.8181818,1.925 L24.8181818,1.65 C24.8181818,0.745415 23.9557195,0 22.9090909,0 L22.2727273,0 C21.2260987,0 20.3636364,0.745415 20.3636364,1.65 L20.3636364,3.85 L7.63636364,3.85 L7.63636364,1.65 C7.63636364,0.745415 6.77390127,0 5.72727273,0 L5.09090909,0 Z M4.66666667,1 L5.33333333,1 C5.71419767,1 6,1.24114656 6,1.5625 L6,4.32226562 C5.999023,4.33983409 5.999023,4.35743154 6,4.375 L6,6.625 C5.99932164,6.63964285 5.99932164,6.65430247 6,6.66894531 L6,9.4375 C6,9.75885625 5.71419767,10 5.33333333,10 L4.66666667,10 C4.28580233,10 4,9.75885625 4,9.4375 L4,8.63769531 C4.00067836,8.62305247 4.00067836,8.60839285 4,8.59375 L4,2.40625 C4.000977,2.38868154 4.000977,2.37108409 4,2.35351562 L4,1.5625 C4,1.24114656 4.28580233,1 4.66666667,1 Z M22.6666667,1 L23.3333333,1 C23.7141977,1 24,1.24114656 24,1.5625 L24,2.36230469 C23.9993216,2.37694753 23.9993216,2.39160715 24,2.40625 L24,8.59375 C23.9986699,8.61424246 23.9986699,8.63478098 24,8.65527344 L24,9.4375 C24,9.75885625 23.7141977,10 23.3333333,10 L22.6666667,10 C22.2858023,10 22,9.75885625 22,9.4375 L22,6.68652344 C22.0013301,6.66603098 22.0013301,6.64549246 22,6.625 L22,4.375 C22.0006784,4.36035715 22.0006784,4.34569753 22,4.33105469 L22,1.5625 C22,1.24114656 22.2858023,1 22.6666667,1 Z M1.66666667,3 L3,3 L3,8 L1.66666667,8 C1.28580233,8 1,7.76183333 1,7.44444444 L1,3.55555556 C1,3.23816667 1.28580233,3 1.66666667,3 Z M25,3 L26.3333333,3 C26.7141977,3 27,3.23816667 27,3.55555556 L27,7.44444444 C27,7.76183333 26.7141977,8 26.3333333,8 L25,8 L25,3 Z M7,5 L20,5 L20,6 L7,6 L7,5 Z" id="path-1"></path>
        <filter x="-44.6%" y="-68.2%" width="189.3%" height="372.7%" filterUnits="objectBoundingBox" id="filter-2">
            <feOffset dx="0" dy="10" in="SourceAlpha" result="shadowOffsetOuter1"></feOffset>
            <feGaussianBlur stdDeviation="2.5" in="shadowOffsetOuter1" result="shadowBlurOuter1"></feGaussianBlur>
            <feColorMatrix values="0 0 0 0 0   0 0 0 0 0   0 0 0 0 0  0 0 0 0.5 0" type="matrix" in="shadowBlurOuter1"></feColorMatrix>
        </filter>
    </defs>
    <g id="App" stroke="none" stroke-width="1" fill="none" fill-rule="evenodd">
        <g id="Tela-de-resultado-|-Fechado" transform="translate(-59.000000, -271.000000)" fill-rule="nonzero">
            <g id="Group-2" transform="translate(22.000000, 139.000000)">
                <g id="Indicadores-de-Qualidade-de-Vida-Copy" transform="translate(27.000000, 46.000000)">
                    <g id="Indicadores">
                        <g id="Atividade-fisica" transform="translate(0.000000, 61.000000)">
                            <g id="Icon-|-Atividade-Fisica" transform="translate(15.000000, 25.000000)">
                                <g id="Shape">
                                    <use fill="black" fill-opacity="1" filter="url(#filter-2)" xlink:href="#path-1"></use>
                                    <use fill="#FFFFFF" xlink:href="#path-1"></use>
                                </g>
                            </g>
                        </g>
                    </g>
                </g>
            </g>
        </g>
    </g>
</svg>