<?xml version="1.0" encoding="UTF-8"?>
<svg width="35px" height="27px" viewBox="0 0 35 27" version="1.1" xmlns="http://www.w3.org/2000/svg" xmlns:xlink="http://www.w3.org/1999/xlink">
    <!-- Generator: Sketch 51.3 (57544) - http://www.bohemiancoding.com/sketch -->
    <title>Icon | Fumar</title>
    <desc>Created with Sketch.</desc>
    <defs>
        <filter x="-50.0%" y="-62.5%" width="200.0%" height="350.0%" filterUnits="objectBoundingBox" id="filter-1">
            <feOffset dx="0" dy="10" in="SourceAlpha" result="shadowOffsetOuter1"></feOffset>
            <feGaussianBlur stdDeviation="2.5" in="shadowOffsetOuter1" result="shadowBlurOuter1"></feGaussianBlur>
            <feColorMatrix values="0 0 0 0 0   0 0 0 0 0   0 0 0 0 0  0 0 0 0.5 0" type="matrix" in="shadowBlurOuter1" result="shadowMatrixOuter1"></feColorMatrix>
            <feMerge>
                <feMergeNode in="shadowMatrixOuter1"></feMergeNode>
                <feMergeNode in="SourceGraphic"></feMergeNode>
            </feMerge>
        </filter>
    </defs>
    <g id="App" stroke="none" stroke-width="1" fill="none" fill-rule="evenodd">
        <g id="Tela-de-resultado-|-Fechado" transform="translate(-59.000000, -545.000000)" fill="#FFFFFF" fill-rule="nonzero">
            <g id="Group-2" transform="translate(22.000000, 139.000000)">
                <g id="Indicadores-de-Qualidade-de-Vida-3" transform="translate(29.000000, 391.000000)">
                    <g id="Indicadores">
                        <g id="fumar">
                            <g id="icon-smoke" filter="url(#filter-1)" transform="translate(13.000000, 15.000000)">
                                <g id="path-1-link">
                                    <g id="Icon-|-Fumar">
                                        <path d="M1.10685943,6.15861869 C0.86967541,6.15861869 0.711552459,6.0119849 0.711552459,5.79203425 C0.711552459,4.25237954 2.13465738,3.00599247 3.79494672,3.00599247 L5.21805164,3.00599247 C6.48303361,3.00599247 7.51083156,2.0528729 7.51083156,0.953119572 L7.51083156,0.366584441 C7.51083156,0.146633793 7.66895451,0 7.90613852,0 C8.14332295,0 8.30144549,0.146633793 8.30144549,0.366584441 L8.30144549,0.953119572 C8.30144549,2.49277423 6.87834057,3.73916135 5.21805164,3.73916135 L3.79494672,3.73916135 C2.52996434,3.73916135 1.50216639,4.69228088 1.50216639,5.79203425 C1.50216639,6.0119849 1.34404344,6.15861869 1.10685943,6.15861869 Z M7.66895451,3.44589377 C7.82707746,3.29926001 8.14332295,3.29926001 8.22238402,3.44589377 C8.38050697,3.59252756 8.38050697,3.81247825 8.22238402,3.959112 C7.51083156,4.61896403 6.48303361,5.05886532 5.37617418,5.05886532 L3.79494672,5.05886532 C3.32057828,5.05886532 3.00433279,5.35213291 3.00433279,5.79203425 C3.00433279,6.0119849 2.84620984,6.15861869 2.60902582,6.15861869 C2.37184139,6.15861869 2.21371885,6.0119849 2.21371885,5.79203425 C2.21371885,4.98554847 2.92527131,4.32569644 3.79494672,4.32569644 L5.37617418,4.32569644 C6.24584959,4.32569644 7.03646352,4.0324289 7.66895451,3.44589377 Z M23.0068635,7.03842137 L1.97653484,7.03842137 C0.86967541,7.03842137 0,8.06485779 0,9.38456181 C0,10.7042658 0.86967541,11.7307022 1.97653484,11.7307022 L23.0068635,11.7307022 C24.113723,11.7307022 24.983398,10.7042658 24.983398,9.38456181 C25.0624594,8.06485779 24.113723,7.03842137 23.0068635,7.03842137 Z M0.948736475,9.38456181 C0.948736475,8.57807603 1.42310492,7.9915409 1.89747336,7.9915409 C2.37184139,7.9915409 2.84620984,8.65139292 2.84620984,9.38456181 C2.84620984,10.1910476 2.37184139,10.7775827 1.89747336,10.7775827 C1.42310492,10.7775827 0.948736475,10.1910476 0.948736475,9.38456181 Z M3.63682377,10.7775827 C3.63682377,10.7042658 3.63682377,10.7042658 3.63682377,10.7775827 C3.71588525,10.7042658 3.71588525,10.6309489 3.71588525,10.557632 C3.71588525,10.557632 3.71588525,10.4843151 3.71588525,10.4843151 C3.71588525,10.4109982 3.79494672,10.3376813 3.79494672,10.2643645 C3.79494672,10.2643645 3.79494672,10.2643645 3.79494672,10.1910476 C3.79494672,10.1177307 3.87400779,10.0444138 3.87400779,10.0444138 C3.87400779,10.0444138 3.87400779,9.9710969 3.87400779,9.9710969 C3.87400779,9.89778 3.87400779,9.89778 3.87400779,9.82446314 C3.87400779,9.82446314 3.87400779,9.75114625 3.87400779,9.75114625 C3.87400779,9.67782935 3.87400779,9.67782935 3.87400779,9.60451246 L3.87400779,9.53119556 L3.87400779,9.38456181 L3.87400779,9.16461112 L3.87400779,9.09129422 C3.87400779,9.01797737 3.87400779,9.01797737 3.87400779,8.94466047 C3.87400779,8.94466047 3.87400779,8.87134357 3.87400779,8.87134357 C3.87400779,8.79802668 3.87400779,8.79802668 3.87400779,8.72470978 C3.87400779,8.72470978 3.87400779,8.65139292 3.87400779,8.65139292 C3.87400779,8.57807603 3.87400779,8.50475913 3.79494672,8.50475913 C3.79494672,8.50475913 3.79494672,8.43144223 3.79494672,8.43144223 C3.79494672,8.35812534 3.71588525,8.28480844 3.71588525,8.21149159 C3.71588525,8.21149159 3.71588525,8.13817469 3.71588525,8.13817469 C3.71588525,8.06485779 3.63682377,8.06485779 3.63682377,7.9915409 C3.63682377,7.9915409 3.63682377,7.918224 3.5577623,7.918224 C3.5577623,7.918224 3.5577623,7.84490714 3.47870082,7.84490714 L18.0259963,7.84490714 C18.4213029,8.06485779 18.7375488,8.65139292 18.7375488,9.23792801 C18.7375488,9.82446314 18.4213029,10.4109982 18.0259963,10.6309489 L3.63682377,10.7775827 C3.5577623,10.7775827 3.5577623,10.7775827 3.63682377,10.7775827 Z M23.0068635,10.8508996 L19.2119168,10.8508996 C19.4491012,10.4843151 19.6072238,9.9710969 19.6072238,9.4578787 C19.6072238,8.94466047 19.4491012,8.43144223 19.2119168,8.06485779 L23.0068635,8.06485779 C23.560293,8.06485779 23.9556,8.72470978 23.9556,9.4578787 C24.0346615,10.1910476 23.560293,10.8508996 23.0068635,10.8508996 Z" id="path-1"></path>
                                    </g>
                                </g>
                            </g>
                        </g>
                    </g>
                </g>
            </g>
        </g>
    </g>
</svg>