<?xml version="1.0" encoding="UTF-8"?>
<svg width="29px" height="34px" viewBox="0 0 29 34" version="1.1" xmlns="http://www.w3.org/2000/svg" xmlns:xlink="http://www.w3.org/1999/xlink">
    <!-- Generator: Sketch 51.3 (57544) - http://www.bohemiancoding.com/sketch -->
    <title>Icon | Carne Vermelha</title>
    <desc>Created with Sketch.</desc>
    <defs>
        <filter x="-65.8%" y="-39.5%" width="231.6%" height="257.9%" filterUnits="objectBoundingBox" id="filter-1">
            <feOffset dx="0" dy="10" in="SourceAlpha" result="shadowOffsetOuter1"></feOffset>
            <feGaussianBlur stdDeviation="2.5" in="shadowOffsetOuter1" result="shadowBlurOuter1"></feGaussianBlur>
            <feColorMatrix values="0 0 0 0 0   0 0 0 0 0   0 0 0 0 0  0 0 0 0.5 0" type="matrix" in="shadowBlurOuter1" result="shadowMatrixOuter1"></feColorMatrix>
            <feMerge>
                <feMergeNode in="shadowMatrixOuter1"></feMergeNode>
                <feMergeNode in="SourceGraphic"></feMergeNode>
            </feMerge>
        </filter>
    </defs>
    <g id="App" stroke="none" stroke-width="1" fill="none" fill-rule="evenodd">
        <g id="Tela-de-resultado-|-Fechado" transform="translate(-63.000000, -438.000000)" fill="#FFFFFF" fill-rule="nonzero">
            <g id="Group-2" transform="translate(22.000000, -161.000000)">
                <g id="Indicadores-de-Qualidade-de-Vida-3" transform="translate(29.000000, 391.000000)">
                    <g id="Indicadores">
                        <g id="alimentacao-carne-vermelha" transform="translate(0.000000, 184.000000)">
                            <g id="icon-red-meat" filter="url(#filter-1)" transform="translate(17.000000, 24.000000)">
                                <g id="path-1-link">
                                    <g id="Icon-|-Carne-Vermelha">
                                        <path d="M17.2984897,8.89713034 C17.2312565,7.86622526 17.0295579,6.76659321 16.6261602,5.73568812 C15.0798027,1.74952186 12.457718,0.581162796 8.96160485,2.23061089 C8.2892758,2.57424591 6.13782154,3.53642398 7.28078141,6.56041217 C7.68417909,7.66004427 7.5497132,8.82840333 6.94461689,9.7905814 C6.2050547,10.8902134 4.99486167,11.4400295 3.71743591,11.2338485 C2.77617467,11.0963945 2.03661248,11.3025755 1.70044754,11.7836645 C1.36428302,12.2647535 1.36428302,13.1582046 1.70044754,14.2578367 L1.70044754,14.3265637 C1.90214659,14.6701987 2.91064057,16.5258279 5.1965603,17.2818249 C5.73442387,17.4880059 6.27228743,17.4880059 6.87738374,17.5567329 L7.01184963,17.5567329 C7.34801457,17.5567329 7.61694635,17.6254599 8.02034402,17.6254599 C14.8781037,17.6254599 16.6261602,13.2956586 17.0967907,11.4400295 C17.2984897,10.5465784 17.3657224,9.72185439 17.2984897,8.89713034 C17.2984897,8.89713034 17.2984897,8.89713034 17.2984897,8.89713034 Z M9.29776978,2.84915395 C10.239031,2.43679193 11.045826,2.23061089 11.7853886,2.23061089 C13.5334447,2.23061089 14.9453368,3.46769697 15.9538308,6.01059613 C16.2227626,6.76659321 16.4244612,7.52259024 16.5589271,8.27858728 C14.9453368,7.79749825 12.0543203,9.24076535 11.5836895,9.51567335 C9.43223567,10.2029434 8.4237417,9.24076535 8.15480991,8.82840333 C8.35650854,8.00367928 8.35650854,7.04150121 8.02034402,6.21677716 C7.14631552,4.15496704 8.15480991,3.33024299 9.29776978,2.84915395 Z M7.5497132,10.1342164 C7.68417909,9.99676239 7.75141224,9.7905814 7.81864498,9.65312738 C8.22204265,10.0654894 9.028838,10.5465784 10.1717979,10.5465784 C10.6424287,10.5465784 11.1802918,10.4778514 11.7853886,10.2716704 C11.7853886,10.2716704 11.8526213,10.2716704 11.8526213,10.2716704 C13.264513,9.51567335 15.7521317,8.62222234 16.5589271,9.17203834 C16.5589271,9.85930841 16.4916943,10.5465784 16.3572285,11.2338485 C16.3572285,11.2338485 16.3572285,11.2338485 16.3572285,11.3025755 C15.5504331,11.0963945 13.6679106,10.8214865 10.5079628,12.4022076 C9.43223567,12.9520236 8.49097443,13.0207506 7.75141224,12.6771156 C7.01184963,12.3334806 6.60845237,11.7149375 6.40675333,11.3713025 C6.87738374,10.9589405 7.28078141,10.5465784 7.5497132,10.1342164 Z M7.14631552,16.7320088 L7.01184963,16.7320088 C6.47398648,16.6632818 5.93612291,16.6632818 5.46549209,16.4571008 C3.44850413,15.7698308 2.50724289,14.1203827 2.372777,13.8454747 C2.03661248,12.8832966 2.10384522,12.3334806 2.30554426,12.0585726 C2.44000974,11.8523915 2.9778733,11.7149375 3.65020276,11.8523915 C4.38976537,11.9211185 5.06209441,11.8523915 5.73442387,11.5774835 C5.73442387,11.7149375 5.80165702,11.8523915 5.80165702,11.9898455 C6.00335565,13.2956586 6.67568511,14.4640177 7.75141224,15.1512878 C8.49097443,15.7011038 9.028838,16.1821928 9.028838,16.6632818 C8.75990622,16.6632818 8.4237417,16.6632818 8.08757676,16.6632818 C7.75141224,16.8007359 7.4152473,16.7320088 7.14631552,16.7320088 Z M9.70116746,16.6632818 C9.6339343,15.6323768 8.69267348,14.9451067 8.08757676,14.6014717 C7.48248046,14.1203827 6.94461689,13.5018396 6.67568511,12.8145696 C6.87738374,13.0207506 7.14631552,13.1582046 7.4152473,13.2956586 C8.35650854,13.7080207 9.49946841,13.5705666 10.7768946,12.9520236 C13.7351438,11.5087565 15.4832,11.7149375 16.0882967,11.9211185 C15.5504331,13.5705666 13.9368424,16.1134658 9.70116746,16.6632818 Z M17.9708187,5.11714507 C17.2984897,3.46769697 16.0882967,1.26843282 13.9368424,0.374981763 C12.3904849,-0.243561253 10.5079628,-0.106107273 8.49097443,0.856070799 C5.93612291,2.02442986 5.12932757,4.15496704 6.13782154,6.83532022 C6.47398648,7.66004427 6.33952059,8.55349533 5.80165702,9.24076535 C5.26379346,9.92803542 4.45699811,10.2716704 3.58297002,10.1342164 C2.23831111,9.92803542 1.16258398,10.2716704 0.557487674,11.0276675 C0.0868572609,11.6462105 -0.316540413,12.7458426 0.35578863,14.8076527 C0.423021783,14.9451067 1.6332148,17.5567329 4.72592989,18.587638 C5.39825935,18.793819 6.0705888,18.862546 6.74291785,18.931273 L6.87738374,18.931273 C7.07908278,18.931273 7.48248046,19 7.95311087,19 C9.23053663,19 11.1802918,18.862546 13.1300475,18.0378219 C15.9538308,16.8694629 17.7691201,14.6701987 18.5086823,11.6462105 C18.9793131,9.51567335 18.8448472,7.24768224 17.9708187,5.11714507 Z M17.8363528,11.4400295 C17.1640238,14.1891097 15.5504331,16.1821928 12.9283484,17.2818249 C10.3734969,18.3814569 7.75141224,18.244003 7.01184963,18.175276 L6.87738374,18.175276 C6.2050547,18.1065489 5.59995798,18.0378219 4.99486167,17.8316409 C2.30554426,16.9381899 1.16258398,14.6701987 1.09535124,14.4640177 C0.624720413,13.1582046 0.691953565,12.0585726 1.16258398,11.4400295 C1.6332148,10.8902134 2.44000974,10.6153054 3.58297002,10.8214865 C4.72592989,10.9589405 5.80165702,10.5465784 6.47398648,9.65312738 C7.14631552,8.75967632 7.28078141,7.59131725 6.87738374,6.49168516 C6.00335565,4.22369401 6.67568511,2.5055189 8.82713937,1.47461386 C10.6424287,0.649889807 12.3232521,0.443708774 13.6679106,1.06225183 C15.5504331,1.81824887 16.693393,3.88005899 17.2984897,5.39205311 C18.1052846,7.38513622 18.2397505,9.51567335 17.8363528,11.4400295 Z M12.1215531,6.83532022 C13.1300475,6.83532022 13.9368424,6.01059613 13.9368424,4.97969109 C13.9368424,3.948786 13.1300475,3.12406195 12.1215531,3.12406195 C11.1130591,3.12406195 10.3062638,3.948786 10.3062638,4.97969109 C10.3062638,6.01059613 11.1130591,6.83532022 12.1215531,6.83532022 Z M12.1215531,3.88005899 C12.7266498,3.88005899 13.1972802,4.36114803 13.1972802,4.97969109 C13.1972802,5.5982341 12.7266498,6.07932314 12.1215531,6.07932314 C11.5164568,6.07932314 11.045826,5.5982341 11.045826,4.97969109 C11.045826,4.36114803 11.5164568,3.88005899 12.1215531,3.88005899 Z" id="path-1"></path>
                                    </g>
                                </g>
                            </g>
                        </g>
                    </g>
                </g>
            </g>
        </g>
    </g>
</svg>