<?xml version="1.0" encoding="UTF-8"?>
<svg width="31px" height="36px" viewBox="0 0 31 36" version="1.1" xmlns="http://www.w3.org/2000/svg" xmlns:xlink="http://www.w3.org/1999/xlink">
    <!-- Generator: Sketch 51.3 (57544) - http://www.bohemiancoding.com/sketch -->
    <title>Icon | Peso</title>
    <desc>Created with Sketch.</desc>
    <defs>
        <path d="M5.5415955,7.87328805 L15.6966044,7.87328805 C15.952613,7.87328805 16.2086216,7.63968997 16.2086216,7.40609188 C16.2086216,4.52504884 13.7338716,2.11120196 10.661768,2.11120196 C7.58966452,2.11120196 5.11491446,4.44718281 5.11491446,7.40609188 C5.02957825,7.63968997 5.28558688,7.87328805 5.5415955,7.87328805 Z M10.661768,3.12346033 C13.0511819,3.12346033 14.9285785,4.83651295 15.1845871,6.93889571 L11.1737853,6.93889571 L11.1737853,4.99224501 C11.1737853,4.75864692 10.9177767,4.52504884 10.661768,4.52504884 C10.4057594,4.52504884 10.1497508,4.75864692 10.1497508,4.99224501 L10.1497508,6.93889571 L6.13894897,6.93889571 C6.30962138,4.75864692 8.27235419,3.12346033 10.661768,3.12346033 Z M18.5126993,14.0247043 C18.7687079,14.0247043 19.0247165,14.2583024 19.0247165,14.4919005 L18.2566906,18.774532 C18.2566906,19.0859961 17.9153458,19.3195942 17.574001,19.3195942 L3.6641989,19.3195942 C3.32285407,19.3195942 3.06684544,19.0859961 2.98150923,18.774532 L2.55482819,14.4919005 C2.55482819,14.2583024 2.72550061,14.0247043 3.06684544,14.0247043 C3.32285407,14.0247043 3.5788627,14.1804363 3.6641989,14.4919005 L4.09087995,18.3852019 L17.2326561,18.3852019 L18.000682,14.4140344 C18.000682,14.1804363 18.2566906,14.0247043 18.5126993,14.0247043 Z M20.3900959,4.29145075 C19.8780786,3.82425458 19.2807252,3.5906565 18.5126993,3.5906565 L17.2326561,3.5906565 C15.7819406,1.56613976 13.2218543,0.242417279 10.5764318,0.242417279 C7.93100936,0.242417279 5.37092309,1.48827373 3.92020753,3.5906565 L2.6401644,3.5906565 C1.95747472,3.5906565 1.27478505,3.82425458 0.762767797,4.29145075 C0.250750543,4.75864692 0.080078125,5.38157515 0.080078125,6.00450337 L0.933440215,18.9302641 C1.01877642,20.2539866 2.21348335,21.2662449 3.6641989,21.2662449 L17.4886648,21.2662449 C18.9393803,21.2662449 20.1340872,20.1761205 20.2194235,18.9302641 L21.0727855,6.00450337 C21.1581218,5.30370912 20.9021131,4.75864692 20.3900959,4.29145075 Z M20.048751,5.92663735 L19.1953889,18.852398 C19.1100527,19.6310583 18.3420269,20.3318526 17.4886648,20.3318526 L3.6641989,20.3318526 C2.81083681,20.3318526 2.04281093,19.6310583 1.95747472,18.852398 L1.10411263,5.92663735 C1.10411263,5.5373072 1.18944884,5.22584309 1.53079368,4.91437898 C1.78680231,4.68078089 2.21348335,4.52504884 2.6401644,4.52504884 L4.17621616,4.52504884 C4.34688858,4.52504884 4.51756099,4.44718281 4.6028972,4.29145075 C5.79760413,2.42266607 8.10168177,1.17680962 10.4910956,1.17680962 C12.9658457,1.17680962 15.1845871,2.34480004 16.3792941,4.29145075 C16.4646303,4.44718281 16.6353027,4.52504884 16.8059751,4.52504884 L18.3420269,4.52504884 C18.7687079,4.52504884 19.1100527,4.68078089 19.4513976,4.91437898 C19.9634148,5.22584309 20.048751,5.5373072 20.048751,5.92663735 Z" id="path-1"></path>
        <filter x="-59.5%" y="-35.7%" width="219.0%" height="242.7%" filterUnits="objectBoundingBox" id="filter-2">
            <feOffset dx="0" dy="10" in="SourceAlpha" result="shadowOffsetOuter1"></feOffset>
            <feGaussianBlur stdDeviation="2.5" in="shadowOffsetOuter1" result="shadowBlurOuter1"></feGaussianBlur>
            <feColorMatrix values="0 0 0 0 0   0 0 0 0 0   0 0 0 0 0  0 0 0 0.5 0" type="matrix" in="shadowBlurOuter1"></feColorMatrix>
        </filter>
    </defs>
    <g id="App" stroke="none" stroke-width="1" fill="none" fill-rule="evenodd">
        <g id="Tela-de-resultado-|-Fechado" transform="translate(-60.000000, -198.000000)" fill-rule="nonzero">
            <g id="Group-2" transform="translate(22.000000, 139.000000)">
                <g id="Indicadores-de-Qualidade-de-Vida-Copy" transform="translate(27.000000, 46.000000)">
                    <g id="Indicadores">
                        <g id="Peso">
                            <g id="Icon-|-Peso" transform="translate(16.000000, 13.000000)">
                                <g id="path-1_1_">
                                    <use fill="black" fill-opacity="1" filter="url(#filter-2)" xlink:href="#path-1"></use>
                                    <use fill="#FFFFFF" xlink:href="#path-1"></use>
                                </g>
                            </g>
                        </g>
                    </g>
                </g>
            </g>
        </g>
    </g>
</svg>