<?xml version="1.0" encoding="UTF-8"?>
<svg width="28px" height="36px" viewBox="0 0 28 36" version="1.1" xmlns="http://www.w3.org/2000/svg" xmlns:xlink="http://www.w3.org/1999/xlink">
    <!-- Generator: Sketch 51.3 (57544) - http://www.bohemiancoding.com/sketch -->
    <title>Icon | Doces</title>
    <desc>Created with Sketch.</desc>
    <defs>
        <filter x="-69.4%" y="-35.7%" width="238.9%" height="242.9%" filterUnits="objectBoundingBox" id="filter-1">
            <feOffset dx="0" dy="10" in="SourceAlpha" result="shadowOffsetOuter1"></feOffset>
            <feGaussianBlur stdDeviation="2.5" in="shadowOffsetOuter1" result="shadowBlurOuter1"></feGaussianBlur>
            <feColorMatrix values="0 0 0 0 0   0 0 0 0 0   0 0 0 0 0  0 0 0 0.5 0" type="matrix" in="shadowBlurOuter1" result="shadowMatrixOuter1"></feColorMatrix>
            <feMerge>
                <feMergeNode in="shadowMatrixOuter1"></feMergeNode>
                <feMergeNode in="SourceGraphic"></feMergeNode>
            </feMerge>
        </filter>
    </defs>
    <g id="App" stroke="none" stroke-width="1" fill="none" fill-rule="evenodd">
        <g id="Tela-de-resultado-|-Fechado" transform="translate(-64.000000, -434.000000)" fill="#FFFFFF" fill-rule="nonzero">
            <g id="Group-2" transform="translate(22.000000, 139.000000)">
                <g id="Indicadores-de-Qualidade-de-Vida-2" transform="translate(27.000000, 220.000000)">
                    <g id="Indicadores">
                        <g id="alimentacao-doces" transform="translate(0.000000, 54.000000)">
                            <g id="icon-candy" filter="url(#filter-1)" transform="translate(20.000000, 21.000000)">
                                <g id="path-1-link">
                                    <g id="Icon-|-Doces">
                                        <path d="M8.77027038,0.240481859 C5.85223978,0.240481859 3.45115995,2.63186869 3.22868968,5.64559785 L3.20863524,5.64559785 C1.41525486,5.64559785 0,7.29499152 0,9.24900854 C0,10.1515953 0.186984,10.9379722 0.641727243,11.5574435 C1.06365989,12.1322185 1.68403476,12.5163005 2.43321519,12.7679642 L3.46933703,19.9325581 C3.51578676,20.2641192 3.78605335,20.5097298 4.10437946,20.5096669 L8.77027038,20.5096669 L13.4361608,20.5096669 C13.7544874,20.5097298 14.0247535,20.2641192 14.0712032,19.9325581 L15.1073251,12.7679642 C15.8565055,12.5163005 16.4768809,12.1322185 16.8988135,11.5574435 C17.3535568,10.9379722 17.5405408,10.1515953 17.5405408,9.24900854 C17.5405408,7.29499152 16.1252859,5.64559785 14.331905,5.64559785 L14.3118511,5.64559785 C14.0893808,2.63186869 11.6883005,0.240481859 8.77027038,0.240481859 Z M8.77027038,1.59176087 C10.9948028,1.59176087 12.8132115,3.36515642 13.0283971,5.64559785 L12.6206329,5.64559785 C12.5983659,5.64437529 12.5760532,5.64437529 12.5537862,5.64559785 C12.3244905,5.65812937 12.1189675,5.7985157 12.0146512,6.01386389 C11.9103354,6.22921202 11.9230779,6.48679766 12.0480782,6.6895711 C12.1730784,6.89234459 12.3913416,7.00949227 12.6206329,6.99687686 L14.331905,6.99687686 C15.373853,6.99687686 16.2570863,7.96909957 16.2570863,9.24900854 C16.2570863,9.9633847 16.1232066,10.4064353 15.8827456,10.7340078 C15.6995436,10.9835609 15.4269321,11.1925891 15.0137402,11.3674199 C14.8700627,11.0365732 14.6479972,10.7433988 14.3786977,10.5228705 C13.9054417,10.1353462 13.2871247,9.92464799 12.6206329,9.92464799 C11.9541405,9.92464799 11.3358235,10.1353462 10.862568,10.5228705 C10.7949882,10.5782279 10.7569377,10.6637075 10.6954516,10.7269699 C10.6339656,10.6637075 10.5959145,10.5782279 10.5283352,10.5228705 C10.0550792,10.1353462 9.43676222,9.92464799 8.77027038,9.92464799 C8.10377805,9.92464799 7.48546103,10.1353462 7.01220551,10.5228705 C6.94462573,10.5782279 6.90657519,10.6637075 6.84508914,10.7269699 C6.78360308,10.6637075 6.74555254,10.5782279 6.67797276,10.5228705 C6.20471676,10.1353462 5.58639973,9.92464799 4.91990789,9.92464799 C4.25341557,9.92464799 3.63509854,10.1353462 3.16184303,10.5228705 C2.89213735,10.7437375 2.6795773,11.0416024 2.54016973,11.3744578 C2.11922562,11.1984906 1.84300978,10.9863029 1.65779514,10.7340078 C1.41733362,10.4064353 1.283454,9.9633847 1.283454,9.24900854 C1.283454,7.96909957 2.16668773,6.99687686 3.20863524,6.99687686 L4.91990789,6.99687686 C5.15133778,7.0003228 5.36660222,6.87230562 5.48327189,6.66184557 C5.59994205,6.45138552 5.59994205,6.19108919 5.48327189,5.98062913 C5.36660222,5.77016908 5.15133778,5.6421519 4.91990789,5.64559785 L4.51214368,5.64559785 C4.72732881,3.36515642 6.54573795,1.59176087 8.77027038,1.59176087 Z M4.91990789,11.275927 C5.31666389,11.275927 5.66566005,11.4096023 5.88918308,11.592633 C6.11270562,11.7756863 6.20336189,11.9761598 6.20336189,12.1767797 C6.20832405,12.5461992 6.4941767,12.8429315 6.84508914,12.8429315 C7.19600108,12.8429315 7.48185373,12.5461992 7.48681589,12.1767797 C7.48681589,11.9761598 7.57747216,11.7756863 7.80099519,11.592633 C8.02451773,11.4096023 8.37351389,11.275927 8.77027038,11.275927 C9.16702638,11.275927 9.51602303,11.4096023 9.73954557,11.592633 C9.96306811,11.7756863 10.0537244,11.9761598 10.0537244,12.1767797 C10.0586865,12.5461992 10.3445392,12.8429315 10.6954516,12.8429315 C11.0463641,12.8429315 11.3322162,12.5461992 11.3371789,12.1767797 C11.3371789,11.9761598 11.4278346,11.7756863 11.6513577,11.592633 C11.8748802,11.4096023 12.2238764,11.275927 12.6206329,11.275927 C13.0173889,11.275927 13.3663855,11.4096023 13.5899081,11.592633 C13.8054882,11.7691776 13.8910086,11.962388 13.8974025,12.155666 L12.8813346,19.1583878 L8.77027038,19.1583878 L4.65920611,19.1583878 L3.64313822,12.155666 C3.64953211,11.962388 3.73505205,11.7691776 3.95063222,11.592633 C4.17415524,11.4096023 4.52315141,11.275927 4.91990789,11.275927 Z" id="path-1"></path>
                                    </g>
                                </g>
                            </g>
                        </g>
                    </g>
                </g>
            </g>
        </g>
    </g>
</svg>