<?xml version="1.0" encoding="UTF-8"?>
<svg width="21px" height="47px" viewBox="0 0 21 47" version="1.1" xmlns="http://www.w3.org/2000/svg" xmlns:xlink="http://www.w3.org/1999/xlink">
    <!-- Generator: Sketch 51.3 (57544) - http://www.bohemiancoding.com/sketch -->
    <title>Icon | Álcool</title>
    <desc>Created with Sketch.</desc>
    <defs>
        <filter x="-113.6%" y="-23.4%" width="327.3%" height="193.8%" filterUnits="objectBoundingBox" id="filter-1">
            <feOffset dx="0" dy="10" in="SourceAlpha" result="shadowOffsetOuter1"></feOffset>
            <feGaussianBlur stdDeviation="2.5" in="shadowOffsetOuter1" result="shadowBlurOuter1"></feGaussianBlur>
            <feColorMatrix values="0 0 0 0 0   0 0 0 0 0   0 0 0 0 0  0 0 0 0.5 0" type="matrix" in="shadowBlurOuter1" result="shadowMatrixOuter1"></feColorMatrix>
            <feMerge>
                <feMergeNode in="shadowMatrixOuter1"></feMergeNode>
                <feMergeNode in="SourceGraphic"></feMergeNode>
            </feMerge>
        </filter>
    </defs>
    <g id="App" stroke="none" stroke-width="1" fill="none" fill-rule="evenodd">
        <g id="Tela-de-resultado-|-Fechado" transform="translate(-64.000000, -303.000000)" fill="#FFFFFF" fill-rule="nonzero">
            <g id="Group-2" transform="translate(22.000000, -161.000000)">
                <g id="Indicadores-de-Qualidade-de-Vida-3" transform="translate(29.000000, 391.000000)">
                    <g id="Indicadores">
                        <g id="alcool" transform="translate(0.000000, 58.000000)">
                            <g id="icon-alcohol" filter="url(#filter-1)" transform="translate(18.000000, 15.000000)">
                                <g id="path-1-link">
                                    <g id="Icon-|-Álcool">
                                        <path d="M10.552861,20.5193261 L10.5931235,15.3657086 C10.5931235,13.7799802 9.610715,12.5906839 8.8094885,11.655104 C8.3182845,11.0723488 7.855264,10.5252726 7.8431855,10.1248761 C7.8150015,9.18533199 7.718371,5.76412288 7.6579775,3.64321108 C7.683043,3.54832448 7.683043,3.44870228 7.6579775,3.35381568 L7.625767,2.52527257 C7.8039935,2.52538452 7.9727815,2.44641221 8.085258,2.31028697 C8.1977345,2.17416177 8.241922,1.99537876 8.205549,1.82358769 L7.9196845,0.483647163 C7.8612875,0.224974622 7.632998,0.0376604062 7.36406,0.0277502523 L3.4907945,0 C3.214278,0.000879606154 2.9752315,0.190162117 2.9150385,0.455896911 L2.6090425,1.79187313 C2.5701615,1.96347697 2.6120465,2.14319222 2.723025,2.28093568 C2.834004,2.41867909 3.0022115,2.4997247 3.180772,2.50148662 L3.26935,2.50148662 L3.2170085,3.31813676 C3.193319,3.41050929 3.193319,3.50723102 3.2170085,3.59960354 C3.132457,5.67294351 2.9875115,9.02279483 2.931144,10.0773043 C2.90296,10.5728444 2.4077295,11.135778 1.880289,11.7304261 C1.0750365,12.6223984 0.1167855,13.7125867 0.1047065,15.2983152 L0.064444,20.4519326 L0.064444,21.6689792 L0.064444,21.950446 L2.4e-05,30.5530228 C-0.004443,31.3156037 0.6186305,31.9379569 1.393111,31.9444995 L9.087301,32 C9.85866,32.0000281 10.4858365,31.3878088 10.492467,30.6283449 L10.556887,22.1248761 L10.556887,20.5113974 L10.552861,20.5193261 Z M3.957841,1.1655104 L6.8809085,1.18533199 L6.917145,1.35976212 L6.035393,1.35976212 L3.9216045,1.35976212 L3.957841,1.1655104 Z M1.256218,22.8503469 C1.2270995,22.5512914 1.2163435,22.2507778 1.224008,21.950446 C1.2258615,21.6402106 1.247377,21.3303913 1.288428,21.0227948 L2.629174,21.0227948 L9.1275635,21.0703667 C9.2024355,21.6733415 9.2024355,22.283051 9.1275635,22.8860257 L1.256218,22.8503469 Z M6.828567,24.0396432 C6.4259405,24.9276512 5.7857645,25.4826561 5.121431,25.4826561 C4.4530715,25.4826561 3.820948,24.9117939 3.426374,24.0158573 L6.828567,24.0396432 Z M3.4626105,19.8850347 C3.865237,18.9970268 4.505413,18.4420218 5.1697465,18.4420218 C5.83408,18.4420218 6.4702295,19.0168483 6.8648035,19.9127849 L3.4626105,19.8850347 Z M8.141129,19.9207136 C7.605636,18.3151635 6.474256,17.2884044 5.1898775,17.2765114 C3.9054995,17.2765114 2.7741195,18.2794847 2.214469,19.8771061 L1.5702665,19.8771061 C2.186285,17.9425174 3.60353,16.5827552 5.242219,16.5827552 L5.2623505,16.5827552 C6.892987,16.5906839 8.3021795,17.9861249 8.906119,19.9246779 L8.141129,19.9207136 Z M2.1621275,24.0198216 C2.6976205,25.629336 3.820948,26.6521308 5.1133785,26.6600595 C6.397757,26.6600595 7.529137,25.6570862 8.0887875,24.0634291 L8.8537775,24.0634291 C8.245812,26.0257681 6.816488,27.4053518 5.16572,27.4053518 L5.161694,27.4053518 C3.498847,27.4053518 2.081602,25.9861249 1.50182,24.0079287 L2.1621275,24.0198216 Z M4.36852,4.07135778 L6.4823085,4.07135778 C6.5185445,5.38354806 6.56686,7.05649157 6.603096,8.35282457 L4.187338,8.35282457 C4.2437055,7.0445986 4.3161785,5.37958375 4.36852,4.07135778 Z M4.416835,2.92170466 L4.416835,2.52527257 L6.429967,2.52527257 L6.429967,2.92170466 L4.416835,2.92170466 Z M2.7620405,12.4995044 C3.426374,11.7502478 4.050445,11.0406343 4.1027865,10.1446977 C4.1027865,9.9861249 4.1027865,9.77205154 4.1349965,9.51833497 L6.643359,9.51833497 C6.643359,9.77998016 6.643359,9.99008921 6.643359,10.1407334 C6.6675165,10.9335976 7.259377,11.6392468 7.879422,12.3766105 C8.6242805,13.2646184 9.397323,14.1803766 9.3892705,15.333994 L9.3691395,18.0891972 C9.2357575,17.8557796 9.0878455,17.6307053 8.9262505,17.4152626 C8.09591,16.1980656 6.722492,15.4474497 5.2341665,15.3974232 L5.2019565,15.3974232 C3.720638,15.4405866 2.349091,16.1769258 1.5098725,17.3795838 C1.4132425,17.506442 1.3206385,17.6372646 1.2320605,17.7760159 L1.2320605,15.3022795 C1.2803755,14.172448 2.033287,13.3201189 2.7620405,12.4995044 Z M9.224194,30.7829534 C9.1830105,30.8245637 9.1261665,30.8475256 9.0671695,30.8463826 L1.377006,30.7869178 C1.256281,30.7847561 1.159568,30.6877676 1.159588,30.5688801 L1.191798,26.1645193 C1.2763495,26.2993062 1.3689535,26.4301288 1.4615575,26.5609514 C2.291898,27.7781484 3.665316,28.5287644 5.1536415,28.5787909 L5.1858515,28.5787909 C6.66717,28.5356275 8.038717,27.7992882 8.877935,26.5966304 C9.0345705,26.3885618 9.1784305,26.1714583 9.3087455,25.9464817 L9.3087455,30.6283449 C9.304313,30.6894148 9.2735355,30.7456935 9.224194,30.7829534 Z" id="path-1"></path>
                                    </g>
                                </g>
                            </g>
                        </g>
                    </g>
                </g>
            </g>
        </g>
    </g>
</svg>