<?xml version="1.0" encoding="UTF-8"?>
<svg width="28px" height="33px" viewBox="0 0 28 33" version="1.1" xmlns="http://www.w3.org/2000/svg" xmlns:xlink="http://www.w3.org/1999/xlink">
    <!-- Generator: Sketch 51.3 (57544) - http://www.bohemiancoding.com/sketch -->
    <title>Icon | Carne Branca</title>
    <desc>Created with Sketch.</desc>
    <defs>
        <filter x="-69.4%" y="-41.7%" width="238.9%" height="266.7%" filterUnits="objectBoundingBox" id="filter-1">
            <feOffset dx="0" dy="10" in="SourceAlpha" result="shadowOffsetOuter1"></feOffset>
            <feGaussianBlur stdDeviation="2.5" in="shadowOffsetOuter1" result="shadowBlurOuter1"></feGaussianBlur>
            <feColorMatrix values="0 0 0 0 0   0 0 0 0 0   0 0 0 0 0  0 0 0 0.5 0" type="matrix" in="shadowBlurOuter1" result="shadowMatrixOuter1"></feColorMatrix>
            <feMerge>
                <feMergeNode in="shadowMatrixOuter1"></feMergeNode>
                <feMergeNode in="SourceGraphic"></feMergeNode>
            </feMerge>
        </filter>
    </defs>
    <g id="App" stroke="none" stroke-width="1" fill="none" fill-rule="evenodd">
        <g id="Tela-de-resultado-|-Fechado" transform="translate(-65.000000, -500.000000)" fill="#FFFFFF" fill-rule="nonzero">
            <g id="Group-2" transform="translate(22.000000, -161.000000)">
                <g id="Indicadores-de-Qualidade-de-Vida-3" transform="translate(29.000000, 391.000000)">
                    <g id="Indicadores">
                        <g id="alimentacao-carnes-brancas" transform="translate(0.000000, 247.000000)">
                            <g id="icon-white-meat" filter="url(#filter-1)" transform="translate(19.000000, 23.000000)">
                                <g id="path-1-link">
                                    <g id="Icon-|-Carne-Branca">
                                        <path d="M16.1570829,1.54838708 C15.1472649,0.51612904 13.884993,0 12.4333803,0 C10.9817671,0 9.71949522,0.58064516 8.70967761,1.54838708 C7.82608696,2.45161292 6.81626935,4.12903224 6.05890604,5.87096776 C5.55399704,7.03225808 4.79663413,9.0967742 5.11220191,10.7096774 L3.0925667,12.7741936 C2.33520339,12.1935484 1.26227191,12.2580645 0.568022478,12.9677419 C-0.189340826,13.7419355 -0.189340826,14.9677419 0.568022478,15.7419355 C0.883590652,16.0645161 1.26227191,16.2580645 1.64095357,16.3225806 C1.70406743,16.7096774 1.89340826,17.1612903 2.20897604,17.4193548 C2.5876577,17.8064516 3.02945283,18 3.5974753,18 C4.16549778,18 4.6072933,17.8064516 4.98597457,17.4193548 C5.68022439,16.7096774 5.74333787,15.6129032 5.17531539,14.8387097 L7.194951,12.7741936 C7.194951,12.7741936 7.194951,12.7741936 7.194951,12.7741936 C8.77279109,13.0322581 10.8555398,12.3225806 11.9284713,11.8064516 C13.6325387,11.0322581 15.2734923,10 16.1570829,9.0967742 C17.1669005,8.06451612 17.6718091,6.77419356 17.6718091,5.2903226 C17.6718091,3.93548388 17.1037867,2.58064516 16.1570829,1.54838708 Z M6.37447422,12.516129 L4.29172513,14.6451613 C4.22861165,14.7096774 4.16549778,14.8387097 4.16549778,14.9677419 C4.16549778,15.0967742 4.22861165,15.1612903 4.29172513,15.2258064 C4.29172513,15.2258064 4.35483861,15.2903226 4.35483861,15.2903226 C4.54417943,15.483871 4.67040678,15.8064516 4.67040678,16.1290322 C4.67040678,16.4516129 4.54417943,16.7096774 4.35483861,16.9677419 C4.16549778,17.1612903 3.84993,17.2903226 3.53436183,17.2903226 C3.21879365,17.2903226 2.96633935,17.1612903 2.71388504,16.9677419 C2.46143074,16.7096774 2.33520339,16.3870968 2.39831687,16.0645161 C2.39831687,15.9354839 2.33520339,15.8709678 2.27208991,15.7419355 C2.20897604,15.6774194 2.08274909,15.6129032 2.01963522,15.6129032 C2.01963522,15.6129032 2.01963522,15.6129032 2.01963522,15.6129032 C1.70406743,15.6129032 1.38849926,15.483871 1.13604496,15.2903226 C0.694249826,14.8387097 0.694249826,14.0645161 1.13604496,13.6129032 C1.57784009,13.1612903 2.33520339,13.1612903 2.77699852,13.6129032 C2.77699852,13.6129032 2.84011239,13.6774194 2.84011239,13.6774194 C2.90322587,13.7419355 3.02945283,13.8064516 3.0925667,13.8064516 C3.21879365,13.8064516 3.28190752,13.7419355 3.40813448,13.6774194 L5.49088357,11.5483871 C5.68022439,11.6129032 5.80645174,11.6129032 5.9326787,11.6129032 C6.05890604,11.6129032 6.12201952,11.6129032 6.18513339,11.6774194 C6.24824687,11.7419355 6.24824687,11.8064516 6.24824687,11.9354839 C6.24824687,12.1290322 6.24824687,12.3225806 6.37447422,12.516129 Z M15.5890604,8.58064516 C14.7685833,9.41935484 13.1907432,10.3870968 11.6129031,11.1612903 C9.7826087,12 8.14165513,12.3225806 7.13183713,12.0645161 C7.13183713,12.0645161 7.06872365,12.0645161 7.06872365,12.0645161 C7.06872365,11.8709678 7.06872365,11.5483871 6.75315587,11.2903226 C6.4375877,10.9677419 6.18513339,10.9677419 5.99579257,10.9677419 C5.99579257,10.9677419 5.99579257,10.9032258 5.99579257,10.9032258 C5.74333787,9.87096776 6.05890604,8.1935484 6.87938283,6.32258064 C7.57363265,4.64516128 8.58345026,3.0967742 9.40392704,2.25806452 C10.2244038,1.41935484 11.3604488,0.9032258 12.5596072,0.9032258 C13.7587657,0.9032258 14.8948106,1.35483872 15.7152874,2.25806452 C16.5357646,3.0967742 17.0406732,4.25806452 17.0406732,5.48387096 C16.9144458,6.58064516 16.4095372,7.67741936 15.5890604,8.58064516 Z M15.9677421,4.7096774 C15.9046282,4.51612904 15.7152874,4.32258064 15.5259466,4.38709676 C15.3366057,4.45161292 15.1472649,4.64516128 15.2103788,4.83870968 C15.3366057,5.74193548 15.0841514,6.7096774 14.4530155,7.35483872 C14.1374473,7.67741936 13.5694248,8.12903224 12.8751754,8.51612904 C12.6858346,8.64516128 12.6227211,8.9032258 12.748948,9.03225808 C12.8120615,9.16129032 12.9382889,9.22580644 13.0645162,9.22580644 C13.1276297,9.22580644 13.1907432,9.22580644 13.253857,9.16129032 C13.9481065,8.7096774 14.5792428,8.25806452 14.9579241,7.87096776 C15.7784013,7.0967742 16.1570829,5.87096776 15.9677421,4.7096774 Z M14.4530155,3.35483872 C14.516129,3.41935484 14.6423563,3.48387096 14.7054698,3.48387096 C14.8316971,3.48387096 14.8948106,3.41935484 14.9579241,3.35483872 C15.0841514,3.22580644 15.0841514,2.96774192 14.9579241,2.77419356 C14.9579241,2.77419356 14.9579241,2.77419356 14.8948106,2.7096774 C14.7685833,2.58064516 14.516129,2.58064516 14.3267881,2.7096774 C14.2636747,2.9032258 14.2636747,3.16129032 14.4530155,3.35483872 C14.4530155,3.35483872 14.4530155,3.35483872 14.4530155,3.35483872 Z" id="path-1"></path>
                                    </g>
                                </g>
                            </g>
                        </g>
                    </g>
                </g>
            </g>
        </g>
    </g>
</svg>