<?xml version="1.0" encoding="UTF-8"?>
<svg width="27px" height="41px" viewBox="0 0 27 41" version="1.1" xmlns="http://www.w3.org/2000/svg" xmlns:xlink="http://www.w3.org/1999/xlink">
    <!-- Generator: Sketch 51.3 (57544) - http://www.bohemiancoding.com/sketch -->
    <title>Icon | Refrigerantes</title>
    <desc>Created with Sketch.</desc>
    <defs>
        <filter x="-73.5%" y="-28.8%" width="247.1%" height="215.4%" filterUnits="objectBoundingBox" id="filter-1">
            <feOffset dx="0" dy="10" in="SourceAlpha" result="shadowOffsetOuter1"></feOffset>
            <feGaussianBlur stdDeviation="2.5" in="shadowOffsetOuter1" result="shadowBlurOuter1"></feGaussianBlur>
            <feColorMatrix values="0 0 0 0 0   0 0 0 0 0   0 0 0 0 0  0 0 0 0.5 0" type="matrix" in="shadowBlurOuter1" result="shadowMatrixOuter1"></feColorMatrix>
            <feMerge>
                <feMergeNode in="shadowMatrixOuter1"></feMergeNode>
                <feMergeNode in="SourceGraphic"></feMergeNode>
            </feMerge>
        </filter>
    </defs>
    <g id="App" stroke="none" stroke-width="1" fill="none" fill-rule="evenodd">
        <g id="Tela-de-resultado-|-Fechado" transform="translate(-64.000000, -371.000000)" fill="#FFFFFF" fill-rule="nonzero">
            <g id="Group-2" transform="translate(22.000000, 139.000000)">
                <g id="Indicadores-de-Qualidade-de-Vida-2" transform="translate(27.000000, 220.000000)">
                    <g id="Indicadores">
                        <g id="alimentacao-refri">
                            <g id="icon-soft-drinks" filter="url(#filter-1)" transform="translate(20.000000, 12.000000)">
                                <g id="path-1-link">
                                    <g id="Icon-|-Refrigerantes">
                                        <path d="M15.9375,23.7714286 C15.9375,23.6785714 15.9375,23.6785714 16.0323658,23.5857143 C16.4118303,23.4 16.6964283,23.0285714 16.6964283,22.6571429 L16.6964283,3.34285713 C16.6964283,2.87857144 16.4118303,2.50714287 15.9375,2.32142856 L14.7991072,0.928571436 C15.0837053,0.928571436 15.1785717,0.65 15.1785717,0.464285692 C15.1785717,0.185714308 14.9888394,0 14.7042408,0 L1.9921875,0 C1.70758944,0 1.51785722,0.185714308 1.51785722,0.464285692 C1.51785722,0.742857128 1.70758944,0.928571436 1.89732166,0.928571436 L0.758928344,2.32142856 C0.284598063,2.41428569 0,2.87857144 0,3.34285713 L0,22.6571429 C0,23.1214286 0.284598063,23.4928571 0.6640625,23.5857143 C0.6640625,23.6785714 0.6640625,23.6785714 0.758928344,23.7714286 C0.948660563,24.1428571 1.61272306,26 2.75111584,26 L14.0401783,26 C15.0837053,26 15.8426342,24.1428571 15.9375,23.7714286 Z M3.22544666,1.02142856 L13.4709822,1.02142856 L14.5145092,2.32142856 L2.08705334,2.32142856 L3.22544666,1.02142856 Z M1.13839278,22.6571429 L1.13839278,3.34285713 L15.6529019,3.34285713 L15.6529019,4.45714287 L14.0401783,4.45714287 C13.7555803,4.45714287 13.5658481,4.64285713 13.5658481,4.92142856 C13.5658481,5.2 13.7555803,5.38571431 14.0401783,5.38571431 L15.6529019,5.38571431 L15.6529019,22.5642857 L1.13839278,22.5642857 L1.13839278,22.6571429 Z M13.9453125,24.9785714 L2.84598222,24.9785714 C2.46651778,24.9785714 2.08705334,24.2357143 1.89732166,23.6785714 L14.8939731,23.6785714 C14.7042408,24.2357143 14.3247769,24.9785714 13.9453125,24.9785714 Z M8.72767834,19.3142857 C9.01227694,19.3142857 9.20200916,19.5 9.20200916,19.7785714 C9.20200916,20.0571429 9.01227694,20.2428571 8.72767834,20.2428571 L6.640625,20.2428571 C6.35602694,20.2428571 6.16629472,20.0571429 6.16629472,19.7785714 C6.16629472,19.5 6.35602694,19.3142857 6.640625,19.3142857 L8.72767834,19.3142857 Z M8.44308028,7.8 C5.88169666,7.8 3.79464278,10.1214286 3.79464278,12.9071429 C3.79464278,15.6928571 5.88169666,18.0142857 8.44308028,18.0142857 C11.0044644,18.0142857 13.0915178,15.6928571 13.0915178,12.9071429 C13.0915178,10.1214286 11.0044644,7.8 8.44308028,7.8 Z M8.44308028,16.9928571 C6.45089278,16.9928571 4.83816972,15.1357143 4.83816972,12.9071429 C4.83816972,10.6785714 6.45089278,8.82142856 8.44308028,8.82142856 C10.4352678,8.82142856 12.0479908,10.6785714 12.0479908,12.9071429 C12.0479908,15.1357143 10.4352678,16.9928571 8.44308028,16.9928571 Z" id="path-1"></path>
                                    </g>
                                </g>
                            </g>
                        </g>
                    </g>
                </g>
            </g>
        </g>
    </g>
</svg>