<?xml version="1.0" encoding="UTF-8"?>
<svg width="31px" height="35px" viewBox="0 0 31 35" version="1.1" xmlns="http://www.w3.org/2000/svg" xmlns:xlink="http://www.w3.org/1999/xlink">
    <!-- Generator: Sketch 51.3 (57544) - http://www.bohemiancoding.com/sketch -->
    <title>path-1</title>
    <desc>Created with Sketch.</desc>
    <defs>
        <filter x="-59.5%" y="-37.5%" width="219.0%" height="250.0%" filterUnits="objectBoundingBox" id="filter-1">
            <feOffset dx="0" dy="10" in="SourceAlpha" result="shadowOffsetOuter1"></feOffset>
            <feGaussianBlur stdDeviation="2.5" in="shadowOffsetOuter1" result="shadowBlurOuter1"></feGaussianBlur>
            <feColorMatrix values="0 0 0 0 0   0 0 0 0 0   0 0 0 0 0  0 0 0 0.5 0" type="matrix" in="shadowBlurOuter1" result="shadowMatrixOuter1"></feColorMatrix>
            <feMerge>
                <feMergeNode in="shadowMatrixOuter1"></feMergeNode>
                <feMergeNode in="SourceGraphic"></feMergeNode>
            </feMerge>
        </filter>
    </defs>
    <g id="App" stroke="none" stroke-width="1" fill="none" fill-rule="evenodd">
        <g id="Tela-de-resultado-|-Fechado" transform="translate(-63.000000, -627.000000)" fill="#FFFFFF" fill-rule="nonzero">
            <g id="Group-2" transform="translate(22.000000, -161.000000)">
                <g id="Indicadores-de-Qualidade-de-Vida-3" transform="translate(29.000000, 391.000000)">
                    <g id="Indicadores">
                        <g id="alimentacao-legumes" transform="translate(0.000000, 373.000000)">
                            <g id="icon-vegetables" filter="url(#filter-1)" transform="translate(17.000000, 24.000000)">
                                <g id="path-1-link">
                                    <path d="M20.723409,11.0331596 C20.6897371,10.3604421 20.4044606,9.79884204 19.9279092,9.44480552 C20.2272152,8.38053136 20.2786586,6.89511732 19.7137181,5.81833644 C19.3468341,5.11916244 18.7547691,4.65569208 18.0020606,4.47795228 C17.9319109,4.46135684 17.8601239,4.44740704 17.7864664,4.4363434 C17.5402403,2.7501002 16.6317993,2.02615324 16.0967893,1.7423468 C15.5054258,1.42895716 14.830116,1.35103064 14.2766334,1.51578268 C13.4406806,0.189829361 11.8630093,-0.246703399 10.7728798,0.129941401 C10.6201869,0.182854481 10.4784839,0.251881961 10.3423934,0.328605921 C10.205601,0.251160441 10.0596891,0.184057041 9.90302094,0.129941401 C8.81265778,-0.247184439 7.23218067,0.190791441 6.39669528,1.51963092 C5.87454622,1.3762846 5.23173933,1.46046448 4.65931628,1.76399308 C4.10396311,2.05838212 3.16722817,2.79627888 2.89130489,4.48516772 C2.16034311,4.64607152 1.56500439,5.11387112 1.16865739,5.84334988 C0.571681833,6.94273908 0.534034667,8.41131716 0.802241222,9.4424004 C0.323585111,9.79643688 0.0373733889,10.358999 0.00346772222,11.0331596 C-0.044702,11.9932912 0.412675278,13.0068169 1.14480644,13.6287859 C0.992347222,14.0393432 1.03396961,14.5865124 1.27458372,15.2005445 C1.80819061,16.5620938 3.149223,17.9844932 5.17281372,18.9239407 C5.19572939,18.93765 5.22004778,18.9489541 5.24553556,18.9578531 C6.64455828,19.593772 8.36346467,20 10.3636723,20 C15.316021,20 18.5464238,17.5121239 19.452293,15.2005445 C19.6929071,14.5867529 19.7347632,14.0393432 19.5820703,13.6287859 C20.3142011,13.0068169 20.7715787,11.9930506 20.723409,11.0331596 Z M13.7488723,2.21086796 C13.7975094,2.31092176 13.8835601,2.38596212 13.9873821,2.41891252 C14.0912038,2.45186292 14.2034437,2.43959672 14.2983801,2.38524056 C14.5932434,2.21567824 15.1680048,2.16974008 15.7329453,2.46917992 C16.3851053,2.81479844 16.8202685,3.51421296 16.9820813,4.4507742 C16.3411449,4.57680352 15.6525067,5.00563988 15.0220929,6.00016496 C14.9280923,5.82410876 14.8160861,5.62544428 14.6860751,5.41282996 C15.2538213,4.72760576 15.3779869,4.06955964 15.3833649,4.03925488 C15.4146984,3.86367972 15.3019911,3.695801 15.1312929,3.66261008 C14.9619979,3.62941912 14.7957425,3.74510632 14.7625384,3.920441 C14.7616031,3.9254918 14.6748509,4.3586574 14.3161511,4.84954632 C13.967506,4.3536066 13.5416964,3.84347652 13.0469057,3.4386916 C12.9103473,3.3268526 12.7118231,3.35042296 12.6033246,3.4906426 C12.4948262,3.63086224 12.5175077,3.83529908 12.6538323,3.94689752 C13.6462196,4.75863204 14.3664251,6.0901172 14.6495969,6.66975576 C14.531979,6.91026972 14.4171669,7.17339196 14.3065638,7.46321124 C13.9034358,7.29918072 13.2741914,7.13755536 12.6629518,7.35738512 C12.7083157,6.76403724 12.6122103,6.23322296 12.3718299,5.7726388 C12.0678468,5.18987352 11.6022853,4.86060996 11.2786606,4.69032608 C11.4734433,3.9495432 11.6242657,3.35451172 11.6177184,2.6998328 C11.6109373,1.98093664 11.4039952,1.36786664 11.0282254,0.904396281 C11.7792971,0.646324841 13.1402052,0.956587801 13.7488723,2.21086796 Z M5.02362817,2.49106668 C5.57640922,2.19812072 6.10206606,2.2269824 6.37798894,2.38548108 C6.47292489,2.43983724 6.58563267,2.45210344 6.68922061,2.41915304 C6.79304228,2.3862026 6.87909289,2.31092176 6.92773006,2.21110848 C7.536865,0.955625761 8.9001115,0.646324841 9.65024783,0.905117801 C10.3980454,1.1634298 10.8145022,1.80367788 10.8233879,2.70825076 C10.8289996,3.27201544 10.6875308,3.808602 10.4920464,4.55154956 L10.4209611,4.82284928 C10.3646076,5.03907128 10.4878375,5.2617872 10.6975855,5.32239672 C10.7038991,5.32432084 11.3394571,5.5227448 11.6719676,6.15962572 C11.9364327,6.6668696 11.9474231,7.32756136 11.7077442,8.12245992 C11.3156062,8.6643378 11.1133408,9.33681476 11.0165339,9.8034118 C10.7913528,9.72500428 10.5544798,9.67161016 10.3414582,9.65381212 C10.1637449,9.6396218 9.99234522,9.64996392 9.827727,9.67906608 C9.68812872,9.2059752 9.39513594,8.44715372 8.85264333,7.890845 C9.25670667,7.795842 9.66310839,7.6522552 10.0038031,7.43410904 C10.1518196,7.33934656 10.1969494,7.13899844 10.1048189,6.98675312 C10.0124551,6.8345078 9.81813972,6.78808864 9.66988983,6.88285112 C9.22373628,7.16858168 8.61460133,7.30326948 8.0877755,7.3660436 C7.83804194,7.27200264 7.58503472,7.24217892 7.34488806,7.25179948 C7.49547672,6.30513664 7.93882406,4.23575476 9.09816794,2.5807784 C9.20011906,2.43526744 9.16808394,2.23227368 9.02661511,2.12765012 C8.88538,2.02302656 8.68802511,2.055977 8.58607361,2.2012474 C7.95495867,3.1022126 7.52493972,4.102029 7.23335006,5.00058908 C6.88306811,4.64462844 6.6190705,4.26605952 6.44533283,3.98201256 C6.35250117,3.83024828 6.157718,3.78431012 6.01016967,3.87979416 C5.86262094,3.97527816 5.81819272,4.17562628 5.91079067,4.32739056 C6.14088222,4.7040354 6.51571628,5.22955832 7.02968117,5.69038304 C6.83700306,6.41000072 6.73622094,7.01320968 6.68734967,7.36892976 C6.593349,7.39779144 6.50519411,7.42929876 6.42639239,7.46128712 C5.99613972,6.2527046 5.25816278,4.58113276 3.71229289,4.42936848 C3.965066,3.22703932 4.62447533,2.70247844 5.02362817,2.49106668 Z M2.01209322,14.8946108 C1.78995172,14.3277194 1.82292211,13.9428971 1.95386878,13.8132601 C2.04272522,13.725232 2.08691972,13.5996837 2.07335722,13.4734139 C2.05979511,13.3473846 1.98987872,13.2348241 1.8841865,13.1689233 C1.21472244,12.7516316 0.757578889,11.8711101 0.797564444,11.0752495 C0.815569611,10.7190484 0.942541056,10.2428308 1.44574967,9.99798756 C1.63234828,9.90731384 1.72026944,9.68507896 1.64848289,9.48617392 C1.34894278,8.65640084 1.32205189,7.23760916 1.86267394,6.24236252 C2.15262678,5.70842156 2.56347117,5.38396828 3.08351594,5.27766112 C4.45190628,4.99698136 5.14732594,6.173335 5.82427222,8.16118268 C5.86378994,8.2775914 5.95311422,8.3692272 6.06628944,8.4105956 C6.17876311,8.451964 6.305033,8.43873576 6.40745194,8.37451852 C6.41657139,8.3687462 7.32664917,7.80666512 7.98255072,8.21601984 C8.63494489,8.6224884 8.95927122,9.53042848 9.08671011,9.98884804 C8.97961478,10.0646099 8.87789739,10.1514355 8.78342889,10.2522108 C8.1969755,10.876104 7.90842578,11.9499986 8.03001889,13.0544386 C8.171254,14.3399856 8.13290528,15.4088295 7.92385883,16.22802 C6.51010461,15.0278554 5.54811561,13.5621636 4.90858239,12.2619452 C5.15340544,11.981025 5.58155383,11.3896012 5.77516722,10.5102822 C5.81374967,10.3354286 5.70688806,10.161537 5.5368915,10.1218522 C5.36712867,10.0826485 5.19783367,10.1918418 5.15925122,10.366936 C5.03672283,10.9234852 4.79984983,11.342701 4.608107,11.611355 C3.96553383,10.1295487 3.75578583,8.9969686 3.75181061,8.97411976 C3.72047706,8.79782304 3.55562472,8.68069276 3.38492661,8.7124406 C3.21352694,8.74442896 3.09941644,8.91302924 3.13051628,9.08932592 C3.15764089,9.24469792 3.68095894,12.0902183 5.67461922,14.7565558 C5.33252144,14.8498752 4.73274006,14.9376627 3.93139406,14.761366 C3.7613975,14.7236053 3.59303778,14.8354443 3.55656,15.010779 C3.51984811,15.1861136 3.62858067,15.3588026 3.79904467,15.3963228 C4.17855589,15.4800216 4.52205639,15.511529 4.82440233,15.511529 C5.43166672,15.511529 5.86799889,15.3852592 6.10089667,15.2969906 C6.56248289,15.8487295 7.09258239,16.383392 7.69867739,16.8754835 C7.58526844,17.1217698 7.45034694,17.3348651 7.29134039,17.5087567 C6.85781406,17.9828096 6.25312217,18.1975886 5.44663194,18.1641572 C3.44759372,17.212203 2.36892211,15.804956 2.01209322,14.8946108 Z M18.8426902,13.1689233 C18.7369976,13.2348241 18.6673153,13.3473846 18.6535195,13.4734139 C18.6397233,13.5996837 18.6839178,13.725232 18.7730079,13.8132601 C18.9041883,13.9431376 18.936925,14.3279599 18.7147835,14.8948512 C18.1337084,16.3776196 15.6405811,19.1820121 10.3636723,19.1820121 C9.69303922,19.1820121 9.06800339,19.1363145 8.48552561,19.0542992 C10.0889184,18.697136 11.4210651,18.0479889 12.5249903,17.245875 C12.5633391,17.2316846 12.5998168,17.2107599 12.6316182,17.1806957 C12.6398024,17.1729992 12.6433098,17.1624166 12.6505587,17.1539986 C13.4065408,16.5880694 14.0526213,15.9507074 14.6039997,15.2885726 C14.8296486,15.3773222 15.2711249,15.5112885 15.8977976,15.5112885 C16.2006114,15.5112885 16.5457487,15.4797811 16.9278317,15.3960823 C17.0982961,15.3588026 17.2072623,15.1863542 17.1710183,15.0110195 C17.1347742,14.8356848 16.9666482,14.7236053 16.7966517,14.760885 C15.9794052,14.9393463 15.3695687,14.8431408 15.0305108,14.7481378 C15.6136906,13.966227 16.0731721,13.1677207 16.4323398,12.4264568 C16.4356134,12.422849 16.4395887,12.4202034 16.4428623,12.4163552 C16.4807432,12.3716196 16.4994499,12.318466 16.5095047,12.2641098 C17.3309601,10.5170166 17.5905147,9.12540304 17.5968279,9.08884492 C17.627694,8.9125482 17.5138172,8.74346688 17.3421838,8.71171904 C17.171252,8.67973072 17.0063997,8.79710152 16.9755339,8.97363872 C16.9699219,9.00562708 16.7592382,10.1312323 16.1159639,11.6055827 C15.9246885,11.3364476 15.6899202,10.9191559 15.5680929,10.3662144 C15.5295105,10.1911203 15.3592802,10.0821674 15.1904527,10.1211307 C15.0202224,10.1608155 14.9135945,10.3347071 14.9521769,10.5095607 C15.1441539,11.3819048 15.5673914,11.9714044 15.8131501,12.2547298 C15.1242782,13.6461029 14.0622086,15.2282036 12.4658306,16.479357 C12.1655893,16.055331 11.594569,15.0976045 11.4778864,13.810855 C11.4615181,13.6323936 11.3060189,13.5013135 11.1341518,13.5176685 C10.9606478,13.5342639 10.8329748,13.6927626 10.8491094,13.871224 C10.9793546,15.3063706 11.6039222,16.3663155 11.951632,16.8572044 C10.6830881,17.729789 9.11149633,18.3880756 7.16740889,18.6165638 C7.42836656,18.4741796 7.664538,18.2935536 7.87031078,18.0686731 C8.76542372,17.090503 9.08483956,15.3722714 8.82014039,12.9616002 C8.72613972,12.1065732 8.93612183,11.2657365 9.35515039,10.8195832 C9.60207811,10.556942 9.91167294,10.4390901 10.2780891,10.4684328 C10.5460619,10.4905601 10.8940055,10.6036016 11.1243308,10.7433402 C11.2414812,10.8145324 11.3864574,10.8188616 11.5078168,10.7546444 C11.6291762,10.6906677 11.7100826,10.566803 11.7222416,10.4270644 C11.7547446,10.0528248 11.9324578,9.13237792 12.3793126,8.55610656 C12.3842231,8.5498532 12.389601,8.54408084 12.3942778,8.53734644 C12.4966967,8.408431 12.6129115,8.29755408 12.7445597,8.2155388 C13.4004613,7.80714616 14.3107732,8.36850568 14.3187232,8.37331596 C14.4213759,8.43849524 14.5469442,8.45268556 14.6603532,8.41107664 C14.7739962,8.36970824 14.8630864,8.2775914 14.9030719,8.16070164 C15.4170368,6.65099568 16.3406771,4.9248272 17.8245814,5.27477496 C18.3553821,5.3998422 18.7554706,5.71323184 19.0140899,6.2062854 C19.4995271,7.13154252 19.4139443,8.55634704 19.0783938,9.48569288 C19.0066073,9.68459792 19.0945284,9.9068328 19.2811271,9.99750656 C19.7845694,10.2425902 19.9115408,10.7185673 19.9293123,11.0747684 C19.9695316,11.8711101 19.512388,12.7516316 18.8426902,13.1689233 Z" id="path-1"></path>
                                </g>
                            </g>
                        </g>
                    </g>
                </g>
            </g>
        </g>
    </g>
</svg>