<?xml version="1.0" encoding="UTF-8"?>
<svg width="25px" height="35px" viewBox="0 0 25 35" version="1.1" xmlns="http://www.w3.org/2000/svg" xmlns:xlink="http://www.w3.org/1999/xlink">
    <!-- Generator: Sketch 51.3 (57544) - http://www.bohemiancoding.com/sketch -->
    <title>path-1</title>
    <desc>Created with Sketch.</desc>
    <defs>
        <filter x="-83.3%" y="-37.5%" width="266.7%" height="250.0%" filterUnits="objectBoundingBox" id="filter-1">
            <feOffset dx="0" dy="10" in="SourceAlpha" result="shadowOffsetOuter1"></feOffset>
            <feGaussianBlur stdDeviation="2.5" in="shadowOffsetOuter1" result="shadowBlurOuter1"></feGaussianBlur>
            <feColorMatrix values="0 0 0 0 0   0 0 0 0 0   0 0 0 0 0  0 0 0 0.5 0" type="matrix" in="shadowBlurOuter1" result="shadowMatrixOuter1"></feColorMatrix>
            <feMerge>
                <feMergeNode in="shadowMatrixOuter1"></feMergeNode>
                <feMergeNode in="SourceGraphic"></feMergeNode>
            </feMerge>
        </filter>
    </defs>
    <g id="App" stroke="none" stroke-width="1" fill="none" fill-rule="evenodd">
        <g id="Tela-de-resultado-|-Fechado" transform="translate(-67.000000, -561.000000)" fill="#FFFFFF" fill-rule="nonzero">
            <g id="Group-2" transform="translate(22.000000, -161.000000)">
                <g id="Indicadores-de-Qualidade-de-Vida-3" transform="translate(29.000000, 391.000000)">
                    <g id="Indicadores">
                        <g id="alimentacao-frutas" transform="translate(0.000000, 310.000000)">
                            <g id="icon-fruit" filter="url(#filter-1)" transform="translate(21.000000, 21.000000)">
                                <g id="path-1-link">
                                    <path d="M9.80548207,5.46361134 C10.1762345,4.78621425 10.5810234,4.3474864 10.5923733,4.33533796 C10.8014656,4.11379905 10.7906426,3.7657588 10.5680228,3.55745102 C10.3451872,3.34892807 9.99448427,3.35946985 9.78474402,3.58106233 C9.76581768,3.60105011 9.63014415,3.74656411 9.44351012,3.99149964 C9.32117451,2.05054036 7.7808739,0.434534363 5.77402793,0.265509672 L2.64469793,0.00201869008 C2.49875634,-0.0105131281 2.35286854,0.0356878901 2.24058512,0.129864726 C2.12830134,0.224041526 2.05822573,0.358772072 2.04583427,0.504313199 L1.95070427,1.62077425 C1.79521171,3.44460414 2.90557463,5.08916942 4.55265293,5.69893927 C1.87840976,6.83810411 0,9.47983622 0,12.5499703 C0,16.6579311 3.36244683,20 7.49545756,20 C11.6284134,20 14.9908606,16.6579311 14.9908606,12.5499703 C14.9908602,9.2430832 12.8112461,6.43402022 9.80548207,5.46361134 Z M3.05492524,1.71376789 L3.10330207,1.14607131 L5.6804678,1.36303854 C7.27851951,1.49766127 8.46845561,2.89934229 8.33306598,4.48765567 L8.28463537,5.05540611 L5.70752341,4.83843927 C4.10947098,4.70381633 2.91953561,3.30213531 3.05492524,1.71376789 Z M7.4954572,18.8984915 C3.97354061,18.8984915 1.10822524,16.0505417 1.10822524,12.5499703 C1.10822524,9.04939884 3.97354061,6.20144909 7.4954572,6.20144909 C7.76280073,6.20144909 8.02578695,6.21978236 8.28459402,6.25164371 C8.16458634,6.67377865 8.08826049,7.12973749 8.08826049,7.60764778 C8.08826049,7.91179974 8.33636634,8.158402 8.64237293,8.158402 C8.94837951,8.158402 9.19648646,7.91179974 9.19648646,7.60764778 C9.19648646,7.21416658 9.26538512,6.83450058 9.37220305,6.48154553 C11.981051,7.2802608 13.8826354,9.69834338 13.8826354,12.5499703 C13.8826354,16.0505417 11.0173741,18.8984915 7.4954572,18.8984915 Z" id="path-1"></path>
                                </g>
                            </g>
                        </g>
                    </g>
                </g>
            </g>
        </g>
    </g>
</svg>