<?xml version="1.0" encoding="UTF-8"?>
<svg width="30px" height="36px" viewBox="0 0 30 36" version="1.1" xmlns="http://www.w3.org/2000/svg" xmlns:xlink="http://www.w3.org/1999/xlink">
    <!-- Generator: Sketch 51.3 (57544) - http://www.bohemiancoding.com/sketch -->
    <title>Icon | Massas</title>
    <desc>Created with Sketch.</desc>
    <defs>
        <filter x="-59.5%" y="-35.7%" width="219.0%" height="242.9%" filterUnits="objectBoundingBox" id="filter-1">
            <feOffset dx="0" dy="10" in="SourceAlpha" result="shadowOffsetOuter1"></feOffset>
            <feGaussianBlur stdDeviation="2.5" in="shadowOffsetOuter1" result="shadowBlurOuter1"></feGaussianBlur>
            <feColorMatrix values="0 0 0 0 0   0 0 0 0 0   0 0 0 0 0  0 0 0 0.5 0" type="matrix" in="shadowBlurOuter1" result="shadowMatrixOuter1"></feColorMatrix>
            <feMerge>
                <feMergeNode in="shadowMatrixOuter1"></feMergeNode>
                <feMergeNode in="SourceGraphic"></feMergeNode>
            </feMerge>
        </filter>
    </defs>
    <g id="App" stroke="none" stroke-width="1" fill="none" fill-rule="evenodd">
        <g id="Tela-de-resultado-|-Fechado" transform="translate(-59.000000, -372.000000)" fill="#FFFFFF">
            <g id="Group-2" transform="translate(22.000000, -161.000000)">
                <g id="Indicadores-de-Qualidade-de-Vida-3" transform="translate(29.000000, 391.000000)">
                    <g id="Indicadores">
                        <g id="alimentacao-massas" transform="translate(0.000000, 126.000000)">
                            <g id="Icon-|-Massas" transform="translate(13.000000, 16.000000)">
                                <g id="icon-pastas" filter="url(#filter-1)">
                                    <path d="M10,21 C4.47999998,21 0,16.321519 0,10.556962 C0,10.2506329 0.24,10 0.533333333,10 L19.4666667,10 C19.76,10 20,10.2506329 20,10.556962 C20,16.321519 15.52,21 10,21 Z M1.09333333,11.113924 C1.36,15.9873418 5.25333334,19.8860759 10,19.8860759 C14.7466667,19.8860759 18.64,15.9873418 18.9066667,11.113924 L1.09333333,11.113924 Z" id="Shape" fill-rule="nonzero"></path>
                                    <g id="Shape" transform="translate(1.000000, 0.000000)">
                                        <g id="Group" transform="translate(0.000000, 4.404114)">
                                            <path d="M0.801607191,7.29431336 C0.568882523,7.29431336 0.362016152,7.12915911 0.310299558,6.8814277 C0.206866372,6.44101632 0.155149779,5.97307925 0.155149779,5.50514215 C0.155149779,2.47731397 2.48239647,0 5.32680909,0 C7.39547282,0 9.25727017,1.29370841 10.0588774,3.3030853 C10.1623106,3.57834241 10.0588774,3.90865094 9.80029438,4.01875378 C9.54171143,4.12885662 9.23141186,4.01875378 9.12797867,3.74349667 C8.48152128,2.14700545 6.98174007,1.10102843 5.32680909,1.10102843 C3.05127899,1.10102843 1.18948164,3.08287961 1.18948164,5.50514215 C1.18948164,5.89050213 1.24119823,6.24833635 1.31877312,6.60617061 C1.39634801,6.90895342 1.21533994,7.21173623 0.956756973,7.26678768 C0.879182084,7.29431336 0.82746549,7.29431336 0.801607191,7.29431336 Z" id="Path"></path>
                                            <path d="M2.61168795,7.04658199 C2.40482158,7.04658199 2.1979552,6.90895342 2.12038032,6.68874773 C1.99108883,6.30338779 1.93937224,5.91802781 1.93937224,5.50514215 C1.93937224,3.52329099 3.43915344,1.92679976 5.30095079,1.92679976 C7.16274814,1.92679976 8.66252935,3.52329099 8.66252935,5.50514215 C8.66252935,5.89050213 8.61081273,6.24833635 8.50737954,6.60617061 C8.42980466,6.90895342 8.1195051,7.04658199 7.86092215,6.96400482 C7.57648089,6.8814277 7.44718939,6.55111916 7.52476428,6.27586207 C7.6023392,6.02813066 7.62819746,5.78039929 7.62819746,5.53266787 C7.62819746,4.15638234 6.59386562,3.0553539 5.30095079,3.0553539 C4.00803595,3.0553539 2.9737041,4.15638234 2.9737041,5.53266787 C2.9737041,5.80792497 3.02542069,6.0831821 3.10299558,6.35843919 C3.20642877,6.63369633 3.05127899,6.96400482 2.79269603,7.04658199 C2.74097943,7.04658199 2.66340454,7.04658199 2.61168795,7.04658199 Z" id="Path"></path>
                                            <path d="M6.25770775,6.99153054 C6.12841629,6.99153054 5.9991248,6.93647914 5.92154992,6.85390198 C5.71468354,6.66122201 5.68882523,6.30338779 5.89569161,6.0831821 C6.02498311,5.91802781 6.10255799,5.72534784 6.10255799,5.53266787 C6.10255799,5.06473081 5.76640011,4.70689655 5.32680909,4.70689655 C4.88721803,4.70689655 4.5510602,5.06473081 4.5510602,5.53266787 C4.5510602,5.72534784 4.62863508,5.91802781 4.73206827,6.0831821 C4.91307634,6.30338779 4.88721803,6.66122201 4.68035166,6.85390198 C4.47348528,7.04658199 4.13732745,7.01905627 3.95631938,6.79885057 C3.67187811,6.44101632 3.51672833,6.00060498 3.51672833,5.53266787 C3.51672833,4.45916514 4.31833552,3.60586812 5.32680909,3.60586812 C6.33528267,3.60586812 7.13688983,4.45916514 7.13688983,5.53266787 C7.13688983,6.00060498 6.98174007,6.46854204 6.6714405,6.8263763 C6.54214901,6.90895342 6.41285755,6.99153054 6.25770775,6.99153054 Z" id="Path"></path>
                                        </g>
                                        <g id="Group" transform="translate(8.533238, 4.404114)">
                                            <path d="M9.80029438,7.29431336 C9.7485778,7.29431336 9.7227195,7.29431336 9.67100292,7.26678768 C9.38656162,7.18421051 9.23141186,6.8814277 9.30898674,6.60617061 C9.38656162,6.24833635 9.43827824,5.89050213 9.43827824,5.50514215 C9.43827824,3.08287961 7.57648089,1.10102843 5.30095079,1.10102843 C3.02542069,1.10102843 1.16362335,3.08287961 1.16362335,5.50514215 C1.16362335,5.89050213 1.21533994,6.24833635 1.29291483,6.60617061 C1.37048972,6.90895342 1.18948164,7.21173623 0.930898674,7.26678768 C0.646457413,7.3493648 0.362016152,7.15668483 0.310299558,6.8814277 C0.206866372,6.44101632 0.155149779,5.97307925 0.155149779,5.50514215 C0.155149779,2.47731397 2.48239647,0 5.32680909,0 C8.17122171,0 10.4984684,2.47731397 10.4984684,5.50514215 C10.4984684,5.97307925 10.4467518,6.44101632 10.3433186,6.8814277 C10.2398854,7.12915911 10.0330191,7.29431336 9.80029438,7.29431336 Z" id="Path"></path>
                                            <path d="M7.91263872,7.23926196 C7.83506384,7.23926196 7.78334727,7.21173623 7.70577238,7.18421051 C7.44718939,7.07410767 7.31789794,6.74379917 7.42133109,6.46854204 C7.55062258,6.16575922 7.6023392,5.83545069 7.6023392,5.50514215 C7.6023392,4.12885662 6.56800731,3.02782819 5.27509248,3.02782819 C3.98217765,3.02782819 2.9478458,4.12885662 2.9478458,5.50514215 C2.9478458,5.78039929 2.9995624,6.05565638 3.07713729,6.33091347 C3.18057047,6.60617061 3.02542069,6.93647914 2.76683773,7.01905627 C2.50825476,7.12915911 2.1979552,6.96400482 2.12038032,6.68874773 C1.99108883,6.30338779 1.93937224,5.91802781 1.93937224,5.50514215 C1.93937224,3.52329099 3.43915344,1.92679976 5.30095079,1.92679976 C7.16274814,1.92679976 8.66252935,3.52329099 8.66252935,5.50514215 C8.66252935,5.97307925 8.58495446,6.44101632 8.40394636,6.8814277 C8.32637147,7.10163339 8.1195051,7.23926196 7.91263872,7.23926196 Z" id="Path"></path>
                                            <path d="M6.20599117,7.01905627 C6.07669968,7.01905627 5.94740818,6.96400482 5.84397504,6.85390198 C5.63710866,6.63369633 5.63710866,6.30338779 5.84397504,6.0831821 C5.9991248,5.91802781 6.07669968,5.72534784 6.07669968,5.50514215 C6.07669968,5.03720509 5.74054185,4.67937083 5.30095079,4.67937083 C4.86135977,4.67937083 4.5252019,5.03720509 4.5252019,5.50514215 C4.5252019,5.72534784 4.60277678,5.94555353 4.75792658,6.0831821 C4.96479292,6.30338779 4.96479292,6.63369633 4.75792658,6.85390198 C4.5510602,7.07410767 4.24076064,7.07410767 4.03389426,6.85390198 C3.69773641,6.49606776 3.49087003,6.00060498 3.49087003,5.47761647 C3.49087003,4.40411374 4.29247721,3.5508167 5.30095079,3.5508167 C6.30942436,3.5508167 7.11103156,4.40411374 7.11103156,5.47761647 C7.11103156,6.00060498 6.93002345,6.46854204 6.56800731,6.85390198 C6.49043243,6.96400482 6.33528267,7.01905627 6.20599117,7.01905627 Z" id="Path"></path>
                                        </g>
                                        <g id="Group" transform="translate(4.395911, 0.000000)">
                                            <path d="M0.543024228,5.53266787 C0.517165929,5.53266787 0.517165929,5.53266787 0.491307634,5.53266787 C0.206866372,5.50514215 7.2858386e-16,5.22988506 0.0258582965,4.92710224 C0.310299558,2.11947973 2.50825476,0 5.17165929,0 C7.80920557,0 10.0330191,2.11947973 10.3174603,4.89957652 C10.3433186,5.20235934 10.1364522,5.47761647 9.85201099,5.50514215 C9.56756973,5.53266787 9.30898674,5.31246218 9.28312847,5.00967937 C9.05040379,2.78009679 7.29203963,1.10102843 5.17165929,1.10102843 C3.05127899,1.10102843 1.29291483,2.78009679 1.06019016,5.03720509 C1.03433186,5.31246218 0.801607191,5.53266787 0.543024228,5.53266787 Z" id="Path"></path>
                                            <path d="M7.99021364,5.75287356 C7.73163065,5.75287356 7.49890601,5.53266787 7.4730477,5.25741078 C7.34375621,3.99122807 6.36114094,3.02782819 5.14580102,3.02782819 C3.93046107,3.02782819 2.9478458,3.99122807 2.81855432,5.25741078 C2.79269603,5.56019359 2.53411306,5.78039929 2.2496718,5.75287356 C1.96523054,5.72534784 1.75836416,5.45009075 1.78422246,5.14730793 C1.99108883,3.3030853 3.43915344,1.92679976 5.17165929,1.92679976 C6.90416519,1.92679976 8.35222978,3.3030853 8.50737954,5.14730793 C8.53323785,5.45009075 8.32637147,5.72534784 8.04193022,5.75287356 C8.04193022,5.75287356 8.01607191,5.75287356 7.99021364,5.75287356 Z" id="Path"></path>
                                            <path d="M6.36114094,6.57864488 C6.28356606,6.57864488 6.23184948,6.55111916 6.15427456,6.52359348 C5.89569161,6.41349064 5.76640011,6.0831821 5.8698333,5.80792497 C5.92154992,5.69782216 5.92154992,5.58771932 5.92154992,5.47761647 C5.92154992,5.00967937 5.58539205,4.65184515 5.14580102,4.65184515 C4.70620997,4.65184515 4.37005213,5.00967937 4.37005213,5.47761647 C4.37005213,5.56019359 4.3959104,5.67029644 4.42176871,5.75287356 C4.5252019,6.02813066 4.37005213,6.35843919 4.11146914,6.44101632 C3.85288618,6.55111916 3.54258662,6.38596491 3.46501173,6.11070782 C3.38743685,5.94555353 3.36157855,5.72534784 3.36157855,5.50514215 C3.36157855,4.43163946 4.16318576,3.57834241 5.17165929,3.57834241 C6.18013287,3.57834241 6.98174007,4.43163946 6.98174007,5.50514215 C6.98174007,5.75287356 6.93002345,6.02813066 6.8265903,6.24833635 C6.74901538,6.46854204 6.56800731,6.57864488 6.36114094,6.57864488 Z" id="Path"></path>
                                        </g>
                                    </g>
                                </g>
                            </g>
                        </g>
                    </g>
                </g>
            </g>
        </g>
    </g>
</svg>