<?xml version="1.0" encoding="UTF-8"?>
<svg width="22px" height="20px" viewBox="0 0 22 20" version="1.1" xmlns="http://www.w3.org/2000/svg" xmlns:xlink="http://www.w3.org/1999/xlink">
    <!-- Generator: Sketch 51.3 (57544) - http://www.bohemiancoding.com/sketch -->
    <title>Group 2</title>
    <desc>Created with Sketch.</desc>
    <defs></defs>
    <g id="Symbols" stroke="none" stroke-width="1" fill="none" fill-rule="evenodd">
        <g id="Icon-|-Telephone" fill="#FFFFFF" fill-rule="nonzero">
            <g id="Group-2">
                <path d="M17.1903448,1.06358621 C14.2529655,0.199517241 12.6625172,0.195344828 11.2598276,0.191931034 L10.3532759,0.188137931 C9.08903448,0.188137931 7.51755172,0.251482759 4.85441379,1.01010345 C1.57527586,1.94358621 0.206344828,4.29189655 0.201793103,5.34106897 L0.194206897,6.96413793 C0.191931034,7.52475862 0.398655172,8.05503448 0.761655172,8.41955172 C1.10758621,8.767 1.57072414,8.9502069 2.101,8.9502069 C2.16889655,8.9502069 2.24324138,8.943 2.3172069,8.93617241 L1.33706897,15.7982759 L1.32758621,15.9325517 C1.32758621,17.9193793 2.9442069,19.536 4.93103448,19.536 L17.0689655,19.536 C19.0557931,19.536 20.6724138,17.9193793 20.6724138,15.9325517 L19.6922759,9.01431034 C19.7601724,9.02 19.8303448,9.02796552 19.8933103,9.02796552 C21.1382069,9.02796552 21.7936552,8.03682759 21.7978276,7.05782759 L21.8050345,5.43513793 C21.8092069,4.38558621 20.46,2.02551724 17.1903448,1.06358621 Z M17.0693448,17.6394483 L4.93141379,17.6394483 C4.01006897,17.6394483 3.25751724,16.9062414 3.22565517,15.9924828 L4.28317241,8.58872414 C5.093,8.42031034 5.93165517,8.23217241 6.47255172,8.1107931 C8.07627586,7.75044828 8.04972414,6.47368966 8.041,6.05417241 L8.03948276,5.84934483 C8.03948276,5.72948276 8.03948276,5.50303448 8.06375862,5.37482759 C8.54586207,5.24017241 10.0676552,5.08503448 11.004931,5.08503448 L11.0053103,5.08503448 C11.9001034,5.08882759 13.4624828,5.26065517 13.9434483,5.40024138 C13.9669655,5.52844828 13.965069,5.75565517 13.963931,5.87551724 L13.9605172,6.07958621 C13.9483793,6.49910345 13.9104483,7.77624138 15.5213793,8.15289655 C16.0596207,8.27882759 16.9092759,8.4772069 17.727069,8.65434483 L18.7751034,15.9924828 C18.7432414,16.9062414 17.9906897,17.6394483 17.0693448,17.6394483 Z M19.9016552,7.05024138 C19.9016552,7.07944828 19.8967241,7.10865517 19.8906552,7.13141379 C19.8678966,7.13141379 19.844,7.12913793 19.8189655,7.12572414 C18.9681724,7.0107931 16.8557931,6.51693103 15.9431724,6.30375862 C15.9063793,6.29503448 15.8771724,6.28668966 15.8540345,6.27910345 C15.8536552,6.23244828 15.8555517,6.1782069 15.8566897,6.13572414 C15.8582069,6.08148276 15.8597241,6.02875862 15.8601034,5.97641379 L15.8608621,5.89372414 C15.8657931,5.38544828 15.8767931,4.1947931 14.8272414,3.70889655 C14.0037586,3.32806897 11.5886897,3.19151724 10.9772414,3.18886207 C10.3805862,3.18886207 8.01406897,3.30531034 7.19551724,3.67551724 C6.14255172,4.15193103 6.14331034,5.3422069 6.14331034,5.85010345 L6.14331034,5.93393103 C6.14293103,5.98551724 6.14406897,6.039 6.1452069,6.09324138 C6.14634483,6.13534483 6.14748276,6.1892069 6.14672414,6.23548276 C6.12017241,6.24382759 6.08527586,6.25368966 6.04051724,6.26355172 C5.13813793,6.46610345 3.02424138,6.941 2.17458621,7.04796552 C2.14955172,7.051 2.12527586,7.05289655 2.10289655,7.05289655 C2.09682759,7.02975862 2.09265517,7.00055172 2.09265517,6.97172414 L2.10024138,5.379 C2.167,5.06493103 2.93662069,3.5272069 5.37558621,2.83268966 C7.80393103,2.1412069 9.16717241,2.08355172 10.3551724,2.08355172 L11.2567931,2.08734483 C12.595,2.09075862 13.9791034,2.09417241 16.6566552,2.882 C19.0891724,3.59775862 19.8458966,5.14231034 19.91,5.45713793 L19.9016552,7.05024138 Z" id="Shape"></path>
                <path d="M11.0003793,7.39806897 C8.49048276,7.39806897 6.44865517,9.43989655 6.44865517,11.9497931 C6.44865517,14.4596897 8.49048276,16.5015172 11.0003793,16.5015172 C13.5102759,16.5015172 15.5521034,14.4596897 15.5521034,11.9497931 C15.5521034,9.43989655 13.5102759,7.39806897 11.0003793,7.39806897 Z M11.0003793,14.6049655 C9.53662069,14.6049655 8.3452069,13.413931 8.3452069,11.9497931 C8.3452069,10.4856552 9.53662069,9.29462069 11.0003793,9.29462069 C12.4641379,9.29462069 13.6555517,10.4856552 13.6555517,11.9497931 C13.6555517,13.413931 12.4641379,14.6049655 11.0003793,14.6049655 Z" id="Shape"></path>
            </g>
        </g>
    </g>
</svg>