<?xml version="1.0" encoding="UTF-8"?>
<svg width="24px" height="24px" viewBox="0 0 24 24" version="1.1" xmlns="http://www.w3.org/2000/svg" xmlns:xlink="http://www.w3.org/1999/xlink">
    <!-- Generator: Sketch 51.3 (57544) - http://www.bohemiancoding.com/sketch -->
    <title>Shape</title>
    <desc>Created with Sketch.</desc>
    <defs></defs>
    <g id="Symbols" stroke="none" stroke-width="1" fill="none" fill-rule="evenodd">
        <g id="Icon-|-Token-SMS" transform="translate(0.000000, 1.000000)" fill="#FFFFFF" fill-rule="nonzero" stroke="#FFFFFF" stroke-width="0.5">
            <path d="M1.49171282,12.0091409 L1.01365654,14.3163797 C0.926607244,14.7371409 1.19676726,15.148909 1.61739898,15.2365819 L4.05481271,15.741571 C4.20061092,15.7716817 4.3523989,15.742616 4.4767591,15.6607727 L5.2622976,15.1512949 C5.37919776,15.0676443 5.45953486,14.9423184 5.48673717,14.8011692 L5.73586509,13.6497942 L6.4091838,13.7867023 C6.97935245,13.9055809 7.53797241,13.5398657 7.65706781,12.9697423 L7.79622034,12.2964236 L8.94983973,12.5208631 C9.09377799,12.5484726 9.2428059,12.5186671 9.36505294,12.4378205 L10.1303919,11.9328314 C10.5246934,12.1664364 10.9460081,12.3510913 11.3850091,12.4827084 C11.6522249,12.5598478 11.9267955,12.6087439 12.2042135,12.6285941 C12.2670566,12.769991 12.3343884,12.9091436 12.4106979,13.0460517 L8.59522521,18.4730005 C8.45944342,18.6642247 8.40607889,18.9019394 8.4470951,19.1328529 L8.85333072,21.4602912 C8.91637284,21.8322436 9.23693905,22.1055287 9.61418086,22.1089216 C9.65930734,22.1090448 9.70436096,22.1052903 9.7488446,22.0976996 L12.1997247,21.6600424 C12.3457793,21.6361099 12.4764632,21.5554409 12.5633168,21.4356028 L13.0997274,20.6725083 C13.1844808,20.5518642 13.2183431,20.4027089 13.193992,20.2572951 L13.000974,19.0946981 L13.6742927,18.9779896 C14.2471905,18.8775882 14.6307212,18.3324123 14.5316518,17.7592827 L14.4149433,17.085964 L15.5685627,16.8615244 C15.7121668,16.8359404 15.8401636,16.7554392 15.9254216,16.6370848 L16.4506102,15.8852123 C19.1506118,16.314505 21.7703458,14.7479589 22.6698306,12.1662486 C23.2066894,10.682798 23.0791292,9.04005111 22.3197049,7.65725764 C22.1715792,7.38331808 21.8294277,7.28132579 21.5554882,7.42945148 C21.2815486,7.57757717 21.1795563,7.91972865 21.327682,8.19366821 C21.9351836,9.29384219 22.0390557,10.6024665 21.6127203,11.7847013 C20.8624927,13.9750006 18.5792377,15.2449825 16.3226796,14.7271041 C16.099927,14.6755837 15.8681917,14.7643712 15.7368923,14.9515437 L15.1376387,15.8246136 L13.8112008,16.0737415 C13.4284089,16.1410354 13.1723588,16.5055302 13.2388799,16.8884572 L13.4139428,17.8984352 L12.3994759,18.0690093 C12.0178328,18.1352867 11.7612185,18.4971531 11.8249106,18.8792361 L12.0493502,20.2258736 L11.7710451,20.6006876 L9.88575274,20.9283694 L9.55807097,19.043077 L13.5351401,13.4006662 C13.6665482,13.2140966 13.6718723,12.9665263 13.5486065,12.7744798 C12.4366838,11.050166 12.6311898,8.79218174 14.0216139,7.28342363 C15.412038,5.77466552 17.6466597,5.39678788 19.455856,6.36448572 L18.5827861,7.47321719 C17.9361186,7.27398385 17.2327094,7.47207662 16.7850473,7.97949302 C16.3373852,8.48690942 16.2285113,9.20952388 16.5067927,9.82631577 C16.7850741,10.4431077 17.3988897,10.8396623 18.0755527,10.8398107 C18.1756427,10.8394161 18.275513,10.8304053 18.3740573,10.812878 C18.9596351,10.7167308 19.4542294,10.3253912 19.6824673,9.77762019 C19.9107052,9.22984917 19.8403148,8.60309934 19.4962551,8.11960315 L21.145886,6.02109317 C22.2967245,4.50933741 22.0987704,2.36822802 20.6902727,1.09309309 C19.2817751,-0.182041848 17.1315888,-0.166740623 15.7413811,1.12831055 L14.9962418,1.84202838 C13.1492352,1.14015642 11.0693957,1.45893757 9.51739439,2.68178224 C7.96539303,3.90462691 7.16887753,5.85216812 7.41916187,7.81212094 L1.87326009,11.4502864 C1.67630293,11.5778906 1.53883547,11.77924 1.49171282,12.0091409 Z M18.5715641,9.46624057 C18.4066276,9.69957235 18.0998919,9.78399371 17.8387899,9.66791845 C17.5776878,9.55184319 17.4348609,9.26756477 17.4975845,8.98879333 C17.560308,8.7100219 17.8111317,8.51431484 18.096788,8.52126021 C18.3824443,8.52820559 18.6234604,8.73587111 18.6725619,9.01736143 C18.7002206,9.17447216 18.6638504,9.33611746 18.5715641,9.46624057 Z M16.5156976,1.94078179 C17.4793527,1.03123412 18.9807834,1.01685453 19.9616821,1.90777869 C20.9425808,2.79870286 21.0722759,4.29459055 20.2593497,5.34104128 L20.1605963,5.46672744 C19.5337706,5.10069739 18.8415224,4.8605452 18.122685,4.75974279 C17.6711538,3.78816277 16.9556739,2.96302777 16.0578409,2.37843895 L16.5156976,1.94078179 Z M2.56902276,12.3345783 L8.33711971,8.55052713 C8.53015102,8.42525845 8.6271276,8.19482786 8.58175884,7.96922864 C8.16097956,5.83237396 9.32926316,3.70051955 11.3568127,2.90538047 C13.3843622,2.1102414 15.6903994,2.87957999 16.8344018,4.73281004 C16.6795385,4.74627642 16.5246752,4.76647598 16.3698119,4.79340873 C14.875483,5.05370234 13.5495412,5.90629395 12.6926182,7.15787477 C11.8356952,8.4094556 11.5203847,9.95399878 11.8181774,11.4413088 C11.7822671,11.4413088 11.741868,11.425598 11.7059577,11.414376 C11.2557516,11.2794689 10.8294052,11.0750043 10.4423629,10.8083892 C10.253044,10.6810878 10.0054953,10.6810878 9.81617647,10.8083892 L8.93637336,11.3807101 L7.6121799,11.1226046 C7.23102266,11.0439092 6.85823349,11.2890859 6.77950909,11.6702372 L6.57078029,12.6824596 L5.56753541,12.45802 C5.18780896,12.3791021 4.81568218,12.6218371 4.73486461,13.0011638 L4.44758196,14.3320905 L4.05481271,14.590196 L2.1829867,14.2086487 L2.56902276,12.3345783 Z" id="Shape"></path>
        </g>
    </g>
</svg>