<?xml version="1.0" encoding="UTF-8"?>
<svg width="30px" height="30px" viewBox="0 0 30 30" version="1.1" xmlns="http://www.w3.org/2000/svg" xmlns:xlink="http://www.w3.org/1999/xlink">
    <!-- Generator: Sketch 51.3 (57544) - http://www.bohemiancoding.com/sketch -->
    <title>Shape</title>
    <desc>Created with Sketch.</desc>
    <defs></defs>
    <g id="Symbols" stroke="none" stroke-width="1" fill="none" fill-rule="evenodd">
        <g id="Icon-|-User" transform="translate(1.000000, 1.000000)" fill="#FFFFFF" fill-rule="nonzero" stroke="#FFFFFF" stroke-width="0.5">
            <path d="M28,14 C28,6.2804 21.7196,0 14,0 C6.2804,0 0,6.2804 0,14 C0,18.2161778 1.87631111,22.0002222 4.83435556,24.5690667 C4.8692,24.6088889 4.90995556,24.6434222 4.95475556,24.6732889 C7.39666667,26.7459111 10.5538222,28 14,28 C17.4464889,28 20.6036444,26.7459111 23.0455556,24.6729778 C23.0897333,24.6431111 23.1298667,24.6092 23.1644,24.57 C26.1233778,22.0011556 28,18.2168 28,14 Z M1.24444444,14 C1.24444444,6.96671111 6.96671111,1.24444444 14,1.24444444 C21.0332889,1.24444444 26.7555556,6.96671111 26.7555556,14 C26.7555556,17.5435556 25.3020444,20.7529778 22.9612444,23.0670222 C21.8614667,20.4337778 19.6367111,18.4283556 16.9670667,17.5594222 C18.8545778,16.5119111 20.1360444,14.4996444 20.1360444,12.1921333 C20.1360444,8.8088 17.3833333,6.05608889 14,6.05608889 C10.6166667,6.05608889 7.86395556,8.8088 7.86395556,12.1921333 C7.86395556,14.4996444 9.14542222,16.5119111 11.0329333,17.5594222 C8.36328889,18.4280444 6.13822222,20.4337778 5.03875556,23.0667111 C2.69795556,20.7529778 1.24444444,17.5435556 1.24444444,14 Z M14,17.0837333 C13.9993778,17.0837333 13.9990667,17.0837333 13.9984444,17.0837333 C11.3020444,17.0828 9.1084,14.8888444 9.1084,12.1921333 C9.1084,9.49511111 11.3026667,7.30053333 14,7.30053333 C16.6973333,7.30053333 18.8916,9.4948 18.8916,12.1921333 C18.8916,14.8888444 16.6982667,17.0828 14.0015556,17.0837333 C14.0009333,17.0837333 14.0003111,17.0837333 14,17.0837333 Z M6.03182222,23.9499556 C7.22057778,20.622 10.4346667,18.3288 13.9981333,18.3281778 C13.9987556,18.3281778 13.9993778,18.3281778 13.9996889,18.3281778 C14.0003111,18.3281778 14.0006222,18.3281778 14.0012444,18.3281778 C17.5647111,18.3288 20.7788,20.6223111 21.9675556,23.9502667 C19.7829333,25.7033778 17.0128,26.7555556 14,26.7555556 C10.9872,26.7555556 8.21675556,25.7033778 6.03182222,23.9499556 Z" id="Shape"></path>
        </g>
    </g>
</svg>