<?xml version="1.0" encoding="UTF-8"?>
<svg width="62px" height="66px" viewBox="0 0 62 66" version="1.1" xmlns="http://www.w3.org/2000/svg" xmlns:xlink="http://www.w3.org/1999/xlink">
    <!-- Generator: Sketch 51.3 (57544) - http://www.bohemiancoding.com/sketch -->
    <title>logo_medpass_outline</title>
    <desc>Created with Sketch.</desc>
    <defs></defs>
    <g id="Symbols" stroke="none" stroke-width="1" fill="none" fill-rule="evenodd">
        <g id="Icon-Copy" transform="translate(-22.000000, -20.000000)" fill="#FFFFFF" fill-rule="nonzero">
            <g id="Group">
                <g id="logo_medpass_outline" transform="translate(22.000000, 20.000000)">
                    <path d="M0,63.7627119 L0.651178429,62.6249099 C10.4816879,45.5004158 22.6827153,16.1531703 22.8026692,15.8601001 L22.8198055,15.8198748 C27.0124806,7.34382488 30.9024149,0.80433686 39.5676577,0.0515486964 C43.1148665,-0.201296183 46.1251387,0.476787812 48.5356413,2.06856126 C54.8189419,6.17154408 54.8189419,15.2279879 54.8132298,15.3199315 L54.8075178,15.4521004 L54.636155,18.8712528 L53.3509344,15.205002 C52.9396638,13.1707501 52.0714259,11.4180753 50.6833877,9.8435413 C49.3353341,8.3092326 47.6731155,7.4070361 45.8738067,7.23464186 C42.9892005,6.95881109 39.7904293,8.54483806 36.6259306,11.8145821 C32.7074358,15.8601001 28.9203192,22.3306305 25.3616862,31.0480323 C21.6088421,40.2538845 15.6511307,52.6490301 8.59098559,59.4356165 C4.29549279,63.5673317 1.59938561,63.7339795 1.30235686,63.739726 L0,63.7627119 Z M24.162147,16.451987 C23.7851489,17.35993 12.4580715,44.5637404 2.83890947,61.7744317 C4.00988822,61.2400095 5.66639475,60.1941512 7.59136958,58.3437864 C14.4515914,51.7353407 20.295061,39.5470682 23.9907842,30.4848778 L24.2478283,29.8585121 C27.8007492,21.2790256 31.6050022,14.8602136 35.5577695,10.7802167 C39.0478574,7.17717712 42.6578992,5.43599534 46.0108969,5.75779791 C48.1929158,5.96467099 50.1921478,7.03926173 51.7915335,8.86089416 C51.9457599,9.03328839 52.0942743,9.2114291 52.2370766,9.40106276 C51.4773684,7.30934603 50.1293148,4.89008025 47.7245243,3.32129271 C45.890943,2.10878658 43.6232426,1.4939138 40.9899685,1.4939138 C40.5615616,1.4939138 40.1217306,1.51115323 39.6818995,1.5398856 C31.8049254,2.22371607 28.1320505,8.41841562 24.162147,16.451987 Z" id="Shape"></path>
                    <path d="M48.2363752,46.9830508 L48.0232791,46.1311034 C44.3430508,31.4776069 40.4612452,23.2636582 40.426689,23.1814012 L40.2711864,22.8523732 L41.1638866,21.2542373 L41.7283034,22.4352127 C41.7686189,22.5174697 45.5870717,30.5786554 49.2500218,44.8913729 C50.2521497,44.4213329 51.7783789,43.5693855 53.2758114,42.0300045 L53.7538379,41.5364625 L54.8135593,42.6058035 L54.3355328,43.0993455 C52.1930525,45.3026579 50.0563316,46.2074849 49.0311663,46.6422719 L48.2363752,46.9830508 Z" id="Shape"></path>
                    <path d="M52.4014398,42.5084746 L52.0582352,41.3480867 C51.1171903,38.16135 50.807199,36.7758123 50.3422121,34.6801865 L50.3145343,34.5531789 C49.904903,32.7231145 49.3956317,30.4427504 48.3051267,26.1533565 C45.9359077,16.6855155 45.2107496,15.0921471 45.1221807,14.9131819 L44.7457627,14.4224706 L45.8307321,13.4756865 L46.2514346,13.98949 C46.6998148,14.5437051 47.9563865,18.833099 49.6890163,25.7665606 C50.7850568,30.0732736 51.2943281,32.3651839 51.7039595,34.2067945 C52.1135908,36.0368589 52.4014398,37.3300274 53.0601712,39.64503 C54.8869055,37.145289 56.1157994,33.9527792 56.7025686,30.1194582 C56.0991927,27.5042558 55.645277,25.5356376 55.2965368,24.0173192 L55.2411812,23.763304 C54.1063918,18.838872 54.1008562,18.8100067 53.3037358,15.9350159 L52.1966241,13.4237288 L54.4219186,14.5725705 L54.6710187,15.47317 C55.4902813,18.4289838 55.4902813,18.4289838 56.6361419,23.4169195 C57.0014887,24.9987418 57.4775467,27.0770483 58.1362782,29.9116276 L58.1694915,30.0444083 L58.1528849,30.1887351 C57.3945134,35.2459477 56.0549083,38.5654652 53.6690826,41.2961291 L53.6247982,41.3423137 L52.5066154,42.4045592 L52.5066154,42.3987862 L52.4014398,42.5084746 Z M45.1277162,14.9305011 C45.1332518,14.9420472 45.1387873,14.9478203 45.1443229,14.9535934 L45.1277162,14.9305011 Z" id="Shape"></path>
                    <path d="M30.6506274,63.7627119 C26.1972366,63.7627119 22.8903202,63.3023849 19.975164,62.8988884 C19.5027474,62.8306918 19.0821814,62.7681783 18.6846601,62.7056647 C17.9184234,62.5863207 17.2558879,62.4840258 16.3859499,62.3987801 L14.5423729,62.2169225 L16.4378005,60.9211873 L16.6855312,60.9439195 C17.5727527,61.0291652 18.2180046,61.1314601 18.9035849,61.239438 C19.2895838,61.3019516 19.6986275,61.3644651 20.1825664,61.4326617 C25.1026127,62.1146276 30.6794333,62.8932053 41.3548967,61.5406396 C48.2337436,60.540423 52.5027767,57.3465493 54.8763822,54.8403247 C57.4055394,52.1692915 58.3734174,49.6744329 58.3849397,49.6517007 L58.4944021,49.3902805 C62.3313469,40.4565272 57.8721949,31.5625552 57.682076,31.187474 L57.5322854,30.8976385 L58.3734174,29.0847458 L59.0129082,30.3293335 C59.0647588,30.4259454 64.0193721,40.2917187 59.8713237,49.9585854 L59.7791449,50.1859074 C59.6812049,50.4416446 58.6441928,53.027432 55.971006,55.8462244 C53.4360876,58.5229405 48.8789956,61.9384531 41.5565379,63.0011833 C37.5237131,63.5126577 33.9633049,63.7627119 30.6506274,63.7627119 Z" id="Shape"></path>
                    <path d="M32.4390283,57.0508475 C28.8181946,57.0508475 25.7989234,56.802408 24.3494441,56.6868548 L24.3207982,56.6868548 C24.0801732,56.6695218 23.8739232,56.6521888 23.7077773,56.6406335 L22.3728814,56.5424133 L23.5702773,55.1268863 L23.9140274,55.149997 C24.0515274,55.1615523 24.1603816,55.16733 24.3265274,55.1846629 L24.4754858,55.1962183 C26.8645485,55.3926587 33.1780909,55.9068706 39.6635082,55.1788853 C47.6900716,54.2833478 53.2931972,51.8567302 56.3124684,47.9683643 C58.9135103,44.6230985 59.5780937,40.1223006 58.3004894,34.5757459 C56.7364268,40.7231773 52.9723638,44.9293146 47.0713215,47.0959375 C41.4624668,49.1585625 35.3036119,48.9332337 31.2244448,48.7830145 C30.101528,48.7425709 29.1447571,48.7079049 28.491632,48.7367932 L27.2312152,48.7945698 L28.1937153,47.171047 L28.594757,47.18838 C28.7780904,47.1941577 28.9671529,47.205713 29.1619446,47.2172683 C29.7291322,47.2461566 30.3765281,47.2750449 31.2530907,47.2923779 C35.2291328,47.4368195 41.2161126,47.6621482 46.5499673,45.6977435 C52.8463222,43.3809014 56.5015309,38.5161108 57.4010102,31.2362579 L57.807781,27.9661017 L58.8447603,31.0918163 C61.3140314,38.5565544 60.855698,44.5479889 57.4697602,48.9043454 C54.2041348,53.1104826 48.2629883,55.7219854 39.8239249,56.6637442 C37.5437163,56.9237389 35.0572577,57.0508475 32.4390283,57.0508475 Z" id="Shape"></path>
                    <path d="M7.13749372,66 C3.29247516,66 0.825966951,64.6817316 0.803181656,64.6645368 L0,64.2575931 L0.45000958,63.4609005 C11.1192241,44.5466149 22.3181966,17.1896802 22.4321231,16.9202949 L22.4492121,16.8744421 C26.7898108,8.06497032 30.5379919,1.78313489 39.2419747,1.16985351 C43.5711807,0.860347017 47.0801162,1.95508294 49.6833362,4.41967165 C54.7017974,9.17116944 55.4764975,17.1610222 55.5049791,17.4991867 C55.5448534,17.9347884 55.8239732,19.2530568 55.9322034,19.7230481 L55.3226967,19.883533 L55.3568747,20.4910827 L55.1062364,19.9465806 L54.6334416,20.0726758 L54.0752018,18.2328317 C54.0011496,18.0723468 53.9214011,17.7628403 53.7505114,17.0177321 C52.7023878,14.7594811 52.1897187,13.7736456 51.5403377,13.2807278 C51.0618465,13.0400006 50.6175333,12.9654897 50.3327171,12.9425633 C49.4668759,12.8737841 47.4959478,13.4584075 44.0382793,18.1010048 C40.0622453,23.437126 35.2944223,32.5561043 29.8601294,45.2000175 C25.2176255,55.9983551 19.4016789,62.6871342 12.560394,65.0772121 C10.7888373,65.6904935 8.97170998,66 7.13749372,66 Z M2.06776554,63.5984589 C3.58868399,64.1888139 7.42800623,65.2892814 12.0762065,63.6672381 C18.507356,61.4204503 24.0327901,55.006788 28.498708,44.603931 C33.0329817,34.0463207 37.1742091,25.8329355 40.8027674,20.1987711 C44.5908227,14.3066845 47.6668376,11.4466153 50.190309,11.4466153 L50.2244869,11.4466153 C50.2985392,11.4466153 50.3953767,11.4466153 50.5093031,11.4638101 C51.2384326,11.5956369 51.7966723,11.8077062 52.2694672,12.1344075 C52.4232679,12.2203815 52.582765,12.3178188 52.7422621,12.4267192 C51.9276878,10.0481045 50.611837,7.3255937 48.6807832,5.49721277 C46.3965573,3.33066734 43.2578829,2.37348986 39.3559011,2.64860674 C31.4380111,3.2045721 27.9119866,9.15397463 23.7935445,17.5049183 C23.4118908,18.4219745 12.6914094,44.5867362 2.06776554,63.5984589 Z" id="Shape"></path>
                </g>
            </g>
        </g>
    </g>
</svg>